<svg id="Réteg_2" data-name="Réteg 2" xmlns="http://www.w3.org/2000/svg" viewBox="0 0 91.32018 98.29454">
  <defs>
    <style>
      .cls-1 {
        fill: #3da6fc;
      }

      .cls-2 {
        fill: #0979cc;
      }

      .cls-3 {
        fill: #03407c;
      }

      .cls-4 {
        fill: #78c8ff;
      }

      .cls-5 {
        fill: #99dbff;
      }

      .cls-6 {
        fill: #58c4f4;
      }

      .cls-7 {
        fill: #d7f1ff;
      }

      .cls-8 {
        fill: #094baa;
      }

      .cls-9 {
        fill: #012970;
      }

      .cls-10 {
        fill: #0564d6;
      }

      .cls-11 {
        fill: #61bfff;
      }

      .cls-12 {
        fill: #8e2f23;
      }

      .cls-13 {
        fill: #590e0d;
      }

      .cls-14 {
        fill: #58bff9;
      }

      .cls-15 {
        fill: #a6fbff;
        opacity: 0.46;
      }

      .cls-16 {
        fill: #020e8c;
      }

      .cls-16, .cls-17 {
        opacity: 0.56;
      }

      .cls-17 {
        fill: #2c58b7;
      }
    </style>
  </defs>
  <g>
    <polygon class="cls-1" points="6.305 74.689 12.277 80.71 29.649 87.875 33.806 93.577 45.614 98.295 45.481 51.029 16.826 31.971 1.58 25.515 0 47.583 3.638 59.312 1.713 72.781 6.305 74.689"/>
    <path class="cls-2" d="M29.78223,77.89031c.62518-3.29622.19-6.5941-.21542-9.97631-.50168-4.17695-.13929-8.08134-.14653-12.248-.00942-5.58054-1.13322-11.04106-1.85216-16.551L24.6063,37.14454c.58976,7.09586-.24282,13.88463-2.17364,17.84178-.20191,3.84133,3.76205,8.33592.25424,14.12605C20.64653,72.48263,27.91351,72.86936,29.78223,77.89031Z"/>
    <g>
      <path class="cls-2" d="M45.55722,77.91761l-.07667-26.88844-6.52763-4.343a6.70076,6.70076,0,0,0-.78191,4.79523,30.14428,30.14428,0,0,0,3.30389,6.70748,1.49428,1.49428,0,0,1,.20017.9539,1.80066,1.80066,0,0,1,.02128.22232q-.00263.70777-.02556,1.40621a1.83592,1.83592,0,0,1,.02556.37565,40.33323,40.33323,0,0,1-.52557,4.992C42.37516,70.16,43.96366,74.04052,45.55722,77.91761Z"/>
      <path class="cls-2" d="M26.35824,38.31021c2.44114,8.5169,4.7825,17.05769,8.73887,25.012,1.10208-1.39086,2.02371-2.93164,3.0466-4.39149-1.42749-2.38663-3.05681-4.99034-3.30041-7.762a11.55815,11.55815,0,0,1,1.42148-6.27043Z"/>
    </g>
    <path class="cls-2" d="M11.02275,64.053c-.04936-.25214-.10728-.5076-.1699-.76568-.546,1.73668-1.09746,3.47248-1.77121,5.16573-.796,1.9965-1.67956,4.40947-3.25105,6.03878l.474.19676,5.97188,6.021,6.97236,2.87627a13.02688,13.02688,0,0,0-.68605-3.55343c-1.09371-2.959-3.92061-4.676-5.24118-7.54041A36.93053,36.93053,0,0,1,11.02275,64.053Z"/>
    <path class="cls-3" d="M5.83059,74.49187l.474.19676,5.97188,6.021.69844.28869c-.91517-5.842-1.99562-11.65944-2.15994-17.59085-.53369,1.69664-1.07453,3.39076-1.73336,5.04563C8.28568,70.44959,7.40208,72.86256,5.83059,74.49187Z"/>
    <path class="cls-2" d="M9.2763,28.7733c-.84322,9.44873,1.48157,20.41182,7.90454,27.48893a16.952,16.952,0,0,0,.84366-5.38639c-.62221-6.40126-2.5574-12.86976-2.12637-19.29823Z"/>
    <path class="cls-2" d="M29.6494,87.87525l4.15645,5.70151.18525.07327a48.27792,48.27792,0,0,1,2.766-5.58569c1.356-2.31074,2.05014-3.59433,2.05014-6.34038V77.53429c-3.63689,2.96234-6.589,6.63848-9.7894,10.08027Z"/>
    <path class="cls-3" d="M35.89262,85.88983a31.60647,31.60647,0,0,0-4.19352,4.79532l2.10675,2.89161.18525.07327a48.27792,48.27792,0,0,1,2.766-5.58569c1.356-2.31074,2.05014-3.59433,2.05014-6.34038V77.53429l-.00855.00767c-.471,1.50416-.98032,2.99131-1.48287,4.48526C36.95555,83.09616,36.76567,85.10025,35.89262,85.88983Z"/>
    <path class="cls-3" d="M1.58047,25.515,0,47.58346,3.63776,59.31232,1.7133,72.78074l.15246.08862c.0328-.08347.06132-.16868.09411-.25215,1.29039-3.30389,2.947-6.40754,4.17651-9.71143l-2.237-11.87661,2.40529-23.5139Z"/>
    <polygon class="cls-4" points="60.41 5.587 56.409 6.181 45.772 0 37.333 4.49 33.806 4.154 20.765 13.305 19.481 15.18 17.576 16.279 15.771 15.903 1.58 25.515 6.025 30.416 16.03 33.372 16.857 36.482 22.918 37.915 28.971 41.433 35.254 48.149 45.481 51.029 54.162 49.193 59.315 43.041 73.2 37.915 80.053 31.067 89.672 25.512 83.741 19.384 77.648 18.525 60.41 5.587"/>
    <g>
      <path class="cls-5" d="M23.6046,29.92484A47.79745,47.79745,0,0,1,4.99549,26.96336c-.54468.16528-1.08814.33683-1.62217.52854l2.65194,2.924,10.00483,2.956.82665,3.11054,6.06094,1.433,4.80595,2.79333a24.97793,24.97793,0,0,1-.83345-3.91076,1.54384,1.54384,0,0,1,.04727-.6243A22.8882,22.8882,0,0,1,23.6046,29.92484Z"/>
      <path class="cls-5" d="M72.50784,33.118a20.92893,20.92893,0,0,1-8.94662,5.4771c-1.17709.42676-5.63,1.08176-6.22534,2.09654a22.42566,22.42566,0,0,1-3.25444,4.372,34.351,34.351,0,0,1-7.31643,5.693l7.39649-1.56337,5.153-6.15208,13.88585-5.12579,6.853-6.84877,1.31594-.75931q-1.30446-.82278-2.59952-1.66c-1.54933.813-3.07564,1.66725-4.602,2.522C73.63382,31.83272,73.08705,32.48686,72.50784,33.118Z"/>
      <path class="cls-6" d="M60.40978,5.58734l-4.00059.59413L45.77186,0l-8.439,4.48988-3.527-.336-13.04053,9.1514-1.28481,1.87431L17.576,16.27919l-1.80524-.37643-11.86047,8.034c1.37045-.43312,2.76524-.80319,4.16587-1.12432,5.24928-1.20352,10.55177-2.3329,15.85548-3.26,12.495-2.18384,25.70542-3.831,38.37152-2.20129a28.70537,28.70537,0,0,1,12.96256,5.07808c3.06457,2.071,6.17345,4.06618,9.30351,6.03023l5.10276-2.947-5.93063-6.12817-6.09329-.85945Z"/>
    </g>
    <g>
      <path class="cls-7" d="M15.89813,31.57761a20.77579,20.77579,0,0,1-7.365-2.10718,17.47378,17.47378,0,0,1-5.91693-4.65769L1.58047,25.515l4.44479,4.90085,10.00483,2.956.82665,3.11054,4.81355,1.13871a11.6781,11.6781,0,0,0-1.21669-.9607C17.78727,35.25244,15.89813,31.57761,15.89813,31.57761Z"/>
      <path class="cls-7" d="M62.00168,41.79979a1.58993,1.58993,0,0,1,.02555.23976l11.17312-4.12418,6.853-6.84877L89.672,25.5124l-.37983-.39221c-3.82772.86964-7.73979,2.78346-11.56664,3.65311C77.45221,34.6243,68.968,39.96386,62.00168,41.79979Z"/>
    </g>
    <path class="cls-3" d="M35.83209,74.59243a12.4287,12.4287,0,0,1-4.808-1.79721,2.5323,2.5323,0,0,1-.491-.43774,1.962,1.962,0,0,1-1.19244-1.45392c-.2777-3.29108.29855-7.36074.47185-10.69865.1-1.88068.62265-3.09858.718-4.49459l3.58282,3.99719s-.30273,7.10685,0,6.65288c.30239-.45223,1.05787-7.71249,1.05787-7.71249l-2.87243-4.30036-1.40962-5.98261L28.97059,41.433l-6.05291-3.51767,3.13059,6.59628c.66094,1.88155,1.08978,3.93849,1.70519,5.88632.05486.173.09664.34669.1358.52043a1.97165,1.97165,0,0,1,.57067,1.57917,29.67526,29.67526,0,0,1-1.21844,6.48934c.06263.08347.12612.16528.18569.24875-.29855,3.079-.6141,6.13158-.91683,9.1808l-.79769.51449c-1.09877.4429-4.70331.8168-5.68276,1.563a28.328,28.328,0,0,0,6.207.65151c2.815,1.70773,3.3844,6.779,4.94132,9.56421.477-.971-.17966-3.85415.592-4.69824.76568-.844,3.45888-.7963,3.2042-.72565Z"/>
    <polygon class="cls-3" points="13.644 47.039 18.986 59.312 16.857 36.482 16.03 33.372 13.644 47.039"/>
    <polygon class="cls-8" points="89.672 25.512 80.053 31.067 73.2 37.915 61.522 41.766 59.315 43.041 54.162 49.193 45.481 51.029 43.836 61.904 45.548 74.689 44.18 82.174 45.614 98.295 64.419 87.656 67.642 84.062 74.346 82.174 82.876 75.046 89.805 72.777 91.32 61.904 89.737 48.675 91.32 33.372 89.672 25.512"/>
    <path class="cls-9" d="M59.03174,88.89561c-.3118.77171-.6141,1.54847-.91395,2.32523l6.30113-3.5645,3.06029-3.41292c-.00514-.01613-.01535-.03061-.02128-.04858-1.028-3.13862-.85342-8.33758-3.55-10.61344-2.29548-1.93858-4.17947-3.63942-5.29019-6.52a87.481,87.481,0,0,1-3.1735-11.007c-.5043-2.085-1.54594-4.39158-2.19327-6.67032l-1.30059.276c-.43774,5.80407.1167,11.57039.51528,17.36984.104,1.50328-.3671,4.91795.57494,6.22621,1.18224,1.63952,3.64719,2.70506,5.25522,3.94948,2.476,1.91556,3.43254,1.90955,2.99645,5.199C60.99065,84.68291,59.88089,86.78669,59.03174,88.89561Z"/>
    <path class="cls-9" d="M72.64242,80.95575q-.27723.92874-.55785,1.855l2.2613-.637,4.8405-4.04576c.31764-6.90843,3.60112-13.25814,4.18025-20.09924a1.77837,1.77837,0,0,1-.27081-.2811,18.45489,18.45489,0,0,1-4.02449-13.63327,23.01047,23.01047,0,0,1,.46592-2.45988c.24272-2.64846.29636-5.31654.43609-7.97772-.00681-.85945.00087-1.71714.04343-2.57354l-6.69631,6.69126c.86363,4.89658,2.78939,9.51127,3.73056,14.39476a34.81313,34.81313,0,0,1-.02808,14.35595C75.925,71.45381,74.07933,76.14255,72.64242,80.95575Z"/>
    <path class="cls-9" d="M51.96231,49.657l-6.48176,1.3722L43.83589,61.90408l1.712,12.78455L44.18,82.17374l.34076,3.83191q.81-2.40445,1.729-4.76967c.81593-2.097,2.734-5.0704,2.36012-7.38629-.33893-2.08756-.787-4.16413-1.07914-6.25857a21.21842,21.21842,0,0,1,1.12946-11.53333A47.27625,47.27625,0,0,1,51.96231,49.657Z"/>
    <path class="cls-9" d="M62.68137,66.96856c.00515.04.0068.08006.01107.12009.5971-2.631,1.27766-5.24754,2.02293-7.8488a1.74693,1.74693,0,0,1,2.74082-.75208,6.79422,6.79422,0,0,1,1.67711-.31425,14.1497,14.1497,0,0,1-4.20843-4.05772c-2.045-3.5781-2.32435-8.34612-3.17106-12.425l-.23165.07535-2.20766,1.275-.26234.31259c3.70421,5.38342,4.039,13.29773,3.14463,20.18227C62.3816,64.67735,62.54941,65.82121,62.68137,66.96856Z"/>
    <path class="cls-10" d="M66.89154,84.90008l.75034-.83807,6.704-1.88827.59116-.49487c1.4752-7.73124,4.24934-15.17876,5.41787-22.96966a1.76733,1.76733,0,0,1-.36116-.56465,120.48125,120.48125,0,0,1-4.15732-11.80212c-.04,6.598,1.75717,15.17161-.74781,21.68817C72.83665,73.88806,69.64091,79.28466,66.89154,84.90008Z"/>
    <path class="cls-9" d="M89.672,25.5124,84.594,28.44458c.31259,2.68552,1.45566,5.05627,2.45387,7.545.64733,1.61448,2.05267,4.3,1.56041,6.0925-.70271,2.55391-1.89254,5.15-2.7341,7.68694-.26828.80868-.55444,1.60507-.8543,2.39465.31774,2.16762,1.29466,4.18793,1.93179,6.32067a12.1025,12.1025,0,0,1,.735,2.94961,1.37067,1.37067,0,0,1-.02548,1.603,39.21927,39.21927,0,0,0-3.25967,6.91183c-.58593,1.78944-1.20858,3.56877-1.83376,5.35481l.30832-.25807,6.92892-2.26819,1.51524-10.87326L89.73674,48.675l1.58344-15.30314Z"/>
    <path class="cls-11" d="M3.07355,71.4444c3.29491-3.797,7.98287-11.96174,7.796-17.0679-.256-6.97742-2.726-13.84372-3.83627-20.42552.06855,6.72954-3.92986,12.66916-.71545,19.3353a13.14635,13.14635,0,0,1,1.0481,9.56159C6.70024,65.48568,3.52534,68.40285,3.07355,71.4444Z"/>
    <path class="cls-11" d="M14.90751,70.44444c1.1354,2.09271,2.33761,4.177,3.53136,6.26791,1.0174,1.781,1.50538,3.723,2.40991,5.41622.54512-2.00156,3.04033-4.906,2.93724-6.97228a5.0453,5.0453,0,0,0-1.95944-3.15571c-.90235-.56473-3.19313-.24953-3.88258-1.40534-.78278-1.31088.68222-2.011,1.66472-2.74605,1.65409-1.2384,1.73834-1.29972,1.81718-3.47676.0553-1.52971.31852-8.25672-.93095-9.05738-.03455-.10728-.0669-.2163-.09673-.32532-.4135,4.32259-1.373,5.73474-1.94487,8.17413-.71292.207-1.39984.35262-2.0702.5902-1.0706-3.01172-1.26012-6.43911-2.40058-9.37076l-.19589-.58767c.35306.9641-.19676,2.56542-.19973,3.76632-.00515,2.03906.20357,3.9589.00427,5.998A10.3084,10.3084,0,0,0,14.90751,70.44444Z"/>
    <path class="cls-11" d="M17.85242,37.38692c1.10644,4.54361,3.20168,8.9236,4.35705,13.47017l.39134-.19589c.50552-.27422.46845-4.19177.39187-5.68023-.1112-2.1685-.76193-4.30681-.81731-6.42934C20.72023,38.14755,19.29012,37.75106,17.85242,37.38692Z"/>
    <path class="cls-12" d="M17.832,37.38178l.02041.00514-.00515-.02084C17.77279,37.29622,17.76765,37.30171,17.832,37.38178Z"/>
    <path class="cls-11" d="M36.72223,93.31188c2.43338,1.26309,5.56354,2.20338,8.01314,3.37969-1.7291-3.3073-1.00083-9.34267-1.56809-13.12356-.655-4.36342,2.12506-8.5531-1.76311-12.35954-1.93344,1.18564-4.08659,2.2162-6.11971,3.30049-1.68218.89686-2.10335.79639-2.10675,2.60459-.00175,1.09789.39091,2.45893.39221,3.74085.60094-1.87727,4.2987-3.93849,6.08562-5.24928-.19248,3.3925,1.36452,6.74664,1.161,10.12118C40.64782,88.51831,37.95462,90.858,36.72223,93.31188Z"/>
    <path class="cls-11" d="M32.55637,59.10876c-2.63057.67367-2.26051,5.35822-2.51179,7.81034-.18054,1.75718-.65238,3.22218.39606,4.108a12.25169,12.25169,0,0,0,4.07,1.54166c1.399-4.38217,5.15857-7.497,6.10567-11.91324.52383-2.44533-.161-3.94783-1.41476-6.02858-.88752-1.4718-2.3772-4.21741-3.085-5.14192.67541,1.57742-.01788,3.62669.97954,5.28923.99393,1.65923,2.64627,2.77928,2.0995,4.85236-.53237,2.02546-2.91891,3.1906-3.91625,4.93155-.937,1.63708-1.01661,2.9368-2.64976,4.29957a27.5911,27.5911,0,0,1-.431-4.68115C32.2655,62.514,32.80546,60.7679,32.55637,59.10876Z"/>
    <path class="cls-11" d="M23.189,81.414c-.60093,1.75116,2.15524,3.41205,3.869,4.16159,2.52452,1.10209,3.27877-1.40882,2.54074-3.32517a41.316,41.316,0,0,0-2.88447-5.53806l.196-.1959C25.91029,77.48745,23.65746,80.0486,23.189,81.414Z"/>
    <path class="cls-10" d="M85.67737,37.73318c-.59788-1.97906-1.93763-4.58539-2.55173-6.07123l-.196-.39265a66.01227,66.01227,0,0,1-1.21712,8.42244c-.53482,2.32051-1.43857,5.20916-1.13366,7.64.2538,2.01525,1.7495,3.78682,2.30229,5.83608.55357,2.051,1.49055,4.84643,2.00749,6.53287,1.01783-4.98868-1.27931-10.47554-.19075-15.50844C85.18084,41.96158,86.3997,40.11719,85.67737,37.73318Z"/>
    <path class="cls-10" d="M46.92854,87.04564a72.45689,72.45689,0,0,0,.39178,7.27553c1.821-1.178,3.246-3.66079,4.86091-5.22966,1.38911-1.35,2.85838-2.61139,4.16325-4.113.6209-.71545,2.78094-2.4905,2.50838-3.56877-.34669-1.3722-3.93247-.74615-5.07721-.80912.18142-1.27591.88919-2.55016.91814-3.85415-3.263-.84148-3.03727-4.93661-3.30389-7.51486-.32532-3.13268-.11748-7.01919-1.21285-9.921-.44464-.16353-.12777.15586-.15411.16528l-.391-.19511c1.20177,3.30389.25215,8.40325.58689,11.94647.29209,3.07984.79978,5.70151-.53325,8.41852C48.6831,81.68733,47.03076,84.9061,46.92854,87.04564Z"/>
    <path class="cls-10" d="M65.54577,72.79522c.80746,1.65749,1.79372,3.4547,2.64549,4.88132,1.01268-3.44528,2.55609-6.59331,3.73144-9.92948,1.20866-3.4342,1.586-6.98684,2.55608-10.37673C69.69716,53.6252,70.21157,45.481,69.77635,40.30968a11.69309,11.69309,0,0,0-3.50571.55191c-.747.19415-2.16344.64044-1.94879.78949h-.195a41.53647,41.53647,0,0,0,2.39761,9.94535c.97858,2.64976,2.95808,4.30638,4.47584,6.70312-2.10465,2.62848-5.44858,5.66828-5.89993,9.01055C64.79884,69.55186,64.59013,70.83623,65.54577,72.79522Z"/>
    <path class="cls-10" d="M62.76405,70.57135c-.78278-4.25265-1.69246-8.41852-2.36447-12.65338-.66774-4.2093-.61576-8.473-1.98708-12.52516-1.53059,1.01487-2.23749,2.97849-3.2766,4.41662a1.23156,1.23156,0,0,0,.15839-.10937l.2129-.21508a1.12029,1.12029,0,0,1-.2129.21508l-.178.17836C58.1348,56.63866,58.46361,64.7029,62.76405,70.57135Z"/>
    <path class="cls-13" d="M55.50719,49.485l-.2129.21508A1.12029,1.12029,0,0,0,55.50719,49.485Z"/>
    <path class="cls-7" d="M54.1615,49.19324l4.89066-5.83949-6.15889,3.99719-7.336,2.03313s-7.87428-2.24821-8.25586-2.03313-8.09023-5.66017-8.09023-5.66017l6.04271,6.45777,9.48153,4.86178-1.95988,8.89376L45.6262,73.43749l-.89083-12.40986.89083-8.01731Z"/>
    <path class="cls-14" d="M44.73109,53.02986l-1.9556,8.87422L45.6262,73.43749l-.89083-12.40986.88578-7.96707C45.32469,53.05716,45.02745,53.04948,44.73109,53.02986Z"/>
    <g>
      <path class="cls-15" d="M67.70493,28.89933c3.0296-1.17369,7.46287-3.95079,6.9953-7.84236a5.336,5.336,0,0,0-.80746-2.2571,11.32309,11.32309,0,0,0-4.70409-3.13644c-.30578-.08478-.61244-.15935-.919-.21892-.59622-.1146-1.19079-.19807-1.78186-.26488a25.43463,25.43463,0,0,0-10.05393,1.97732A23.3864,23.3864,0,0,0,54.02012,18.446c-2.37293,1.95726-5.79186,3.15484-4.44609,6.47278,1.344,3.31794,8.18093,4.74456,8.18093,4.74456A18.5173,18.5173,0,0,0,67.70493,28.89933Z"/>
      <path class="cls-15" d="M55.78829,24.07471c.06986,1.34062,3.17019,1.25506,4.07472,1.29248,3.24939.13719,8.32572.26488,10.72586-2.3814,3.079-3.39547-.67968-5.34339-3.906-5.53928a13.82212,13.82212,0,0,0-8.46029,3.36006C57.427,21.51269,55.72445,22.86011,55.78829,24.07471Z"/>
    </g>
    <g>
      <path class="cls-15" d="M20.40424,29.32774c2.068-.37128,5.22364-1.58806,5.4068-4.1151a3.44192,3.44192,0,0,0-.23462-1.5319,7.31819,7.31819,0,0,0-2.59821-2.57091c-.1836-.09114-.36928-.17714-.55662-.25171-.36414-.14609-.73037-.273-1.09834-.38838a16.448,16.448,0,0,0-6.62392.01535,14.85821,14.85821,0,0,0-1.69115.52077c-1.74689.94885-4.06453,1.28743-3.62033,3.559.44377,2.27159,4.60745,4.02065,4.60745,4.02065A11.97635,11.97635,0,0,0,20.40424,29.32774Z"/>
      <path class="cls-15" d="M13.43571,24.79608c-.12009.85858,1.85766,1.18739,2.427,1.3224,2.04508.48755,5.25182,1.19541,7.10057-.18874,2.37337-1.775.22781-3.475-1.79546-3.99719A8.9425,8.9425,0,0,0,15.38451,23.022C14.79256,23.37243,13.54561,24.01679,13.43571,24.79608Z"/>
    </g>
    <g>
      <path class="cls-15" d="M40.01078,5.53283C35.11586,7.03315,27.3254,10.58152,26.29353,16.37207c-1.11316,8.75283,9.6127,7.54722,13.65079,6.91393,5.66235-.8884,12.14829-4.86806,13.98126-10.64161C55.00045,9.25668,53.88721,7.189,51.82773,6.02a15.54287,15.54287,0,0,1-1.58849-.67969A19.24863,19.24863,0,0,0,40.01078,5.53283Z"/>
      <path class="cls-15" d="M30.54923,18.288c3.83923,1.965,10.47-.96925,13.67591-3.2029,1.94879-1.35772,3.98785-3.25837,3.68285-5.88554-.24185-2.09017-2.1957-2.31371-3.94433-2.111a23.29043,23.29043,0,0,0-8.31211,2.795C35.31341,10.06876,26.40551,16.16764,30.54923,18.288Z"/>
    </g>
    <g>
      <path class="cls-15" d="M46.43881,27.53873C41.68955,26.56434,33.604,25.9805,30.1195,30.32429c-4.89614,6.77132,4.56664,10.63524,8.2099,11.94011,5.10956,1.83079,12.30764,1.46665,16.45048-2.502,2.4291-2.32819,2.44358-4.55084,1.26134-6.45742a14.70471,14.70471,0,0,1-1.01181-1.28611A18.21907,18.21907,0,0,0,46.43881,27.53873Z"/>
      <path class="cls-15" d="M32.78715,33.84841c2.30141,3.37454,9.14338,3.94434,12.82117,3.54235,2.23583-.24491,4.79445-.8986,5.73134-3.22174.74781-1.84779-.77423-2.9197-2.31929-3.54322a22.03027,22.03027,0,0,0-8.17745-1.4479C40.47748,29.1779,30.30607,30.20637,32.78715,33.84841Z"/>
    </g>
    <g>
      <g>
        <path class="cls-16" d="M77.20181,22.74856a35.83809,35.83809,0,0,1,6.55834-3.346l-.01876-.01831-5.5678-.78488a37.74089,37.74089,0,0,1-2.02964,4.759C76.49657,23.15526,76.85425,22.95937,77.20181,22.74856Z"/>
        <path class="cls-16" d="M56.04549,13.62306c.57155-1.09109,1.161-2.17364,1.79381-3.2302.80825-1.35126,2.43931-2.91682,2.61479-4.52695a1.63874,1.63874,0,0,1,.04431-.21167l-.08862-.0669-3.99291.59238C56.28569,8.65662,56.221,11.147,56.04549,13.62306Z"/>
      </g>
      <path class="cls-17" d="M58.57088,42.25542c.24535.26488.48895.53281.74362.78574l2.20766-1.275c-1.9522-1.755-3.68888-5.79649-6.26538-6.463C56.30357,37.64029,57.61271,39.88292,58.57088,42.25542Z"/>
      <path class="cls-17" d="M35.28785,35.30312,22.91768,37.91537,28.97059,41.433S35.34324,35.884,35.28785,35.30312Z"/>
      <path class="cls-16" d="M23.97467,19.28454c-.01745-.01195-.037-.01745-.05408-.0294a38.162,38.162,0,0,1-4.44008-4.07551L17.576,16.27919c.34111.35855.66992.70611.98076,1.03571,1.46116.56726,2.98834.902,4.43711,1.58038.33858.15848.67333.3228,1.01016.48633C23.99386,19.34882,23.98453,19.31689,23.97467,19.28454Z"/>
      <polygon class="cls-16" points="33.806 4.154 41.793 7.069 43.836 9.754 43.281 6.421 37.333 4.49 33.806 4.154"/>
    </g>
  </g>
</svg>
