<svg id="Réteg_3" data-name="Réteg 3" xmlns="http://www.w3.org/2000/svg" viewBox="0 0 91.32 98.29404">
  <defs>
    <style>
      .cls-1 {
        fill: #515151;
      }

      .cls-2 {
        fill: #353535;
      }

      .cls-3 {
        fill: #212121;
      }

      .cls-4 {
        fill: #ffb208;
      }

      .cls-5 {
        fill: #ffd60b;
      }

      .cls-6 {
        fill: #ff960b;
      }

      .cls-7 {
        fill: #fff576;
      }

      .cls-8 {
        fill: #ff7c06;
      }

      .cls-9 {
        fill: #8e2f23;
      }

      .cls-10 {
        fill: #590e0d;
      }
    </style>
  </defs>
  <g>
    <polygon class="cls-1" points="6.304 74.69 12.276 80.711 29.65 87.875 33.805 93.576 45.614 98.294 45.481 51.028 16.826 31.971 1.579 25.515 0 47.583 3.638 59.313 1.713 72.78 6.304 74.69"/>
    <path class="cls-2" d="M29.78191,77.88982c.62518-3.29623.18988-6.59334-.21464-9.97644-.50167-4.177-.13972-8.08127-.1474-12.24716-.00933-5.58143-1.13279-11.04189-1.85164-16.551l-2.96236-1.97086c.59029,7.09579-.24273,13.88415-2.17365,17.84132-.20182,3.84309,3.76216,8.33682.25468,14.12784C20.64617,72.48212,27.91318,72.87051,29.78191,77.88982Z"/>
    <g>
      <path class="cls-2" d="M45.55608,77.91877l-.07492-26.89028-6.52862-4.34215a6.69981,6.69981,0,0,0-.781,4.79446,30.13177,30.13177,0,0,0,3.303,6.70916,1.49393,1.49393,0,0,1,.201.95225,2.04477,2.04477,0,0,1,.0204.2231q-.00247.7066-.02468,1.40535a1.8506,1.8506,0,0,1,.02468.37739,40.28556,40.28556,0,0,1-.52549,4.99027C42.3748,70.162,43.96331,74.03993,45.55608,77.91877Z"/>
      <path class="cls-2" d="M26.3579,38.31123c2.44106,8.51562,4.78252,17.056,8.73882,25.01125,1.1013-1.39173,2.02372-2.93253,3.0467-4.39073-1.4275-2.3882-3.056-4.992-3.3005-7.76188a11.559,11.559,0,0,1,1.42243-6.27133Z"/>
    </g>
    <path class="cls-2" d="M11.02236,64.05241c-.04946-.2504-.10737-.50586-.16956-.76394-.54677,1.73669-1.097,3.47084-1.77157,5.16409C8.28571,70.449,7.40246,72.862,5.83018,74.493l.4735.19677,5.97244,6.021,6.97229,2.87453a12.99859,12.99859,0,0,0-.68561-3.55169c-1.09364-2.959-3.92055-4.676-5.24164-7.54218A36.88916,36.88916,0,0,1,11.02236,64.05241Z"/>
    <path class="cls-3" d="M5.83018,74.493l.4735.19677,5.97244,6.021.69844.28782c-.91483-5.84291-1.99564-11.65861-2.16-17.5918-.53316,1.69666-1.074,3.39252-1.73328,5.04574C8.28571,70.449,7.40246,72.862,5.83018,74.493Z"/>
    <path class="cls-2" d="M9.27538,28.77428c-.84235,9.44833,1.48209,20.41025,7.905,27.48729a16.90633,16.90633,0,0,0,.84322-5.38554c-.62178-6.40163-2.55688-12.86972-2.12594-19.29865Z"/>
    <path class="cls-2" d="M29.64986,87.87471l4.15559,5.70154.18569.07413a48.44223,48.44223,0,0,1,2.7656-5.58658c1.356-2.31075,2.051-3.59434,2.051-6.34031v-4.188c-3.6369,2.96236-6.58994,6.63677-9.78988,10.07953Z"/>
    <path class="cls-3" d="M35.89223,85.88937a31.74543,31.74543,0,0,0-4.194,4.797l2.10718,2.88989.18569.07413a48.44223,48.44223,0,0,1,2.7656-5.58658c1.356-2.31075,2.051-3.59434,2.051-6.34031v-4.188l-.00933.006c-.4702,1.50416-.98042,2.993-1.48288,4.48693C36.95612,83.0956,36.76529,85.10144,35.89223,85.88937Z"/>
    <path class="cls-3" d="M1.57908,25.51468,0,47.5832,3.63778,59.31333l-1.925,13.46691.15333.09027c.03157-.08522.06053-.16868.09376-.25215,1.2903-3.30557,2.947-6.40931,4.176-9.71321L3.89839,51.02849,6.30368,27.51625Z"/>
    <polygon class="cls-4" points="60.41 5.587 56.409 6.181 45.772 0 37.333 4.489 33.805 4.152 20.765 13.306 19.48 15.179 17.576 16.279 15.771 15.903 1.579 25.515 6.025 30.416 16.03 33.371 16.857 36.483 22.918 37.916 28.971 41.434 35.253 48.15 45.481 51.028 54.162 49.192 59.314 43.042 73.2 37.916 80.053 31.067 89.672 25.511 83.742 19.383 77.648 18.524 60.41 5.587"/>
    <g>
      <path class="cls-5" d="M23.60426,29.925A47.80413,47.80413,0,0,1,4.99541,26.96346c-.54511.16615-1.08848.33727-1.62251.52811l2.6523,2.924,10.00452,2.95556.827,3.11229,6.061,1.43255,4.80554,2.792a24.849,24.849,0,0,1-.833-3.91034,1.53787,1.53787,0,0,1,.04683-.6243A22.915,22.915,0,0,1,23.60426,29.925Z"/>
      <path class="cls-5" d="M72.50768,33.11818a20.95235,20.95235,0,0,1-8.94587,5.47668c-1.1771.42667-5.6308,1.08168-6.22615,2.09777a22.3924,22.3924,0,0,1-3.25454,4.37119,34.34077,34.34077,0,0,1-7.31646,5.693l7.3974-1.56461,5.15214-6.15044L73.2001,37.916l6.85307-6.84879,1.316-.76063q-1.30436-.82146-2.59945-1.65915c-1.54847.81339-3.07566,1.66682-4.602,2.52287C73.63453,31.83284,73.08681,32.487,72.50768,33.11818Z"/>
      <path class="cls-6" d="M60.40957,5.58736l-4.0006.5937L45.7716,0,37.33255,4.48946l-3.5271-.33727L20.7654,13.30581l-1.28534,1.873-1.90362,1.10043-1.80567-.37643L3.91033,23.93726c1.36959-.43357,2.76473-.80407,4.1658-1.12512,5.2493-1.20352,10.55225-2.33291,15.856-3.25881C36.42627,17.36947,49.63675,15.7214,62.303,17.35159A28.70965,28.70965,0,0,1,75.2656,22.42882c3.06458,2.07143,6.17338,4.06619,9.30355,6.03034l5.10278-2.94788L83.74206,19.383l-6.09419-.85857Z"/>
    </g>
    <g>
      <path class="cls-7" d="M15.89767,31.57738a20.77212,20.77212,0,0,1-7.36495-2.10719,17.48467,17.48467,0,0,1-5.917-4.65648l-1.03659.701L6.0252,30.41555l10.00452,2.95556.827,3.11229,4.81321,1.13793a11.64554,11.64554,0,0,0-1.21712-.96166C17.78768,35.25258,15.89767,31.57738,15.89767,31.57738Z"/>
      <path class="cls-7" d="M62.00148,41.8a1.60274,1.60274,0,0,1,.02556.23845L73.2001,37.916l6.85307-6.84879,9.61876-5.55588-.37905-.391c-3.8286.86965-7.7406,2.78435-11.56746,3.654C77.452,34.62487,68.96785,39.96357,62.00148,41.8Z"/>
    </g>
    <path class="cls-3" d="M41.79314,69.77444c-1.011-.351-6.34886,4.29784-7.54471,3.797-.85944-.36117-4.757-.81514-4.90776-2.66853-.27769-3.28942.29812-7.36068.47185-10.69869.10057-1.88059.62265-3.09685.71807-4.4946l3.58239,3.9972s-.30238,7.107,0,6.65465c.30239-.454,1.05875-7.71417,1.05875-7.71417L32.2979,54.34688l-1.40876-5.98264L28.971,41.43363,22.91768,37.916l3.13017,6.59587c.66093,1.88234,1.09023,3.93763,1.70519,5.88556a11.39889,11.39889,0,0,1,.06559,5.07888,51.93047,51.93047,0,0,1-5.98516-2.42745,18.0466,18.0466,0,0,0-1.79722-4.567,24.9114,24.9114,0,0,1-.05111,5.80715c.79387.21979,1.63194.50081,2.44708.6967.15839,1.76486.30239,3.65993.53918,5.43665.25468-1.11316.557-2.57729.94117-3.803,1.49134.16013,2.6523,1.41389,3.51428,2.61567-.29811,3.07906-.6141,6.13335-.91649,9.18258l-.798.51275c-1.09878.4429-4.70254.8168-5.68287,1.5647a28.38477,28.38477,0,0,0,6.20661.64986c2.81592,1.70938,3.38572,6.77893,4.94186,9.5659.47691-.97187-.17975-3.85582.592-4.69992.76569-.8441,3.45889-.79639,3.20422-.724Z"/>
    <g>
      <g>
        <path class="cls-8" d="M73.92837,27.62361c-.44123.25041-8.2176,2.13868-11.31113,4.34721.56726-.1337,1.13113-.2572,1.69072-.35175,2.88317-.48633,5.76625-1.15067,8.66049-1.55527,1.98369-.276,2.84052-.41987,4.17007-2.18978q1.0809-1.445,2.177-2.87637,2.172-2.835,4.46827-5.57122l-.04178-.04344-5.56861-.78444A69.5562,69.5562,0,0,1,73.92837,27.62361Z"/>
        <path class="cls-8" d="M56.04527,13.62355C56.61672,12.53245,57.207,11.449,57.839,10.392c.80834-1.3517,2.4394-2.91631,2.61488-4.527a1.63717,1.63717,0,0,1,.04423-.21036l-.08854-.06734-3.99214.59195C56.28548,8.65534,56.22067,11.14751,56.04527,13.62355Z"/>
      </g>
      <path class="cls-8" d="M55.07514,35.25258c-.56639,3.90266-3.36269,2.28947-5.16749.144-1.83123.88919-2.13283,2.884-3.73913,3.80637-1.43177.83137-3.97766.54433-5.50651.81174,2.6421,1.61493,4.5329,1.48794,6.54136.04256,3.10452-2.22475,1.98456-3.13775,5.72028-.53656.62343-.57241,1.87807-.77677,2.52025-1.35083a27.46775,27.46775,0,0,0,3.8703,4.87191L61.522,41.76585C59.52379,39.96872,57.75466,35.76708,55.07514,35.25258Z"/>
      <path class="cls-8" d="M54.605,17.82946A23.41758,23.41758,0,0,0,62.65134,14.5c.31172.73926,1.28525,1.41215,1.5817,2.14548,4.17949-.7001,2.8754-.379,4.59508,2.73158,1.11325,2.01857,2.6523,2.87889,5.5176,2.57651-1.178-.83555-3.43082-1.60891-4.30553-2.87977-.9812-1.41895-.43783-3.21616-1.62348-4.6939-2.37372,1.08255-5.36844,1.32362-4.28851-2.18638-2.48022-.6414-5.6785,2.24089-8.08293,2.924-3.12842.88413-4.43931-.1235-7.796-.62265,1.81849-1.05865,2.98024-2.57389,4.76289-3.68121C49.01332,11.9644,44.64474,13.67038,41.98982,9.134l.0068,1.24957a8.76916,8.76916,0,0,1,.5077.84741c-1.52719,1.0877-3.16767,1.20867-4.85831,2.08338,1.1907-.40033,4.10623-.52209,5.98342-1.03572a25.42334,25.42334,0,0,0,3.125,2.75287c-4.3132,3.31489-6.141,1.62164-10.84513.01107A29.21645,29.21645,0,0,1,40.455,18.86771c-1.56207.86537-4.06793,1.247-5.06108,2.12934,6.29949-.247,10.04115-4.54057,13.96-4.889,5.9392-.53482,3.56111,4.13353,3.55518,8.078A38.55993,38.55993,0,0,0,54.605,17.82946Z"/>
      <path class="cls-8" d="M40.17569,29.46845c.61323.09367,8.692,3.00152,8.692,3.00152l5.5721-4.30386s-5.40176,3.16427-5.75185,3.11316c-.35176-.05285-5.81308-2.48284-5.81308-2.48284.563-.18481,3.01426-.98373,3.27834-3.36182.26654-2.37974,1.45053-3.10034,1.45053-3.10034s-1.28533-.99821-2.212,2.80476c-.92669,3.80472-12.00355,2.95809-12.00355,2.95809l-6.83266,6.1487L24.0284,32.3865l.81933-2.73149-.78532-1.51786c.78278,1.3722-1.64554,4.41463-1.64554,4.41463l.50081,5.36417L28.971,41.43363l.42929-1.04592-2.70175-2.89337L29.143,37.3206l5.25611,3.81326,2.78862-3.05856-2.82185,2.08757L29.15926,34.814l4.98434-5.17S39.56071,29.37731,40.17569,29.46845Z"/>
      <path class="cls-8" d="M18.55259,24.93721A23.87157,23.87157,0,0,0,22.37,21.35647c2.62849-.84828,6.15812,1.57316,8.77972,2.114-.35428-.83467-2.54328-2.00156-2.65657-2.95468-.115-.948,1.39348-2.63015,1.29807-2.42911l.24612-7.35135c-.77589.44882-.758,6.38628-1.73067,6.87008-.701.34756-3.12763,2.57058-4.38645,1.649a38.04994,38.04994,0,0,1-4.44019-4.07561l-1.90362,1.10043c1.41564,1.49143,2.63189,2.79455,3.21364,3.407l-.11243.78784C20.35739,21.41439,18.6173,23.90655,18.55259,24.93721Z"/>
      <polygon class="cls-8" points="33.805 4.152 41.793 7.07 43.836 9.755 43.28 6.42 37.333 4.489 33.805 4.152"/>
    </g>
    <polygon class="cls-3" points="13.643 47.039 18.985 59.313 16.857 36.483 16.03 33.371 13.643 47.039"/>
    <polygon class="cls-1" points="89.672 25.511 80.053 31.067 73.2 37.916 61.522 41.766 59.314 43.042 54.162 49.192 45.481 51.028 43.836 61.904 45.548 74.69 44.18 82.173 45.614 98.294 64.419 87.657 67.643 84.061 74.346 82.173 82.876 75.045 89.805 72.778 91.32 61.904 89.737 48.674 91.32 33.371 89.672 25.511"/>
    <path class="cls-3" d="M59.03144,88.89508c-.31171.77345-.61323,1.54847-.914,2.327l6.30125-3.56539L67.479,84.24461a.52672.52672,0,0,0-.02041-.04936c-1.02891-3.1395-.8543-8.33683-3.55091-10.6127-2.29541-1.93859-4.17949-3.64117-5.28925-6.52173A87.38945,87.38945,0,0,1,55.4439,56.0546c-.5042-2.085-1.54507-4.39238-2.19318-6.66912l-1.3006.2743c-.43783,5.80375.11662,11.57174.51529,17.37122.10474,1.50329-.3671,4.918.57572,6.22449,1.18137,1.63961,3.64633,2.70594,5.25437,3.95124,2.476,1.91557,3.43255,1.90789,2.99646,5.199C60.99045,84.6841,59.8806,86.78623,59.03144,88.89508Z"/>
    <path class="cls-3" d="M72.64225,80.95693c-.1848.6175-.3705,1.23666-.55793,1.85338l2.2614-.63713,4.84129-4.044c.31766-6.91019,3.60027-13.25984,4.18027-20.09931a1.90273,1.90273,0,0,1-.27168-.2811,18.46124,18.46124,0,0,1-4.02441-13.6355,23.1282,23.1282,0,0,1,.46583-2.45981c.24281-2.648.29646-5.31655.43609-7.9774-.00681-.85857.00087-1.71627.0443-2.57223L73.3202,37.7942c.86363,4.89747,2.7895,9.51139,3.73145,14.39438a34.827,34.827,0,0,1-.029,14.35609C75.92479,71.45321,74.08,76.14206,72.64225,80.95693Z"/>
    <path class="cls-3" d="M51.962,49.658l-6.48082,1.37046-1.64476,10.875,1.71113,12.78626-1.36784,7.48339.34068,3.832q.80994-2.40447,1.729-4.76979c.816-2.097,2.735-5.07042,2.3602-7.38457-.33814-2.08931-.78618-4.16414-1.07915-6.26025A21.21478,21.21478,0,0,1,48.65982,56.058,47.31792,47.31792,0,0,1,51.962,49.658Z"/>
    <path class="cls-3" d="M62.68118,66.96968c.00505.03829.00766.07832.01107.11923.597-2.63189,1.27757-5.24591,2.02285-7.84875a1.74731,1.74731,0,0,1,2.74091-.753,6.86966,6.86966,0,0,1,1.6779-.31433,14.16658,14.16658,0,0,1-4.20932-4.05512c-2.045-3.58073-2.32436-8.3479-3.171-12.4277l-.23165.0758L59.3142,43.04176l-.26235.31259c3.70511,5.38379,4.039,13.29735,3.14465,20.18278C62.38131,64.67846,62.55,65.82067,62.68118,66.96968Z"/>
    <path class="cls-2" d="M66.89127,84.90128l.75208-.83983,6.70237-1.88827.59194-.49487c1.47433-7.73293,4.24935-15.17708,5.417-22.968a1.74056,1.74056,0,0,1-.36022-.5664,79.516,79.516,0,0,1-3.19828-9.67143c-.04,6.59839.79717,13.04093-1.70695,19.5576C72.83727,73.88921,69.64073,79.28583,66.89127,84.90128Z"/>
    <path class="cls-3" d="M89.67193,25.51128l-5.07809,2.9334c.31258,2.68466,1.45557,5.05673,2.45387,7.54384.64733,1.61659,2.05356,4.30125,1.56033,6.09332-.70263,2.55522-1.89254,5.15136-2.734,7.687q-.40256,1.215-.8543,2.39422c.31764,2.16772,1.29632,4.1897,1.93257,6.32078a12.16129,12.16129,0,0,1,.73421,2.94954,1.37076,1.37076,0,0,1-.02556,1.603,39.23317,39.23317,0,0,0-3.2596,6.9136c-.586,1.78946-1.20867,3.567-1.83376,5.35318l.30832-.25807,6.92886-2.26654L91.32,61.90353,89.73664,48.6743,91.32,33.37111Z"/>
    <path class="cls-2" d="M6.9314,33.3507c.03157.19929.06733.39946.10143.60041A15.68769,15.68769,0,0,0,6.9314,32.28Z"/>
    <path class="cls-2" d="M3.07391,71.44554C6.3684,67.64676,11.05637,59.482,10.869,54.37583c-.25555-6.97744-2.72557-13.84412-3.8362-20.42472.069,6.72966-3.93083,12.66877-.71554,19.337A13.14064,13.14064,0,0,1,7.365,62.849C6.70061,65.4868,3.52535,68.40311,3.07391,71.44554Z"/>
    <path class="cls-2" d="M14.908,70.44393c1.13444,2.09436,2.33709,4.17687,3.53041,6.26792,1.01783,1.78187,1.50591,3.7229,2.41044,5.41624.54512-2.00078,3.04069-4.906,2.93681-6.97238a5.036,5.036,0,0,0-1.959-3.15311c-.90288-.56727-3.194-.25215-3.88312-1.408-.7827-1.3108.6823-2.0109,1.66516-2.7451,1.65322-1.23763,1.73843-1.29981,1.81675-3.47765.05539-1.52806.31852-8.25676-.93009-9.05742-.03489-.10736-.06725-.21464-.098-.32366-.41228,4.32252-1.373,5.733-1.94452,8.17241-.71205.20872-1.39942.3535-2.06968.59195-1.0707-3.01172-1.26066-6.43913-2.40111-9.37254l-.1959-.58767c.35349.96419-.19589,2.5663-.20017,3.76642-.00426,2.03986.20357,3.95883.00515,5.99877A10.30213,10.30213,0,0,0,14.908,70.44393Z"/>
    <path class="cls-2" d="M17.8524,37.38619c1.10558,4.54493,3.20169,8.9245,4.35663,13.47031l.39187-.196c.50509-.27256.46845-4.19135.39091-5.67851-.11068-2.17025-.76141-4.30892-.8168-6.43059C20.72022,38.14682,19.2902,37.75076,17.8524,37.38619Z"/>
    <path class="cls-9" d="M17.83112,37.38192l.02128.00427-.00506-.02041C17.77321,37.29679,17.76728,37.30185,17.83112,37.38192Z"/>
    <path class="cls-2" d="M36.72272,93.31311c2.43339,1.26143,5.56355,2.20339,8.01229,3.37795-1.729-3.3073-1-9.341-1.56809-13.12361-.65492-4.36169,2.12515-8.55312-1.763-12.35958-1.93345,1.18564-4.08669,2.218-6.11974,3.3005-1.68226.89774-2.10379.79639-2.1064,2.60634-.00166,1.0979.391,2.45894.39179,3.73913.60136-1.87554,4.29879-3.93677,6.08659-5.24757-.19336,3.39253,1.36444,6.74493,1.16087,10.12122C40.64754,88.51777,37.9552,90.85748,36.72272,93.31311Z"/>
    <path class="cls-2" d="M32.55684,59.10811c-2.631.67376-2.26052,5.35833-2.51266,7.81046-.18054,1.75884-.65239,3.2221.396,4.10788A12.2187,12.2187,0,0,0,34.5107,72.569c1.39863-4.383,5.15816-7.49787,6.10526-11.91416.52383-2.44533-.16013-3.94609-1.41467-6.02685-.88666-1.47181-2.37635-4.21787-3.08586-5.14194.67628,1.57742-.01623,3.625.9812,5.28925.99315,1.65749,2.64462,2.7792,2.09951,4.8515-.534,2.02634-2.91893,3.19149-3.91626,4.9307-.93777,1.63709-1.017,2.93681-2.65065,4.29959a27.6356,27.6356,0,0,1-.43094-4.68117C32.26553,62.515,32.80559,60.76726,32.55684,59.10811Z"/>
    <path class="cls-2" d="M23.18858,81.4143c-.6005,1.752,2.15576,3.41118,3.86942,4.16074,2.52462,1.10383,3.27836-1.40875,2.54075-3.32345a41.28713,41.28713,0,0,0-2.88395-5.53974l.195-.19589C25.91074,77.48861,23.657,80.04812,23.18858,81.4143Z"/>
    <path class="cls-2" d="M85.67813,37.73288c-.59884-1.98028-1.9386-4.58409-2.5527-6.072l-.19589-.39178a66.07281,66.07281,0,0,1-1.21713,8.42369c-.5349,2.31843-1.43858,5.20919-1.13366,7.63838.2538,2.01518,1.75029,3.78684,2.304,5.83777.55279,2.051,1.48881,4.8447,2.00584,6.53115,1.01784-4.987-1.27931-10.47384-.19083-15.50763C85.18151,41.96174,86.39951,40.116,85.67813,37.73288Z"/>
    <path class="cls-2" d="M46.92819,87.0451a72.40557,72.40557,0,0,0,.39187,7.27555c1.821-1.17622,3.24678-3.65984,4.86171-5.22968,1.38834-1.35,2.85762-2.60965,4.1624-4.113.621-.7137,2.78094-2.49042,2.50839-3.56879-.34661-1.37045-3.93249-.74606-5.07635-.80912.18054-1.27417.8884-2.54929.91814-3.85242-3.26379-.84235-3.03728-4.93672-3.30469-7.51828-.32454-3.1293-.1167-7.01748-1.21286-9.9194-.44376-.16353-.12777.1576-.15332.16615l-.39179-.19589c1.20179,3.30382.25206,8.40407.5868,11.94817.29219,3.07819.79979,5.70066-.53316,8.4169C48.68285,81.68851,47.03041,84.90729,46.92819,87.0451Z"/>
    <path class="cls-2" d="M65.5455,72.79471c.80746,1.6575,1.79468,3.45715,2.64558,4.88212,1.01356-3.44441,2.556-6.59412,3.73145-9.93038,1.20945-3.43421,1.5859-6.98678,2.556-10.3759C69.6969,53.62462,70.2114,45.48116,69.777,40.31026a11.64686,11.64686,0,0,0-3.5066.55192c-.74615.19415-2.16345.63878-1.94793.78784h-.19589a41.57816,41.57816,0,0,0,2.39762,9.94661c.97867,2.65064,2.95809,4.30552,4.47594,6.70314-2.10465,2.62849-5.44859,5.66917-5.9,9.01059C64.79856,69.55212,64.58985,70.83571,65.5455,72.79471Z"/>
    <path class="cls-2" d="M62.76376,70.57083c-.78278-4.25275-1.69237-8.41864-2.36439-12.65342-.66783-4.20932-.61585-8.4714-1.98718-12.52486-1.5305,1.01609-2.23748,2.97849-3.2766,4.41628a1.06942,1.06942,0,0,0,.15838-.109l.213-.21377a1.17937,1.17937,0,0,1-.213.21377l-.178.178C58.13545,56.63888,58.46331,64.70236,62.76376,70.57083Z"/>
    <path class="cls-10" d="M55.507,49.486l-.213.21377A1.17937,1.17937,0,0,0,55.507,49.486Z"/>
    <path class="cls-7" d="M52.893,47.35068l-7.33687,2.0348s-7.87344-2.25023-8.255-2.0348c-.38158.21464-7.43229-5.66063-7.43229-5.66063l5.38467,6.45955L44.735,53.01218h.89093l8.53612-3.82,4.88979-5.83785Z"/>
    <path class="cls-2" d="M44.73074,53.02927l-1.95561,8.87592L45.62594,73.4369,44.735,61.02708l.88579-7.96719C45.32443,53.05823,45.028,53.04881,44.73074,53.02927Z"/>
  </g>
</svg>
