<svg id="Réteg_1" data-name="Réteg 1" xmlns="http://www.w3.org/2000/svg" viewBox="0 0 91.31965 98.29454">
  <defs>
    <style>
      .cls-1 {
        fill: #e59a23;
      }

      .cls-2 {
        fill: #c1720a;
      }

      .cls-3 {
        fill: #89490e;
      }

      .cls-4 {
        fill: #d0f350;
      }

      .cls-5 {
        fill: #e7fa74;
      }

      .cls-6 {
        fill: #b0ef43;
      }

      .cls-7 {
        fill: #b26508;
      }

      .cls-8 {
        fill: #7f3f0a;
      }

      .cls-9 {
        fill: #d17418;
      }

      .cls-10 {
        fill: #f7ad43;
      }

      .cls-11 {
        fill: #89311b;
      }

      .cls-12 {
        fill: #56170b;
      }

      .cls-13 {
        opacity: 0.71;
      }

      .cls-14 {
        fill: #9add26;
      }

      .cls-15 {
        fill: #8fd613;
      }

      .cls-16 {
        fill: #8fb21a;
      }

      .cls-17 {
        fill: #6ab324;
        opacity: 0.56;
      }

      .cls-18 {
        fill: #f3ffae;
      }
    </style>
  </defs>
  <g>
    <polygon class="cls-1" points="6.304 74.69 12.276 80.711 29.649 87.875 33.806 93.578 45.614 98.295 45.481 51.029 16.826 31.971 1.58 25.515 0 47.583 3.638 59.314 1.713 72.781 6.304 74.69"/>
    <path class="cls-2" d="M29.78136,77.8904c.626-3.29622.19083-6.59332-.21508-9.9764-.50124-4.17738-.13885-8.08125-.14609-12.24755-.00976-5.581-1.13365-11.0415-1.85206-16.551l-2.96235-1.97c.59029,7.0949-.24273,13.88323-2.17364,17.84039-.20183,3.84264,3.76257,8.33679.25424,14.12822C20.64609,72.48272,27.91307,72.87023,29.78136,77.8904Z"/>
    <g>
      <path class="cls-2" d="M45.55634,77.91892l-.07579-26.89019L38.95239,46.6866a6.69905,6.69905,0,0,0-.78147,4.79488,30.15763,30.15763,0,0,0,3.30346,6.70905,1.49188,1.49188,0,0,1,.2006.95189,1.75411,1.75411,0,0,1,.02128.22311c-.00209.47272-.01064.94029-.02555,1.40621a1.8931,1.8931,0,0,1,.02555.37564,40.391,40.391,0,0,1-.52548,4.99156C42.37517,70.16168,43.96357,74.04052,45.55634,77.91892Z"/>
      <path class="cls-2" d="M26.35824,38.31064c2.44061,8.51734,4.7825,17.05726,8.73834,25.012,1.10174-1.3913,2.02415-2.93165,3.04626-4.39071-1.42662-2.387-3.056-4.99243-3.30006-7.76264a11.56192,11.56192,0,0,1,1.422-6.27008Z"/>
    </g>
    <path class="cls-2" d="M11.02231,64.05348c-.049-.25128-.10727-.50674-.1699-.76569-.54642,1.73712-1.097,3.47249-1.77121,5.165-.796,1.99641-1.67921,4.40982-3.25061,6.04009l.47351.19711,5.972,6.0209,6.97227,2.87505a12.97854,12.97854,0,0,0-.686-3.55212c-1.09363-2.95938-3.92009-4.67688-5.24074-7.54172A36.92138,36.92138,0,0,1,11.02231,64.05348Z"/>
    <path class="cls-3" d="M5.83059,74.49283l.47351.19711,5.972,6.0209.69887.28834c-.91517-5.84376-1.99562-11.65944-2.16047-17.59172C10.28088,65.10454,9.74,66.79953,9.0812,68.45274,8.28525,70.44915,7.402,72.86256,5.83059,74.49283Z"/>
    <path class="cls-2" d="M9.27587,28.77417c-.84279,9.44873,1.482,20.41139,7.90489,27.48763a16.92739,16.92739,0,0,0,.84322-5.38465c-.62178-6.40126-2.55688-12.8702-2.12637-19.299Z"/>
    <path class="cls-2" d="M29.64888,87.87525l4.157,5.70239.18525.07369a48.25019,48.25019,0,0,1,2.76559-5.58742c1.35632-2.31075,2.05049-3.59346,2.05049-6.33942v-4.1889c-3.6369,2.96148-6.58939,6.63762-9.78941,10.07906Z"/>
    <path class="cls-3" d="M35.8921,85.89027a31.6819,31.6819,0,0,0-4.19352,4.7961l2.10727,2.89127.18525.07369a48.25019,48.25019,0,0,1,2.76559-5.58742c1.35632-2.31075,2.05049-3.59346,2.05049-6.33942v-4.1889l-.0089.00724c-.47106,1.5025-.98033,2.99131-1.48331,4.48482C36.95554,83.0966,36.76558,85.10112,35.8921,85.89027Z"/>
    <path class="cls-3" d="M1.58,25.51546,0,47.583,3.63776,59.31354,1.7133,72.78118l.15246.08905c.03236-.0839.06132-.16868.09367-.25215,1.29039-3.30424,2.94744-6.408,4.177-9.71274L3.89881,51.02873l2.40529-23.513Z"/>
    <polygon class="cls-4" points="60.41 5.588 56.409 6.181 45.771 0 37.333 4.49 33.806 4.154 20.765 13.306 19.481 15.18 17.576 16.28 15.771 15.903 1.58 25.515 6.025 30.416 16.03 33.372 16.857 36.483 22.918 37.916 28.97 41.434 35.253 48.15 45.481 51.029 54.162 49.193 59.314 43.042 73.2 37.916 80.053 31.067 89.672 25.513 83.741 19.384 77.648 18.525 60.41 5.588"/>
    <g>
      <path class="cls-5" d="M72.50827,33.11892a20.9519,20.9519,0,0,1-8.94661,5.47658c-1.178.42632-5.63,1.08176-6.22578,2.09662a22.44567,22.44567,0,0,1-3.255,4.372,34.31138,34.31138,0,0,1-7.31591,5.6934l7.39685-1.56469,5.15256-6.1512,13.88584-5.1257L80.053,31.067l1.31594-.75975q-1.30512-.82146-2.6-1.65915c-1.548.813-3.07478,1.66726-4.60109,2.522C73.63382,31.83316,73.087,32.48729,72.50827,33.11892Z"/>
      <path class="cls-6" d="M60.40978,5.58821l-4.001.59326L45.771,0,37.33285,4.48988l-3.527-.33553-13.04053,9.1515-1.28481,1.87422L17.576,16.27962l-1.80532-.37643-11.86039,8.034c1.37-.43312,2.76471-.80318,4.16587-1.12388,5.24919-1.20343,10.55168-2.3329,15.85548-3.26C36.42622,17.369,49.637,15.72178,62.30319,17.35153A28.69427,28.69427,0,0,1,75.26488,22.43c3.06587,2.07055,6.17379,4.06618,9.30351,6.02989L89.672,25.51284l-5.93063-6.12861-6.09338-.859Z"/>
      <path class="cls-5" d="M23.6046,29.92484a47.78035,47.78035,0,0,1-18.60921-2.961c-.54511.16528-1.088.33649-1.62207.52854l2.65185,2.924,10.00449,2.95554.82708,3.111,6.06094,1.43308,4.80587,2.79323a24.95989,24.95989,0,0,1-.8338-3.91119,1.55319,1.55319,0,0,1,.04727-.62474A22.84135,22.84135,0,0,1,23.6046,29.92484Z"/>
    </g>
    <path class="cls-3" d="M35.83166,74.59374A12.46028,12.46028,0,0,1,31.024,72.79531a2.56548,2.56548,0,0,1-.491-.4374,1.96186,1.96186,0,0,1-1.19244-1.45435c-.27761-3.29064.29855-7.36065.47185-10.69909.09969-1.88059.62265-3.09727.71807-4.49546l3.58238,3.9985s-.30239,7.10772,0,6.65375c.30238-.45353,1.05873-7.71293,1.05873-7.71293l-2.873-4.30035-1.41-5.983L28.9705,41.43356,22.91768,37.9159l3.1305,6.59662c.66059,1.88111,1.08944,3.93849,1.70476,5.886.055.17417.09672.34747.13632.52a1.97283,1.97283,0,0,1,.56979,1.57908,29.5536,29.5536,0,0,1-1.21843,6.48978c.06263.083.1269.16571.18656.24831-.29854,3.079-.61453,6.132-.91692,9.18123l-.798.5145c-1.09833.44333-4.70287.81767-5.68319,1.56416a28.43883,28.43883,0,0,0,6.20737.65c2.81547,1.70816,3.38483,6.778,4.94184,9.56534.47691-.97134-.18019-3.85537.592-4.69938.76525-.84365,3.45844-.796,3.2042-.72486Z"/>
    <polygon class="cls-3" points="13.643 47.04 18.985 59.314 16.857 36.483 16.03 33.372 13.643 47.04"/>
    <polygon class="cls-7" points="89.672 25.513 80.053 31.067 73.2 37.916 61.522 41.767 59.314 43.042 54.162 49.193 45.481 51.029 43.836 61.904 45.547 74.69 44.18 82.173 45.614 98.295 64.419 87.657 67.643 84.062 74.346 82.173 82.876 75.046 89.805 72.779 91.32 61.904 89.737 48.674 91.32 33.372 89.672 25.513"/>
    <path class="cls-8" d="M59.03122,88.89649c-.31084.7717-.61323,1.54759-.91387,2.32522l6.30157-3.56494,3.06029-3.41248c-.006-.01744-.01535-.03061-.02136-.04893-1.0276-3.13783-.85387-8.33679-3.55-10.61221-2.29539-1.93859-4.17982-3.64073-5.28923-6.52092A87.41685,87.41685,0,0,1,55.44334,56.054c-.50342-2.08416-1.54462-4.39063-2.19239-6.66867l-1.301.27517c-.43827,5.80417.11669,11.57083.51615,17.37028.10388,1.50329-.368,4.9183.5745,6.22621,1.1818,1.64,3.64666,2.70419,5.25435,3.94905,2.476,1.916,3.43289,1.90876,2.99724,5.19939C60.99022,84.68422,59.88046,86.78713,59.03122,88.89649Z"/>
    <path class="cls-8" d="M72.64242,80.95619q-.27789.92886-.55872,1.85468l2.26216-.63756,4.84085-4.0449c.31773-6.90886,3.60026-13.25857,4.18034-20.09836a1.8138,1.8138,0,0,1-.27133-.2811,18.46075,18.46075,0,0,1-4.02527-13.63414,23.24958,23.24958,0,0,1,.46679-2.4598c.24229-2.64889.29636-5.317.43565-7.97781-.0068-.85944.00044-1.71749.04387-2.57309l-6.6964,6.69169c.86328,4.89614,2.78861,9.51083,3.73065,14.39345a34.80729,34.80729,0,0,1-.029,14.35595C75.92538,71.45381,74.07968,76.14264,72.64242,80.95619Z"/>
    <path class="cls-8" d="M51.96188,49.65828l-6.48133,1.37045L43.83624,61.90417,45.547,74.68994l-1.36748,7.48337.3411,3.83234q.80943-2.40432,1.72857-4.7688c.816-2.09785,2.73454-5.07127,2.3602-7.38629-.33814-2.08887-.787-4.16325-1.07914-6.25979a21.21081,21.21081,0,0,1,1.12981-11.5321A47.20861,47.20861,0,0,1,51.96188,49.65828Z"/>
    <path class="cls-8" d="M62.68137,66.96943c.00427.04.0068.08006.01108.11966.597-2.63188,1.27756-5.24667,2.02327-7.84872a1.74668,1.74668,0,0,1,2.74047-.75208,6.803,6.803,0,0,1,1.677-.3152,14.15533,14.15533,0,0,1-4.20878-4.05554c-2.04508-3.579-2.32487-8.34787-3.17062-12.42722l-.23209.07623-2.2073,1.275-.26235.313c3.70422,5.38421,4.039,13.29774,3.14463,20.18227C62.38108,64.67778,62.54932,65.82129,62.68137,66.96943Z"/>
    <path class="cls-9" d="M66.891,84.90061l.75173-.83817,6.70311-1.88913.59152-.49357c1.47441-7.73289,4.24933-15.17876,5.41709-22.96966a1.728,1.728,0,0,1-.3603-.566A119.99159,119.99159,0,0,1,75.83685,46.343c-.04047,6.59837,1.75622,15.17152-.74824,21.68852C72.837,73.88893,69.6409,79.28631,66.891,84.90061Z"/>
    <path class="cls-8" d="M89.672,25.51284l-5.07851,2.93261c.31346,2.68508,1.45566,5.05584,2.45387,7.54459.64733,1.61493,2.05354,4.29958,1.56041,6.09251-.70271,2.55391-1.89219,5.15047-2.73366,7.68772q-.40308,1.21316-.85474,2.39343c.31774,2.16806,1.29589,4.18837,1.93257,6.32075a12.16971,12.16971,0,0,1,.73464,2.95,1.37012,1.37012,0,0,1-.026,1.60254,39.24285,39.24285,0,0,0-3.25959,6.9127c-.58514,1.78944-1.20814,3.56834-1.83375,5.3536l.30875-.25773,6.92884-2.26644,1.51479-10.87492-1.58291-13.23,1.58291-15.30227Z"/>
    <path class="cls-10" d="M3.07347,71.4457c3.29456-3.79789,7.98295-11.96348,7.796-17.0692-.2559-6.977-2.726-13.84372-3.83662-20.42543.06855,6.72954-3.93038,12.66994-.715,19.33651a13.147,13.147,0,0,1,1.04757,9.56116C6.69972,65.48655,3.5249,68.40372,3.07347,71.4457Z"/>
    <path class="cls-10" d="M14.90751,70.44453c1.13532,2.09349,2.33761,4.17729,3.53084,6.2679,1.01739,1.78177,1.5059,3.72333,2.41044,5.41614.54467-2.00069,3.04023-4.906,2.93723-6.97315a5.04363,5.04363,0,0,0-1.95944-3.15309c-.90287-.56517-3.19356-.25171-3.88267-1.40621-.78313-1.31167.68187-2.01142,1.66429-2.74728,1.65408-1.23718,1.73886-1.29849,1.81762-3.47641.05538-1.5284.31817-8.25629-.931-9.0573-.03446-.10736-.06725-.216-.09708-.32453-.41306,4.32294-1.373,5.73474-1.94452,8.17282-.71291.20871-1.40019.35349-2.07055.59238-1.07024-3.01258-1.26012-6.44041-2.40058-9.3725l-.19554-.58767c.35306.96419-.19676,2.56542-.20016,3.76719-.00463,2.03819.204,3.95847.00471,5.99753A10.30457,10.30457,0,0,0,14.90751,70.44453Z"/>
    <path class="cls-10" d="M17.85242,37.38779c1.10549,4.54318,3.20124,8.92281,4.35661,13.4693l.39178-.19546c.50552-.27342.468-4.19133.39135-5.68022-.11111-2.1685-.76185-4.30725-.81723-6.4297C20.72014,38.148,19.28968,37.75106,17.85242,37.38779Z"/>
    <path class="cls-11" d="M17.83192,37.38178l.0205.006-.00515-.02128C17.7727,37.29709,17.76721,37.3018,17.83192,37.38178Z"/>
    <path class="cls-10" d="M36.72215,93.31276c2.43337,1.26186,5.56353,2.203,8.01225,3.37968-1.72856-3.30817-.99995-9.34311-1.56756-13.12487-.65457-4.36167,2.12506-8.55222-1.76311-12.35866-1.933,1.18563-4.087,2.21664-6.11928,3.30049-1.6826.89642-2.10334.79639-2.10683,2.605-.00209,1.09833.391,2.45814.39231,3.74042.60084-1.87684,4.29826-3.93762,6.08605-5.24885-.19293,3.39251,1.364,6.74533,1.16043,10.12161C40.64782,88.51831,37.95419,90.85888,36.72215,93.31276Z"/>
    <path class="cls-10" d="M32.55593,59.10919c-2.63022.67411-2.26016,5.35779-2.51178,7.81-.18063,1.758-.652,3.22252.39649,4.10787a12.23637,12.23637,0,0,0,4.07,1.54253c1.399-4.3826,5.158-7.497,6.10524-11.91368.52418-2.44576-.16057-3.947-1.41433-6.0277-.88752-1.47224-2.37677-4.21741-3.08541-5.14192.67585,1.577-.01744,3.62538.97945,5.28879.994,1.6588,2.64593,2.78007,2.09995,4.85236-.53317,2.02589-2.91883,3.19016-3.91625,4.93155-.93733,1.63664-1.01653,2.93549-2.64977,4.29827a27.52885,27.52885,0,0,1-.43137-4.68028C32.26506,62.51487,32.805,60.76834,32.55593,59.10919Z"/>
    <path class="cls-10" d="M23.18892,81.41443c-.60093,1.75115,2.15489,3.41161,3.869,4.16072,2.52461,1.10339,3.27878-1.40874,2.54074-3.32387a41.39646,41.39646,0,0,0-2.88438-5.53885l.19546-.19545C25.9102,77.48832,23.65693,80.04912,23.18892,81.41443Z"/>
    <path class="cls-9" d="M85.6778,37.73405c-.59918-1.97949-1.93859-4.58617-2.55269-6.0721l-.19545-.39134A66.17812,66.17812,0,0,1,81.7121,39.693c-.53491,2.31929-1.43857,5.20838-1.13322,7.63922.25337,2.01526,1.75028,3.78639,2.30307,5.83653.55279,2.051,1.48924,4.84555,2.00627,6.532,1.01783-4.98815-1.27887-10.47511-.19074-15.50757C85.1804,41.96245,86.39961,40.11719,85.6778,37.73405Z"/>
    <path class="cls-9" d="M46.9281,87.04564a72.41841,72.41841,0,0,0,.39179,7.27553c1.821-1.17709,3.24676-3.66036,4.86169-5.22966,1.38876-1.35,2.8576-2.60973,4.16246-4.113.62047-.715,2.78085-2.49006,2.508-3.56921-.34626-1.37045-3.932-.74571-5.076-.80825.18107-1.27547.88884-2.5505.91823-3.85415-3.26386-.84147-3.0377-4.93617-3.3052-7.51616-.3241-3.13007-.11626-7.0178-1.21241-9.92014-.4442-.1631-.12734.15629-.15333.16528L49.63107,59.28c1.20264,3.30511.25215,8.40491.58767,11.94856.29175,3.07818.79935,5.70064-.5336,8.41764C48.68354,81.68829,47.02989,84.907,46.9281,87.04564Z"/>
    <path class="cls-9" d="M65.54577,72.79575c.807,1.65783,1.79416,3.45548,2.64462,4.88122,1.01355-3.4444,2.55687-6.59287,3.73187-9.92991,1.209-3.4342,1.58553-6.98727,2.55609-10.37629-4.78128-3.745-4.26765-11.88891-4.70165-17.06066a11.68838,11.68838,0,0,0-3.50658.55235c-.7465.19458-2.16335.63966-1.94871.78915h-.19554a41.57628,41.57628,0,0,0,2.39848,9.9457c.97824,2.65011,2.9573,4.30506,4.47549,6.70268-2.10421,2.62935-5.449,5.66871-5.89957,9.011C64.79875,69.55186,64.59013,70.83588,65.54577,72.79575Z"/>
    <path class="cls-9" d="M62.764,70.57143c-.78277-4.25317-1.69237-8.41816-2.36438-12.65346-.66818-4.20921-.61585-8.47259-1.98752-12.52429-1.53015,1.01487-2.23713,2.97849-3.27624,4.41627a1.192,1.192,0,0,0,.1576-.10946l.21377-.2142a1.11985,1.11985,0,0,1-.21377.2142l-.17758.178C58.13436,56.6391,58.46317,64.70334,62.764,70.57143Z"/>
    <path class="cls-12" d="M55.50719,49.48629l-.21377.2142A1.11985,1.11985,0,0,0,55.50719,49.48629Z"/>
    <path class="cls-10" d="M44.73057,53.03029,42.77541,61.905l2.85036,11.5321-.89137-12.4089.88622-7.9676C45.32426,53.05846,45.02746,53.04992,44.73057,53.03029Z"/>
    <g class="cls-13">
      <path class="cls-14" d="M22.52031,37.82214c.8236-3.93326,1.669-9.98355-2.18593-12.69506-2.7703-1.94452-8.09791-1.24059-9.38533,2.34266,2.39169-2.87286,7.2491.23933,8.19367,3.61518A15.1042,15.1042,0,0,1,19.348,37.0718Z"/>
      <path class="cls-14" d="M23.33118,21.784c3.8388-2.71282,7.347,2.86266,7.31128,6.26912-.03192,3.19147-2.68936,8.13968-5.555,11.12375l3.883,2.25667,1.26143,1.3483c.00253-.13423-.00384-.25808.00593-.40076.30073-4.31789,8.29-10.76851,4.24166-17.63735C32.65981,21.65581,26.4336,17.66543,23.33118,21.784Z"/>
      <path class="cls-14" d="M33.65636,46.44256l1.597,1.70729L40.96677,49.758c.55794-3.48147,11.21271-9.55348,2.85926-15.43091C45.76035,39.50352,38.29277,46.0725,33.65636,46.44256Z"/>
    </g>
    <g class="cls-13">
      <path class="cls-15" d="M56.40876,6.18147,45.771,0,37.33285,4.48988l-.626-.05913a9.64488,9.64488,0,0,1-8.709,3.79955l-3.039,2.13274c3.64841,3.95253,14.701.22955,16.75409-3.71993,1.21459,2.15742,2.04587,4.168.75679,6.322,2.70637-1.10383,5.02051-3.14289,4.88166-6.36585,7.38708,5.43916-.91474,20.89056-8.10933,14.38543C39.23821,35.25079,60.073,22.84058,56.364,9.62587c3.47126-4.64068,6.1389,2.634,6.88924,7.767,1.93989,13.24619-9.7915,18.7505-14.75288,17.90222,15.784,4.88812,22.10681-9.37852,19.90892-23.70386l-7.99952-6.003Z"/>
    </g>
    <g>
      <g>
        <path class="cls-16" d="M77.20129,22.749a35.83547,35.83547,0,0,1,6.55842-3.346l-.01832-.01875-5.5678-.78488a37.75148,37.75148,0,0,1-2.03017,4.75947C76.496,23.15526,76.85381,22.96024,77.20129,22.749Z"/>
        <path class="cls-16" d="M56.0455,13.62393c.57188-1.092,1.1613-2.17364,1.79328-3.23107.80877-1.35082,2.43939-2.9163,2.61444-4.52695a1.69791,1.69791,0,0,1,.04474-.21124l-.08818-.06646-3.99291.59239C56.28569,8.65706,56.221,11.14791,56.0455,13.62393Z"/>
      </g>
      <path class="cls-17" d="M58.57089,42.25585c.24525.26532.48841.53281.74353.78575l2.2073-1.275c-1.95219-1.755-3.688-5.79693-6.26493-6.46257C56.3027,37.64073,57.61228,39.88335,58.57089,42.25585Z"/>
      <path class="cls-17" d="M35.28742,35.304,22.91768,37.9159l6.05282,3.51766S35.3428,35.88486,35.28742,35.304Z"/>
      <path class="cls-16" d="M23.97423,19.28454c-.01744-.01108-.03663-.01658-.05407-.0294a38.07342,38.07342,0,0,1-4.43965-4.07507L17.576,16.27962c.34111.359.66939.70612.98032,1.03615,1.4616.56683,2.98835.90113,4.43712,1.58.33858.15847.67367.32323,1.01015.486Z"/>
      <polygon class="cls-16" points="33.806 4.154 41.794 7.069 43.836 9.755 43.28 6.422 37.333 4.49 33.806 4.154"/>
    </g>
    <g>
      <path class="cls-18" d="M15.89761,31.57813A20.78076,20.78076,0,0,1,8.53312,29.4713a17.47463,17.47463,0,0,1-5.917-4.65725L1.58,25.51546l4.44522,4.90085,10.00449,2.95554.82708,3.111,4.81311,1.13837a11.58705,11.58705,0,0,0-1.21712-.96036C17.78683,35.25288,15.89761,31.57813,15.89761,31.57813Z"/>
      <path class="cls-18" d="M61.52172,41.76656A103.80039,103.80039,0,0,0,73.0048,38.08789l3.12545-1.41214L80.053,31.067l9.61906-5.5542-.38035-.39257c-3.82764.87044-7.74014,2.78382-11.56656,3.6539C77.45169,34.62517,68.833,39.24841,61.52172,41.76656Z"/>
    </g>
    <path class="cls-18" d="M52.89275,47.35094l-7.33641,2.03435s-7.8734-2.24978-8.255-2.03435c-.382.21551-8.09066-5.66061-8.09066-5.66061l6.04262,6.45952,9.48108,4.86178-.00846.03872c.32149-.0307.64132-.06811.96027-.11922.04431-.006.08347.00043.12612-.003l8.34953-3.73536,4.89021-5.83818Z"/>
  </g>
</svg>
