<svg id="Réteg_2" data-name="Réteg 2" xmlns="http://www.w3.org/2000/svg" xmlns:xlink="http://www.w3.org/1999/xlink" viewBox="0 0 91.32052 98.29404">
  <defs>
    <style>
      .cls-1 {
        fill: #ec6103;
      }

      .cls-2 {
        fill: #fa7001;
      }

      .cls-3 {
        fill: #fca600;
      }

      .cls-4 {
        fill: url(#linear-gradient);
      }

      .cls-5 {
        fill: #ffff43;
        opacity: 0.31;
      }

      .cls-6 {
        fill: url(#linear-gradient-2);
      }

      .cls-7 {
        fill: #ffa800;
      }

      .cls-8 {
        fill: #8e2367;
      }

      .cls-9 {
        fill: #590d40;
      }

      .cls-10 {
        fill: #ffe212;
      }

      .cls-11 {
        fill: url(#linear-gradient-3);
      }

      .cls-12 {
        opacity: 0.28;
      }

      .cls-13 {
        fill: #fffc85;
      }

      .cls-14 {
        fill: #a55d05;
      }

      .cls-15 {
        fill: #aa6a1d;
        opacity: 0.56;
      }

      .cls-16 {
        fill: #fff915;
      }
    </style>
    <linearGradient id="linear-gradient" x1="1.58048" y1="25.51424" x2="89.67236" y2="25.51424" gradientUnits="userSpaceOnUse">
      <stop offset="0" stop-color="#df8218"/>
      <stop offset="0.50682" stop-color="#f19e1a"/>
      <stop offset="1" stop-color="#ffb61c"/>
    </linearGradient>
    <linearGradient id="linear-gradient-2" x1="3.91033" y1="14.22958" x2="89.67236" y2="14.22958" gradientUnits="userSpaceOnUse">
      <stop offset="0" stop-color="#e06f15"/>
      <stop offset="0.47197" stop-color="#ee881c"/>
      <stop offset="1" stop-color="#fc9f22"/>
    </linearGradient>
    <linearGradient id="linear-gradient-3" x1="1.58016" y1="44.54722" x2="89.67258" y2="44.54722" gradientUnits="userSpaceOnUse">
      <stop offset="0" stop-color="#b0b802"/>
      <stop offset="0.65989" stop-color="#e7e10f"/>
      <stop offset="1" stop-color="#fff314"/>
    </linearGradient>
  </defs>
  <g>
    <polygon class="cls-1" points="6.305 74.69 12.277 80.711 29.65 87.875 33.806 93.576 45.615 98.294 45.481 51.028 16.826 31.971 1.58 25.515 0 47.583 3.638 59.313 1.713 72.78 6.305 74.69"/>
    <path class="cls-2" d="M29.78235,77.88982c.62518-3.29623.19-6.59334-.21543-9.97644-.50168-4.177-.13929-8.08127-.14653-12.24716-.00942-5.58143-1.13322-11.04189-1.85216-16.551l-2.96184-1.97086c.58977,7.09579-.24281,13.88415-2.17365,17.84132-.20191,3.84309,3.76207,8.33682.25424,14.12784C20.64661,72.48212,27.91361,72.87051,29.78235,77.88982Z"/>
    <g>
      <path class="cls-2" d="M45.55739,77.91877l-.07667-26.89028-6.52766-4.34215a6.6998,6.6998,0,0,0-.78191,4.79446A30.173,30.173,0,0,0,41.47506,58.19a1.48743,1.48743,0,0,1,.20017.95225,1.86293,1.86293,0,0,1,.02128.2231q-.00263.7066-.02556,1.40535a1.84921,1.84921,0,0,1,.02556.37739,40.26842,40.26842,0,0,1-.52558,4.99027C42.37532,70.162,43.96383,74.03993,45.55739,77.91877Z"/>
      <path class="cls-2" d="M26.35834,38.31123c2.44115,8.51562,4.78252,17.056,8.7389,25.01125,1.10209-1.39173,2.02372-2.93253,3.04661-4.39073-1.42749-2.3882-3.05681-4.992-3.30041-7.76188a11.56286,11.56286,0,0,1,1.42148-6.27133Z"/>
    </g>
    <path class="cls-2" d="M11.02279,64.05241c-.04936-.2504-.10728-.50586-.1699-.76394-.546,1.73669-1.09746,3.47084-1.77122,5.16409C8.28571,70.449,7.40211,72.862,5.83061,74.493l.474.19677,5.9719,6.021,6.97239,2.87453a13.00265,13.00265,0,0,0-.68606-3.55169c-1.09372-2.959-3.92063-4.676-5.2412-7.54218A36.895,36.895,0,0,1,11.02279,64.05241Z"/>
    <path class="cls-3" d="M5.83061,74.493l.474.19677,5.9719,6.021.69844.28782c-.91518-5.84291-1.99563-11.65861-2.16-17.5918-.53369,1.69666-1.07453,3.39252-1.73337,5.04574C8.28571,70.449,7.40211,72.862,5.83061,74.493Z"/>
    <path class="cls-2" d="M9.27634,28.77428c-.84323,9.44833,1.48157,20.41025,7.90457,27.48729a16.94307,16.94307,0,0,0,.84366-5.38554c-.62221-6.40163-2.55741-12.86972-2.12638-19.29865Z"/>
    <path class="cls-2" d="M29.64951,87.87471,33.806,93.57625l.18525.07413a48.50012,48.50012,0,0,1,2.766-5.58658c1.356-2.31075,2.05015-3.59434,2.05015-6.34031v-4.188C35.1705,80.49781,32.21835,84.17222,29.018,87.615Z"/>
    <path class="cls-3" d="M35.89276,85.88937a31.69429,31.69429,0,0,0-4.19354,4.797L33.806,93.57625l.18525.07413a48.50012,48.50012,0,0,1,2.766-5.58658c1.356-2.31075,2.05015-3.59434,2.05015-6.34031v-4.188l-.00855.006c-.471,1.50416-.98033,2.993-1.48288,4.48693C36.95569,83.0956,36.76581,85.10144,35.89276,85.88937Z"/>
    <path class="cls-3" d="M1.58048,25.51468,0,47.5832,3.63778,59.31333,1.71331,72.78024l.15246.09027c.03279-.08522.06131-.16868.09411-.25215,1.29039-3.30557,2.947-6.40931,4.17652-9.71321L3.89934,51.02849,6.30465,27.51625Z"/>
    <polygon class="cls-4" points="60.41 5.587 56.409 6.181 45.772 0 37.333 4.489 33.806 4.152 20.765 13.306 19.481 15.179 17.576 16.279 15.771 15.903 1.58 25.515 6.025 30.416 16.03 33.371 16.857 36.483 22.918 37.916 28.971 41.434 35.254 48.15 45.481 51.028 54.162 49.192 59.315 43.042 73.201 37.916 80.054 31.067 89.672 25.511 83.742 19.383 77.648 18.524 60.41 5.587"/>
    <path class="cls-5" d="M72.50811,33.11818a20.95445,20.95445,0,0,1-8.94665,5.47668c-1.17709.42667-5.63,1.08168-6.22536,2.09777a22.42339,22.42339,0,0,1-3.25446,4.37119,34.36447,34.36447,0,0,1-7.31646,5.693l7.39653-1.56461,5.153-6.15044L73.20062,37.916l6.85308-6.84879,1.31594-.76063q-1.30448-.82146-2.59953-1.65915c-1.54934.81339-3.07565,1.66682-4.602,2.52287C73.6341,31.83284,73.08733,32.487,72.50811,33.11818Z"/>
    <path class="cls-6" d="M60.41,5.58736l-4.0006.5937L45.772,0,37.333,4.48946l-3.527-.33727L20.7654,13.30581l-1.28481,1.873-1.9045,1.10043-1.80524-.37643L3.91033,23.93726c1.37046-.43357,2.76525-.80407,4.16589-1.12512,5.2493-1.20352,10.55181-2.33291,15.85554-3.25881,12.495-2.18386,25.70551-3.83193,38.37167-2.20174A28.70929,28.70929,0,0,1,75.266,22.42882c3.06458,2.07143,6.17347,4.06619,9.30354,6.03034l5.10278-2.94788L83.74171,19.383l-6.09331-.85857Z"/>
    <path class="cls-5" d="M23.60469,29.925A47.80582,47.80582,0,0,1,4.9955,26.96346c-.54468.16615-1.08813.33727-1.62217.52811l2.652,2.924,10.00487,2.95556.82666,3.11229,6.061,1.43255,4.806,2.792a24.9292,24.9292,0,0,1-.83346-3.91034,1.545,1.545,0,0,1,.04728-.6243A22.89164,22.89164,0,0,1,23.60469,29.925Z"/>
    <path class="cls-3" d="M35.83223,74.59359a12.45978,12.45978,0,0,1-4.808-1.79888,2.50476,2.50476,0,0,1-.491-.43783A1.95893,1.95893,0,0,1,29.34076,70.903c-.2777-3.28942.29855-7.36068.47185-10.69869.1-1.88059.62266-3.09685.718-4.4946l3.58283,3.9972s-.30273,7.107,0,6.65465c.30239-.454,1.05787-7.71417,1.05787-7.71417l-2.87244-4.30046-1.40962-5.98264L28.9707,41.43363,22.91776,37.916l3.13061,6.59587c.66094,1.88234,1.08979,3.93763,1.7052,5.88556.05486.17548.09664.34835.1358.52043A1.97357,1.97357,0,0,1,28.46,52.49689,29.68175,29.68175,0,0,1,27.2416,58.988c.06262.08181.12612.16528.18569.247-.29855,3.07906-.61411,6.13335-.91684,9.18258l-.7977.51275c-1.09877.4429-4.70332.8168-5.68278,1.5647a28.38593,28.38593,0,0,0,6.20705.64986c2.815,1.70938,3.38441,6.77893,4.94134,9.5659.477-.97187-.17967-3.85582.59195-4.69992.76568-.8441,3.45889-.79639,3.20421-.724Z"/>
    <polygon class="cls-3" points="13.644 47.039 18.986 59.313 16.857 36.483 16.03 33.371 13.644 47.039"/>
    <polygon class="cls-1" points="89.672 25.511 80.054 31.067 73.201 37.916 61.522 41.766 59.315 43.042 54.162 49.192 45.481 51.028 43.836 61.904 45.548 74.69 44.18 82.173 45.615 98.294 64.419 87.657 67.642 84.061 74.346 82.173 82.876 75.045 89.805 72.778 91.321 61.904 89.737 48.674 91.321 33.371 89.672 25.511"/>
    <path class="cls-3" d="M59.032,88.89508c-.31181.77345-.61411,1.54847-.914,2.327l6.30115-3.56539,3.06031-3.41206c-.00515-.01962-.01535-.03236-.02128-.04936-1.028-3.1395-.85343-8.33683-3.55-10.6127-2.29549-1.93859-4.17949-3.64117-5.29021-6.52173A87.516,87.516,0,0,1,55.44443,56.0546c-.5043-2.085-1.54594-4.39238-2.19328-6.66912l-1.30059.2743c-.43775,5.80375.1167,11.57174.51528,17.37122.104,1.50329-.3671,4.918.57494,6.22449C54.223,74.8951,56.688,75.96143,58.296,77.20673c2.476,1.91557,3.43255,1.90789,2.99646,5.199C60.99088,84.6841,59.88112,86.78623,59.032,88.89508Z"/>
    <path class="cls-3" d="M72.6427,80.95693c-.18482.6175-.37051,1.23666-.55786,1.85338l2.26131-.63713,4.84052-4.044c.31764-6.91019,3.60114-13.25984,4.18026-20.09931a1.89807,1.89807,0,0,1-.27081-.2811,18.46173,18.46173,0,0,1-4.0245-13.6355,23.13121,23.13121,0,0,1,.46592-2.45981c.24273-2.648.29637-5.31655.43609-7.9774-.0068-.85857.00087-1.71627.04343-2.57223L73.32072,37.7942c.86364,4.89747,2.78941,9.51139,3.73058,14.39438a34.81354,34.81354,0,0,1-.02808,14.35609C75.92532,71.45321,74.07961,76.14206,72.6427,80.95693Z"/>
    <path class="cls-3" d="M51.96251,49.658l-6.48179,1.37046-1.64467,10.875,1.712,12.78626-1.36793,7.48339.34076,3.832q.81-2.40447,1.729-4.76979c.81592-2.097,2.734-5.07042,2.36012-7.38457-.33893-2.08931-.787-4.16414-1.07914-6.26025A21.21556,21.21556,0,0,1,48.66035,56.058,47.31563,47.31563,0,0,1,51.96251,49.658Z"/>
    <path class="cls-3" d="M62.6816,66.96968c.00516.03829.00681.07832.01108.11923.5971-2.63189,1.27766-5.24591,2.02294-7.84875a1.74712,1.74712,0,0,1,2.74082-.753,6.872,6.872,0,0,1,1.67712-.31433,14.17265,14.17265,0,0,1-4.20845-4.05512c-2.045-3.58073-2.32436-8.3479-3.17107-12.4277l-.23165.0758-2.20766,1.27591-.26235.31259c3.70423,5.38379,4.039,13.29735,3.14464,20.18278C62.38184,64.67846,62.54964,65.82067,62.6816,66.96968Z"/>
    <path class="cls-2" d="M66.89179,84.90128l.75034-.83983,6.704-1.88827.59116-.49487c1.47521-7.73293,4.24936-15.17708,5.4179-22.968a1.75671,1.75671,0,0,1-.36117-.5664A120.20158,120.20158,0,0,1,75.8367,46.34226c-.04,6.59927,1.75718,15.17115-.7478,21.68782C72.83693,73.88921,69.64117,79.28583,66.89179,84.90128Z"/>
    <path class="cls-3" d="M89.67236,25.51128l-5.07809,2.9334c.31259,2.68466,1.45567,5.05673,2.45388,7.54384.64733,1.61659,2.05267,4.30125,1.56041,6.09332-.70271,2.55522-1.89254,5.15136-2.73411,7.687q-.40242,1.215-.8543,2.39422c.31774,2.16772,1.29467,4.1897,1.9318,6.32078a12.1222,12.1222,0,0,1,.735,2.94954,1.37075,1.37075,0,0,1-.02548,1.603,39.2335,39.2335,0,0,0-3.25968,6.9136c-.58593,1.78946-1.20858,3.567-1.83376,5.35318l.30831-.25807,6.929-2.26654,1.51524-10.875L89.73708,48.6743l1.58344-15.30319Z"/>
    <path class="cls-7" d="M3.07356,71.44554c3.29493-3.79878,7.9829-11.96353,7.796-17.06971-.256-6.97744-2.726-13.84412-3.83629-20.42472.06856,6.72966-3.92987,12.66877-.71545,19.337A13.14336,13.14336,0,0,1,7.36591,62.849C6.70026,65.4868,3.52535,68.40311,3.07356,71.44554Z"/>
    <path class="cls-7" d="M14.90757,70.44393c1.1354,2.09436,2.33762,4.17687,3.53137,6.26792,1.0174,1.78187,1.50539,3.7229,2.40992,5.41624.54512-2.00078,3.04034-4.906,2.93725-6.97238a5.03956,5.03956,0,0,0-1.95944-3.15311c-.90236-.56727-3.19314-.25215-3.8826-1.408-.78279-1.3108.68222-2.0109,1.66473-2.7451,1.65409-1.23763,1.73834-1.29981,1.81719-3.47765.05529-1.52806.31852-8.25676-.931-9.05742-.03454-.10736-.0669-.21464-.09672-.32366-.4135,4.32252-1.373,5.733-1.94488,8.17241-.71292.20872-1.39985.3535-2.07021.59195-1.0706-3.01172-1.26012-6.43913-2.40059-9.37254l-.19589-.58767c.35306.96419-.19676,2.5663-.19973,3.76642-.00514,2.03986.20357,3.95883.00428,5.99877A10.30238,10.30238,0,0,0,14.90757,70.44393Z"/>
    <path class="cls-7" d="M17.85249,37.38619c1.10645,4.54493,3.20169,8.9245,4.35706,13.47031l.39135-.196c.50552-.27256.46845-4.19135.39187-5.67851-.1112-2.17025-.76194-4.30892-.81732-6.43059C20.7203,38.14682,19.29019,37.75076,17.85249,37.38619Z"/>
    <path class="cls-8" d="M17.83208,37.38192l.02041.00427-.00515-.02041C17.77286,37.29679,17.76772,37.30185,17.83208,37.38192Z"/>
    <path class="cls-7" d="M36.72237,93.31311c2.43339,1.26143,5.56356,2.20339,8.01317,3.37795-1.72911-3.3073-1.00083-9.341-1.5681-13.12361-.655-4.36169,2.12507-8.55312-1.76311-12.35958-1.93345,1.18564-4.08661,2.218-6.11974,3.3005-1.68218.89774-2.10336.79639-2.10676,2.60634-.00174,1.0979.39091,2.45894.39222,3.73913.60093-1.87554,4.29872-3.93677,6.08564-5.24757-.19248,3.39253,1.36453,6.74493,1.161,10.12122C40.648,88.51777,37.95477,90.85748,36.72237,93.31311Z"/>
    <path class="cls-7" d="M32.55649,59.10811c-2.63058.67376-2.26052,5.35833-2.51179,7.81046-.18054,1.75884-.65239,3.2221.39606,4.10788a12.21569,12.21569,0,0,0,4.07,1.54254c1.399-4.383,5.15859-7.49787,6.1057-11.91416.52383-2.44533-.161-3.94609-1.41477-6.02685-.88753-1.47181-2.37721-4.21787-3.085-5.14194.67542,1.57742-.01788,3.625.97955,5.28925.99393,1.65749,2.64628,2.7792,2.09951,4.8515-.53237,2.02634-2.91893,3.19149-3.91626,4.9307-.937,1.63709-1.01662,2.93681-2.64978,4.29959a27.58336,27.58336,0,0,1-.431-4.68117C32.26562,62.515,32.80559,60.76726,32.55649,59.10811Z"/>
    <path class="cls-7" d="M23.1891,81.4143c-.60093,1.752,2.15525,3.41118,3.869,4.16074,2.52453,1.10383,3.27879-1.40875,2.54075-3.32345a41.23143,41.23143,0,0,0-2.88448-5.53974l.196-.19589C25.91039,77.48861,23.65755,80.04812,23.1891,81.4143Z"/>
    <path class="cls-2" d="M85.67769,37.73288c-.59788-1.98028-1.93764-4.58409-2.55174-6.072l-.196-.39178a66.03893,66.03893,0,0,1-1.21713,8.42369c-.53482,2.31843-1.43856,5.20919-1.13366,7.63838.25381,2.01518,1.74951,3.78684,2.3023,5.83777.55358,2.051,1.49056,4.8447,2.0075,6.53115,1.01784-4.987-1.27932-10.47384-.19075-15.50763C85.18116,41.96174,86.4,40.116,85.67769,37.73288Z"/>
    <path class="cls-2" d="M46.92872,87.0451a72.42857,72.42857,0,0,0,.39178,7.27555c1.821-1.17622,3.246-3.65984,4.86092-5.22968,1.38913-1.35,2.8584-2.60965,4.16327-4.113.62091-.7137,2.78095-2.49042,2.50839-3.56879-.34669-1.37045-3.93249-.74606-5.07722-.80912.18141-1.27417.88919-2.54929.91814-3.85242-3.263-.84235-3.03728-4.93672-3.30391-7.51828-.32532-3.1293-.11748-7.01748-1.21285-9.9194-.44464-.16353-.12777.1576-.15411.16615l-.391-.19589c1.20178,3.30382.25215,8.40407.58689,11.94817.2921,3.07819.79979,5.70066-.53325,8.4169C48.68328,81.68851,47.03094,84.90729,46.92872,87.0451Z"/>
    <path class="cls-2" d="M65.546,72.79471c.80746,1.6575,1.79373,3.45715,2.6455,4.88212,1.01269-3.44441,2.5561-6.59412,3.73145-9.93038,1.20867-3.43421,1.586-6.98678,2.5561-10.3759-4.78165-3.74593-4.26723-11.88939-4.70245-17.06029a11.6413,11.6413,0,0,0-3.50573.55192c-.747.19415-2.16344.63878-1.9488.78784h-.195a41.53249,41.53249,0,0,0,2.39762,9.94661c.97859,2.65064,2.9581,4.30552,4.47586,6.70314-2.10466,2.62849-5.4486,5.66917-5.9,9.01059C64.79908,69.55212,64.59037,70.83571,65.546,72.79471Z"/>
    <path class="cls-2" d="M62.76429,70.57083c-.78278-4.25275-1.69247-8.41864-2.36448-12.65342-.66775-4.20932-.61576-8.4714-1.98709-12.52486-1.53059,1.01609-2.23749,2.97849-3.27661,4.41628a1.11763,1.11763,0,0,0,.15839-.109l.2129-.21377a1.17952,1.17952,0,0,1-.2129.21377l-.178.178C58.135,56.63888,58.46383,64.70236,62.76429,70.57083Z"/>
    <path class="cls-9" d="M55.5074,49.486l-.2129.21377A1.17952,1.17952,0,0,0,55.5074,49.486Z"/>
    <path class="cls-7" d="M44.73126,53.02927l-1.9556,8.87592L45.62638,73.4369l-.89084-12.40982.88578-7.96719C45.32486,53.05823,45.02763,53.04881,44.73126,53.02927Z"/>
    <g>
      <path class="cls-10" d="M44.60514,18.63091c8.86406.035,18.1438-1.34656,26.10837-5.31062L65.96763,9.75752a26.15237,26.15237,0,0,1-14.39351,2.17792c-8.91516-.931-18.803-4.326-27.48354-.61157a1.82839,1.82839,0,0,1-.72007.15246L20.7654,13.30581l-1.28481,1.873-1.9045,1.10043-1.80524-.37643L13.09038,17.7187C23.33126,15.83383,34.01164,18.58835,44.60514,18.63091Z"/>
      <path class="cls-10" d="M36.89009,35.05843c6.15472.56125,12.21053,1.8321,18.36865,2.36867A81.14428,81.14428,0,0,0,73.86662,37.25l6.18708-6.1828,9.61866-5.55588-1.59958-1.65069c-8.51989,4.92137-18.98606,6.54388-29.046,6.5567-16.51352.02216-35.17809-5.21267-51.19167.5323l8.195,2.42152.82666,3.11229,4.70035,1.10976C25.90568,34.561,31.78313,34.59077,36.89009,35.05843Z"/>
      <path class="cls-11" d="M62.295,41.3008a190.2973,190.2973,0,0,1-19.59083-2.13449c-4.9853-.72225-12.29147-2.1378-17.38317.14566l3.64973,2.12166,6.28327,6.716,10.22675,2.87889,8.681-1.83629,5.153-6.15044,4.59081-1.695Q63.102,41.33016,62.295,41.3008Z"/>
      <path class="cls-10" d="M53.68559,26.91409c10.73017.379,22.58467-.42161,31.97509-5.54741l-1.919-1.98369-6.09331-.85857-3.91714-2.93934A56.49836,56.49836,0,0,1,49.6057,21.92461c-14.40284.73246-30.43813-5.32763-43.85943,1.87292a1.60985,1.60985,0,0,1-1.62722-.0034L1.58048,25.51468l2.843,3.1361C19.92645,22.158,37.45309,26.3409,53.68559,26.91409Z"/>
      <path class="cls-10" d="M62.777,7.3633,60.41,5.58736l-4.0006.5937L45.772,0,37.333,4.48946l-3.527-.33727L30.3483,6.58051C41.22378,5.87954,53.13707,10.67226,62.777,7.3633Z"/>
    </g>
    <g class="cls-12">
      <path class="cls-13" d="M68.68465,29.85256a67.69987,67.69987,0,0,1-20.2884,4.00488c-7.16994.58087-14.417.14818-21.20489-2.47255a50.06541,50.06541,0,0,1-6.29862-2.97518A47.4737,47.4737,0,0,0,7.83515,30.94959l8.195,2.42152.82666,3.11229,4.70035,1.10976c4.34852-3.03214,10.226-3.00239,15.33293-2.53473,6.15472.56125,12.21053,1.8321,18.36865,2.36867A81.14428,81.14428,0,0,0,73.86662,37.25l6.18708-6.1828,9.61866-5.55588-1.59958-1.65069A50.73931,50.73931,0,0,1,68.68465,29.85256Z"/>
      <path class="cls-10" d="M62.295,41.3008a190.2973,190.2973,0,0,1-19.59083-2.13449c-4.9853-.72225-12.29147-2.1378-17.38317.14566l3.64973,2.12166,6.28327,6.716,10.22675,2.87889,8.681-1.83629,5.153-6.15044,4.59081-1.695Q63.102,41.33016,62.295,41.3008Z"/>
      <path class="cls-13" d="M11.22252,21.5958a27.75349,27.75349,0,0,0-5.47625,2.20173,1.60985,1.60985,0,0,1-1.62722-.0034L1.58048,25.51468l2.843,3.1361A45.1678,45.1678,0,0,1,16.3458,25.576,60.99827,60.99827,0,0,1,11.22252,21.5958Z"/>
    </g>
    <g>
      <g>
        <path class="cls-14" d="M77.2021,22.74821a35.7276,35.7276,0,0,1,6.55836-3.3456l-.01875-.01962-5.56783-.78444A37.61392,37.61392,0,0,1,76.14423,23.358C76.49686,23.15447,76.85454,22.96033,77.2021,22.74821Z"/>
        <path class="cls-14" d="M56.04571,13.62355c.57154-1.0911,1.161-2.17452,1.79381-3.23152.80825-1.3517,2.43931-2.91631,2.6148-4.527a1.63552,1.63552,0,0,1,.0443-.21036L60.41,5.58736l-3.99293.59195C56.28591,8.65534,56.22119,11.14751,56.04571,13.62355Z"/>
      </g>
      <path class="cls-15" d="M58.57111,42.25558c.24534.26488.48894.53237.74362.78618l2.20766-1.27591c-1.9522-1.75544-3.68889-5.79608-6.2654-6.46216C56.30379,37.64,57.61293,39.88351,58.57111,42.25558Z"/>
      <path class="cls-15" d="M35.288,35.30369,22.91776,37.916l6.05294,3.51768S35.34337,35.88456,35.288,35.30369Z"/>
      <path class="cls-14" d="M23.97476,19.28339a.40735.40735,0,0,1-.05408-.029,38.05573,38.05573,0,0,1-4.44009-4.07561l-1.9045,1.10043c.34111.35777.66993.70612.98077,1.03571,1.46116.56814,2.98835.90114,4.43713,1.58005.33858.15926.67332.32445,1.01016.48632C23.994,19.34976,23.98462,19.3174,23.97476,19.28339Z"/>
      <polygon class="cls-14" points="33.806 4.152 41.794 7.07 43.836 9.755 43.281 6.42 37.333 4.489 33.806 4.152"/>
    </g>
    <g>
      <path class="cls-16" d="M15.89819,31.57738a20.77059,20.77059,0,0,1-7.365-2.10719A17.47678,17.47678,0,0,1,2.6162,24.81371l-1.03572.701,4.4448,4.90087,10.00487,2.95556.82666,3.11229,4.81356,1.13793a11.67662,11.67662,0,0,0-1.21669-.96166C17.78734,35.25258,15.89819,31.57738,15.89819,31.57738Z"/>
      <path class="cls-16" d="M61.52239,41.76585A104.16961,104.16961,0,0,0,73.00552,38.088l3.125-1.41215,3.92315-5.60873,9.61866-5.55588-.37983-.391c-3.82774.86965-7.73982,2.78435-11.56668,3.654C77.4525,34.62487,68.83292,39.24812,61.52239,41.76585Z"/>
    </g>
    <path class="cls-16" d="M52.89347,47.35068l-7.33608,2.0348s-7.8743-2.25023-8.25589-2.0348c-.38157.21464-8.09026-5.66063-8.09026-5.66063L35.254,48.1496l9.48157,4.86258-.00943.03837c.322-.0307.64219-.069.9608-.11922a1.05534,1.05534,0,0,1,.126-.00262l8.34877-3.73651,4.89067-5.83785Z"/>
  </g>
</svg>
