<svg id="Réteg_2" data-name="Réteg 2" xmlns="http://www.w3.org/2000/svg" xmlns:xlink="http://www.w3.org/1999/xlink" viewBox="0 0 91.35185 98.32863">
  <defs>
    <style>
      .cls-1 {
        fill: #ce6459;
      }

      .cls-2 {
        fill: #ad4747;
      }

      .cls-3 {
        fill: #91202b;
      }

      .cls-4 {
        fill: url(#linear-gradient);
      }

      .cls-5, .cls-8 {
        opacity: 0.19;
      }

      .cls-6, .cls-8 {
        fill: #ef6f90;
      }

      .cls-7 {
        fill: #fff;
        opacity: 0.26;
      }

      .cls-9 {
        fill: #ffefe1;
      }

      .cls-10 {
        fill: #891515;
      }

      .cls-11 {
        fill: #913636;
      }

      .cls-12 {
        fill: #7f1313;
      }

      .cls-13 {
        fill: #c44e4e;
        opacity: 0.5;
      }

      .cls-14 {
        fill: #8e2f23;
      }

      .cls-15 {
        fill: #ff76ae;
        opacity: 0.59;
      }

      .cls-16 {
        fill: #590e0d;
      }

      .cls-17 {
        fill: #c66666;
      }
    </style>
    <linearGradient id="linear-gradient" x1="45.64207" y1="51.04643" x2="45.64207" gradientUnits="userSpaceOnUse">
      <stop offset="0" stop-color="#ffe4dc"/>
      <stop offset="0.4" stop-color="#ffbbb6"/>
      <stop offset="0.5613" stop-color="#ffb3b1"/>
      <stop offset="0.81225" stop-color="#ff9da5"/>
      <stop offset="1" stop-color="#f89"/>
    </linearGradient>
  </defs>
  <g>
    <polygon class="cls-1" points="6.307 74.716 12.281 80.739 29.66 87.906 33.818 93.61 45.63 98.329 45.496 51.046 16.832 31.982 1.581 25.524 0 47.6 3.639 59.334 1.714 72.806 6.307 74.716"/>
    <path class="cls-2" d="M29.79256,77.91741c.6254-3.29736.19-6.5956-.2155-9.97986-.50185-4.17883-.13933-8.08405-.14658-12.2518-.00942-5.58291-1.13361-11.04533-1.85279-16.55669l-2.96286-1.97067c.59,7.09736-.2429,13.888-2.17439,17.84657-.202,3.844,3.76335,8.33968.25433,14.13312C20.65369,72.50786,27.92319,72.8955,29.79256,77.91741Z"/>
    <g>
      <path class="cls-3" d="M45.573,77.94594l-.0767-26.89951-6.5299-4.34364a6.70291,6.70291,0,0,0-.78217,4.79654,30.166,30.166,0,0,0,3.305,6.71138,1.487,1.487,0,0,1,.20023.95222,1.85575,1.85575,0,0,1,.02129.22318c-.00175.47289-.01021.94063-.02556,1.4067a1.83761,1.83761,0,0,1,.02556.37578,40.30524,40.30524,0,0,1-.52575,4.99329C42.38986,70.186,43.97891,74.0662,45.573,77.94594Z"/>
      <path class="cls-2" d="M26.36738,38.32393c2.442,8.52029,4.78416,17.06317,8.7419,25.02071,1.10246-1.39178,2.02441-2.93266,3.04766-4.39223-1.428-2.38781-3.05787-4.99417-3.30155-7.76534a11.5616,11.5616,0,0,1,1.422-6.27225Z"/>
    </g>
    <path class="cls-2" d="M11.02657,64.07569c-.04938-.25136-.10731-.50691-.17-.76595-.54617,1.73772-1.09784,3.47369-1.77182,5.16674-.79623,1.99711-1.68014,4.41135-3.25218,6.04218l.4742.19718,5.974,6.023,6.97478,2.87605a13.022,13.022,0,0,0-.68629-3.55335c-1.09409-2.96041-3.922-4.6785-5.243-7.54433A36.91618,36.91618,0,0,1,11.02657,64.07569Z"/>
    <path class="cls-3" d="M5.83261,74.51866l.4742.19718,5.974,6.023.69868.28845c-.91549-5.84579-1.99632-11.66349-2.16069-17.59783-.53387,1.69767-1.0749,3.39325-1.734,5.047C8.28856,70.47359,7.40465,72.88783,5.83261,74.51866Z"/>
    <path class="cls-2" d="M9.27952,28.78415c-.84351,9.452,1.48208,20.41847,7.90728,27.49716a16.94546,16.94546,0,0,0,.84395-5.38652c-.62243-6.40347-2.55828-12.87466-2.1271-19.3057Z"/>
    <path class="cls-2" d="M29.65968,87.90573l4.15789,5.70436.18532.07372a48.35323,48.35323,0,0,1,2.767-5.58936c1.35644-2.31155,2.05085-3.59471,2.05085-6.34162V77.56248C35.18257,80.525,32.2294,84.2024,29.02793,87.645Z"/>
    <path class="cls-3" d="M35.90507,85.92005a31.66894,31.66894,0,0,0-4.195,4.79777l2.10747,2.89227.18532.07372a48.35323,48.35323,0,0,1,2.767-5.58936c1.35644-2.31155,2.05085-3.59471,2.05085-6.34162V77.56248l-.00855.00725c-.47114,1.503-.98067,2.99234-1.48339,4.48637C36.96836,83.12541,36.77842,85.13063,35.90507,85.92005Z"/>
    <path class="cls-3" d="M1.581,25.52431,0,47.59953,3.639,59.33412,1.7139,72.80642l.15251.08908c.0328-.08393.06133-.16873.09414-.25223,1.29084-3.30539,2.948-6.4102,4.178-9.71611L3.90068,51.04643,6.30681,27.52525Z"/>
    <polygon class="cls-4" points="60.431 5.59 56.429 6.184 45.788 0 37.346 4.491 33.818 4.156 20.773 13.31 19.487 15.185 17.582 16.285 15.776 15.909 1.581 25.524 6.027 30.427 16.036 33.383 16.863 36.495 22.926 37.929 28.981 41.448 35.266 48.167 45.496 51.046 54.18 49.21 59.335 43.057 73.226 37.929 80.081 31.078 89.703 25.522 83.77 19.391 77.675 18.532 60.431 5.59"/>
    <g class="cls-5">
      <path class="cls-6" d="M88.6585,26.12457l1.04462-.60288-1.526-1.57666a3.26015,3.26015,0,0,1,.495,1.70579V25.992C88.6722,26.03724,88.66025,26.07981,88.6585,26.12457Z"/>
      <path class="cls-6" d="M82.02382,25.992v-.34122a3.355,3.355,0,0,1,3.32371-3.325,3.27354,3.27354,0,0,1,1.78335.538L83.77044,19.391l-2.64981-.37316a3.35245,3.35245,0,0,1-.58622,3.866c-.11412.11377-.22746.2279-.34079.34123a3.32489,3.32489,0,1,1-4.70232-4.70188c.11412-.11377.22746-.228.34167-.34123a3.20628,3.20628,0,0,1,.69353-.51214L67.30326,10.7479a3.31437,3.31437,0,0,1-6.43288-1.13274V9.2735a3.31027,3.31027,0,0,1,1.15621-2.48535l-1.59586-1.198-4.002.59346L51.95049,3.58109A3.34684,3.34684,0,0,1,48.84141,5.775a3.66271,3.66271,0,0,1-2.66-1.02926,3.639,3.639,0,0,1-1.00458-2.637A3.25144,3.25144,0,0,1,45.907.06989L45.78773,0,41.08289,2.5028a3.21067,3.21067,0,0,1,.16524.97089V3.815a3.31539,3.31539,0,0,1-6.60537.41914l-.82519-.07834-.45412.31819a3.1228,3.1228,0,0,1,.038.3647v.34122a3.35537,3.35537,0,0,1-3.32423,3.32467,3.26388,3.26388,0,0,1-1.73135-.50953l-7.5733,5.31541-1.28525,1.87487-1.90515,1.09994-1.80586-.37656-5.977,4.04883a3.31743,3.31743,0,0,1-.19343,6.62962H9.2646A3.35566,3.35566,0,0,1,5.94,23.26258a3.223,3.223,0,0,1,.09832-.75793L1.581,25.52431l4.44633,4.90255,8.81335,2.60382c-2.60679-1.40713-2.07894-6.26963,1.589-6.26963,4.28789,0,4.28789,6.6496,0,6.6496a3.922,3.922,0,0,1-.39235-.01911l.82519,3.10394,4.44677,1.05186c-1.3096-1.93926-.435-5.32736,2.62633-5.32736,4.09918,0,4.27681,6.07411.53684,6.6079l3.41785,1.98655a3.1616,3.1616,0,0,1,3.21-3.47675c4.204,0,4.28318,6.38638.24412,6.63774l3.6344,3.88489a3.209,3.209,0,0,1-.03839-.374V47.145a3.32463,3.32463,0,1,1,6.64926,0v.34132a3.29652,3.29652,0,0,1-.87588,2.21357l4.7824,1.34658,8.684-1.83657,2.38143-2.8428a5.35872,5.35872,0,0,1-.90406-.11752A3.34024,3.34024,0,0,1,53.335,43.92813a3.02158,3.02158,0,0,1,.25476-2.35665,3.04958,3.04958,0,0,1,.74807-1.21293,3.32414,3.32414,0,0,1,4.70153,0,3.20353,3.20353,0,0,1,.97386,2.35116c-.0034.03281-.00593.066-.00933.09973l8.84153-3.26369c-4.15876-.13165-4.11871-6.64332.12607-6.64332,3.305,0,4.05992,3.94745,2.26985,5.75933l1.98436-.73271,3.89632-3.89379a3.699,3.699,0,0,1-.645.05793c-4.28736,0-4.28736-6.64969,0-6.64969a3.23521,3.23521,0,0,1,3.133,4.1051l.47114-.47079,3.7404-2.159A3.34094,3.34094,0,0,1,82.02382,25.992Zm-22.60525-12.878c4.28736,0,4.28736,6.64925,0,6.64925C55.13024,19.76332,55.13024,13.11407,59.41857,13.11407Zm-9.21216,1.36447c4.28823,0,4.28823,6.64969,0,6.64969C45.91808,21.12823,45.91808,14.47854,50.20641,14.47854ZM41.4228,9.95639a3.32463,3.32463,0,1,1,6.64926,0v.34123a3.32463,3.32463,0,1,1-6.64926,0ZM41.6767,31.705c-4.28737,0-4.28737-6.64969,0-6.64969C45.965,25.05526,45.965,31.705,41.6767,31.705ZM35.19443,9.01961h.34088a3.32507,3.32507,0,0,1,0,6.65013h-.34088a3.32507,3.32507,0,0,1,0-6.65013ZM19.5,24.54015h-.34079a3.32481,3.32481,0,0,1,0-6.64961H19.5a3.32481,3.32481,0,0,1,0,6.64961Zm8.10115,3.15768a3.32441,3.32441,0,1,1-6.64882,0V27.3566a3.32441,3.32441,0,1,1,6.64882,0Zm-1.27723-9.98117a3.3554,3.3554,0,0,1-3.32458-3.325v-.34123a3.32441,3.32441,0,1,1,6.64882,0v.34123A3.35562,3.35562,0,0,1,26.32393,17.71666Zm1.79313,3.8397v-.3408a3.32441,3.32441,0,1,1,6.64881,0v.3408a3.32441,3.32441,0,1,1-6.64881,0Zm9.03705,10.57715a3.32441,3.32441,0,0,1-6.64882,0v-.34166a3.32441,3.32441,0,1,1,6.64882,0Zm.51546-12.62417a3.32463,3.32463,0,1,1,6.64926,0v.34123a3.32463,3.32463,0,1,1-6.64926,0Zm4.00713,22.431h-.34079a3.32485,3.32485,0,0,1,0-6.64969h.34079a3.32485,3.32485,0,0,1,0,6.64969ZM51.48363,46.932c0,4.28824-6.64926,4.28824-6.64926,0v-.12825c0-4.28781,6.64926-4.28781,6.64926,0Zm-1.618-7.37987A3.30658,3.30658,0,0,1,47.3691,38.3823a3.30581,3.30581,0,0,1-1.169-2.49643,3.35459,3.35459,0,0,1,3.32459-3.32467,3.48929,3.48929,0,0,1,3.66546,3.6659A3.35465,3.35465,0,0,1,49.86562,39.55212Zm1.02324-8.87094c-4.28824,0-4.28824-6.64925,0-6.64925C55.17631,24.03193,55.17631,30.68118,50.88886,30.68118Zm2.729-17.74135c-4.28736,0-4.28736-6.64969,0-6.64969C57.90621,6.29014,57.90621,12.93983,53.61789,12.93983Zm2.476,12.36976a3.35578,3.35578,0,0,1,3.32467-3.32511h.34079a3.32485,3.32485,0,0,1,0,6.64969h-.34079A3.35567,3.35567,0,0,1,56.0939,25.30959Zm7.33179,8.8705a3.32463,3.32463,0,1,1-6.64925,0v-.34123a3.32463,3.32463,0,1,1,6.64925,0Zm5.54583-4.52215c-4.28823,0-4.28823-6.64969,0-6.64969S73.25976,29.65794,68.97152,29.65794ZM69.654,20.787h-.34079a3.32485,3.32485,0,0,1,0-6.64969H69.654a3.32485,3.32485,0,0,1,0,6.64969Z"/>
    </g>
    <g>
      <path class="cls-7" d="M23.61279,29.93521A47.79753,47.79753,0,0,1,4.99722,26.97315c-.54487.16533-1.08851.3366-1.62273.52872l2.65286,2.925,10.0083,2.95657.82694,3.11205,6.063,1.43357,4.80763,2.7942a24.95916,24.95916,0,0,1-.83374-3.91255,1.54885,1.54885,0,0,1,.04729-.62495A22.87413,22.87413,0,0,1,23.61279,29.93521Z"/>
      <path class="cls-7" d="M72.533,33.13041c-2.5322,2.7614-5.45213,4.21364-8.94973,5.47847-1.17749.42647-5.63194,1.08214-6.22749,2.09736a22.46589,22.46589,0,0,1-3.25557,4.37348,34.33967,34.33967,0,0,1-7.319,5.69537l7.39906-1.56523,5.15478-6.15334L73.22573,37.929l6.85543-6.85124,1.31639-.76q-1.30492-.82174-2.60042-1.65972c-1.54987.81324-3.07671,1.66783-4.60355,2.52286C73.65936,31.8442,73.1124,32.49856,72.533,33.13041Z"/>
      <path class="cls-8" d="M60.43073,5.59015l-4.002.59346L45.78773,0,37.34579,4.49144,33.81757,4.1558,20.77252,13.31046l-1.28525,1.87487-1.90515,1.09994-1.80586-.37656L3.91168,23.94547C5.2826,23.51219,6.67787,23.142,8.079,22.82119c5.2511-1.20385,10.55543-2.33371,15.861-3.26116,12.49932-2.185,25.71433-3.8328,38.38483-2.20248a28.71088,28.71088,0,0,1,12.967,5.08027c3.06564,2.07127,6.17559,4.06759,9.30674,6.032l5.10453-2.94811L83.77044,19.391,77.675,18.53164Z"/>
    </g>
    <g>
      <path class="cls-9" d="M15.90365,31.58909a20.79335,20.79335,0,0,1-7.36757-2.10757,17.48412,17.48412,0,0,1-5.919-4.65886L1.581,25.52431l4.44633,4.90255,10.0083,2.95657.82694,3.11205,4.81521,1.13876a11.66661,11.66661,0,0,0-1.2171-.96069C17.79344,35.26511,15.90365,31.58909,15.90365,31.58909Z"/>
      <path class="cls-9" d="M62.02318,41.81429a1.59667,1.59667,0,0,1,.02557.24028l11.177-4.12552,6.85543-6.85124,9.622-5.55612-.38-.3927c-3.829.87073-7.74247,2.78478-11.57065,3.65516C77.47907,34.63718,68.99194,39.97772,62.02318,41.81429Z"/>
    </g>
    <g>
      <path class="cls-10" d="M83.42712,19.90344c.12947-.15547.25555-.31444.38511-.46948l-.04179-.043L78.2007,18.6058a51.51193,51.51193,0,0,1-3.12095,6.91973C77.91191,23.718,80.68352,21.8133,83.42712,19.90344Z"/>
      <path class="cls-10" d="M56.06493,13.62866c.57174-1.09235,1.16136-2.1744,1.79443-3.23219.80853-1.3513,2.44015-2.91731,2.6157-4.52852a1.6211,1.6211,0,0,1,.04432-.21132l-.08865-.06648-3.9943.59259C56.30521,8.66006,56.24048,11.15177,56.06493,13.62866Z"/>
    </g>
    <path class="cls-10" d="M56.57533,39.81369a26.775,26.775,0,0,0,2.75974,3.24283l2.20843-1.27547c-.09458-.08481-.18829-.17982-.28112-.27484C59.6989,40.94346,58.13882,40.37435,56.57533,39.81369Z"/>
    <polygon class="cls-10" points="36.622 39.075 22.926 37.929 28.981 41.448 36.622 39.075"/>
    <path class="cls-3" d="M41.80792,69.79881c-1.01138-.35021-6.35192,4.30019-7.5473,3.7979-.85922-.36042-4.75859-.815-4.90979-2.66856-.2778-3.29178.29865-7.36321.472-10.7028.10007-1.88124.62287-3.09835.71822-4.497l3.58406,3.99988s-.30284,7.11019,0,6.65606c.30249-.45369,1.05823-7.7156,1.05823-7.7156l-2.87342-4.30184-1.4101-5.98513-1.9192-6.93377-6.055-3.51888L26.0573,44.528c.66117,1.88176,1.09017,3.93986,1.70579,5.888a11.39107,11.39107,0,0,1,.06518,5.08062,51.738,51.738,0,0,1-5.98644-2.43,18.06747,18.06747,0,0,0-1.79774-4.56682,24.91413,24.91413,0,0,1-.05244,5.80784c.795.22195,1.6325.50054,2.44879.69737.15844,1.76546.3024,3.66206.53884,5.43939.25433-1.11486.55682-2.57783.94149-3.806,1.49195.16106,2.6533,1.41568,3.51592,2.61787-.29865,3.08012-.61431,6.13415-.91714,9.18442l-.798.51468c-1.09915.44348-4.70493.818-5.68473,1.5647a28.44327,28.44327,0,0,0,6.20918.65017c2.81593,1.70876,3.38557,6.78039,4.943,9.56866.47715-.97168-.17973-3.85671.59215-4.701.76595-.844,3.46008-.79623,3.20531-.72512Z"/>
    <path class="cls-10" d="M22.98312,18.55852c.02478.0068.04947.01273.07373.01963a48.46363,48.46363,0,0,1-3.56958-3.39282l-1.90515,1.09994c.09589.1006.18785.19814.282.297C19.63341,17.06021,21.42993,18.12053,22.98312,18.55852Z"/>
    <polygon class="cls-10" points="33.818 4.156 41.808 7.072 43.851 9.758 43.296 6.424 37.346 4.491 33.818 4.156"/>
    <polygon class="cls-3" points="13.648 47.056 18.993 59.334 16.863 36.495 16.036 33.383 13.648 47.056"/>
    <polygon class="cls-11" points="89.703 25.522 80.081 31.078 73.226 37.929 61.543 41.781 59.335 43.057 54.18 49.21 45.496 51.046 43.851 61.926 45.564 74.716 44.195 82.202 45.63 98.329 64.441 87.687 67.665 84.092 74.372 82.202 82.905 75.072 89.836 72.804 91.352 61.926 89.768 48.691 91.352 33.383 89.703 25.522"/>
    <path class="cls-12" d="M59.05222,88.92732c-.31192.772-.61432,1.54813-.91428,2.326l6.30332-3.56618,3.06136-3.41366c-.00515-.01745-.01536-.03062-.02129-.049-1.02839-3.13892-.85372-8.33968-3.55126-10.61589-2.29627-1.93926-4.18092-3.642-5.292-6.52318A87.513,87.513,0,0,1,55.46344,56.0734c-.50446-2.08488-1.54647-4.39215-2.194-6.671l-1.301.27526c-.4379,5.80618.11674,11.57484.51546,17.37631.104,1.50381-.36723,4.92.57514,6.22837,1.18264,1.64052,3.64845,2.70512,5.257,3.95041,2.47688,1.91667,3.43373,1.90943,2.99749,5.2012C61.0118,84.71359,59.90166,86.81723,59.05222,88.92732Z"/>
    <path class="cls-12" d="M72.66761,80.98426q-.27732.92919-.558,1.85533l2.26208-.63778,4.84218-4.0463c.31775-6.91126,3.60238-13.26318,4.1817-20.10534a1.85676,1.85676,0,0,1-.2709-.2812,18.46655,18.46655,0,0,1-4.02589-13.63886,23.05716,23.05716,0,0,1,.46608-2.46065c.24281-2.64981.29647-5.31882.43624-7.98058-.0068-.85974.00088-1.71808.04345-2.574l-6.69863,6.694c.86392,4.89784,2.79036,9.51413,3.73185,14.39844a34.8252,34.8252,0,0,1-.02809,14.36093C75.95136,71.4786,74.105,76.16905,72.66761,80.98426Z"/>
    <path class="cls-12" d="M51.98033,49.6755l-6.484,1.37093L43.85109,61.92564l1.71259,12.7902-1.3684,7.486.34088,3.83367q.81024-2.40516,1.7296-4.77045c.81621-2.09858,2.735-5.073,2.36093-7.38886-.339-2.08959-.78723-4.16469-1.07951-6.262A21.222,21.222,0,0,1,48.677,56.07811,47.28727,47.28727,0,0,1,51.98033,49.6755Z"/>
    <path class="cls-12" d="M62.70311,66.99265c.00515.04005.0068.0801.01108.11971.5973-2.6328,1.27809-5.24849,2.02363-7.85145a1.74767,1.74767,0,0,1,2.74176-.75234,6.815,6.815,0,0,1,1.67769-.31531,14.16293,14.16293,0,0,1-4.20988-4.05694c-2.04571-3.58022-2.32516-8.35077-3.17217-12.43153l-.23172.07626-2.20843,1.27547-.26243.31314c3.7055,5.38608,4.04036,13.30235,3.14572,20.18926C62.40324,64.70021,62.5711,65.84412,62.70311,66.99265Z"/>
    <path class="cls-13" d="M66.91474,84.93005l.75059-.83845,6.70632-1.88979.59137-.49374c1.47571-7.73558,4.25081-15.184,5.41975-22.97762a1.75908,1.75908,0,0,1-.36129-.56616c-1.25672-3.18533-3.23175-7.22692-4.06331-10.51189-.04,6.60066,1.66233,13.88342-.84352,20.40267C72.86191,73.91456,69.66506,79.31381,66.91474,84.93005Z"/>
    <path class="cls-12" d="M89.70312,25.52169l-5.07983,2.93362c.31269,2.686,1.45616,5.05759,2.45472,7.54722.64755,1.61548,2.05338,4.30106,1.56095,6.09461-.703,2.5548-1.89319,5.15226-2.73505,7.69039q-.40255,1.21358-.85459,2.39426c.31784,2.16881,1.29511,4.18982,1.93245,6.32295a12.1184,12.1184,0,0,1,.73525,2.951,1.37051,1.37051,0,0,1-.02549,1.6031,39.22755,39.22755,0,0,0-3.2608,6.9151c-.58613,1.79006-1.209,3.56957-1.83439,5.35545l.30842-.25782,6.93133-2.26722,1.51576-10.87869L89.76786,48.691l1.584-15.30757Z"/>
    <path class="cls-14" d="M6.93342,33.36214c.03159.1998.06823.40047.10226.6007a15.51258,15.51258,0,0,0-.10226-1.67Z"/>
    <path class="cls-15" d="M3.07462,71.47048c3.29605-3.79921,7.98563-11.96763,7.79866-17.07512-.25608-6.9794-2.72694-13.84852-3.8376-20.43252.06858,6.73188-3.93122,12.67434-.7157,19.34323a13.1495,13.1495,0,0,1,1.04846,9.56447C6.70256,65.50926,3.52656,68.42745,3.07462,71.47048Z"/>
    <path class="cls-15" d="M14.91268,70.469c1.1358,2.09422,2.33842,4.17874,3.53259,6.27008,1.01774,1.78239,1.5059,3.72461,2.41075,5.418.5453-2.00138,3.04137-4.9077,2.93825-6.97556a5.04358,5.04358,0,0,0-1.96012-3.15419c-.90266-.56537-3.19423-.2518-3.88393-1.4067-.78305-1.31212.68246-2.01211,1.6653-2.74822,1.65466-1.23762,1.73895-1.299,1.81782-3.47762.05531-1.52893.31862-8.25916-.93129-9.06044-.03455-.1074-.06692-.216-.09676-.32465-.41364,4.32445-1.37345,5.73673-1.94554,8.17566-.71316.20878-1.40033.35361-2.07092.59259-1.071-3.01364-1.26056-6.44266-2.40141-9.37576l-.196-.58787c.35318.96452-.19683,2.56631-.1998,3.7685-.00514,2.03889.20364,3.95983.00428,5.9996A10.30813,10.30813,0,0,0,14.91268,70.469Z"/>
    <path class="cls-15" d="M17.85861,37.40076c1.10683,4.54475,3.20279,8.9259,4.35856,13.474l.39148-.19553c.50569-.27352.46861-4.19278.392-5.68219-.11124-2.16925-.7622-4.30875-.8176-6.43192C20.72741,38.16121,19.29681,37.76415,17.85861,37.40076Z"/>
    <path class="cls-14" d="M17.8382,37.39474l.02041.006-.00515-.02129C17.77895,37.31,17.77381,37.31473,17.8382,37.39474Z"/>
    <path class="cls-15" d="M36.735,93.34512c2.43422,1.2623,5.56546,2.20379,8.01591,3.38086-1.72969-3.30932-1.00117-9.34635-1.56863-13.12943C42.527,79.23337,45.308,75.04137,41.41853,71.2336c-1.93411,1.18605-4.088,2.21741-6.12184,3.30164-1.68275.89674-2.10407.79666-2.10748,2.60592-.00174,1.09872.391,2.459.39236,3.74172.60114-1.87749,4.30019-3.939,6.08772-5.25067-.19255,3.39368,1.365,6.74767,1.16136,10.12513C40.66191,88.549,37.96778,90.8904,36.735,93.34512Z"/>
    <path class="cls-15" d="M32.56766,59.12969c-2.63148.67434-2.26129,5.35965-2.51266,7.81271-.1806,1.75857-.65261,3.22364.3962,4.10929a12.24844,12.24844,0,0,0,4.07142,1.54307c1.39946-4.38412,5.16037-7.49957,6.1078-11.91781.524-2.44661-.16106-3.94832-1.41525-6.0298-.88784-1.47274-2.378-4.21887-3.086-5.1437.67565,1.57753-.01788,3.62664.97988,5.29063.99428,1.65937,2.64719,2.781,2.10024,4.854-.53256,2.0266-2.91993,3.19127-3.91761,4.93326-.93731,1.63721-1.017,2.93651-2.65068,4.29976a27.57416,27.57416,0,0,1-.43118-4.6819C32.27669,62.53655,32.81684,60.78941,32.56766,59.12969Z"/>
    <path class="cls-15" d="M23.19705,81.44266c-.60114,1.75177,2.156,3.41279,3.87032,4.16217,2.5254,1.10377,3.27992-1.40923,2.54163-3.325A41.36156,41.36156,0,0,0,26.72353,76.739l.196-.19552C25.91928,77.5152,23.66567,80.07688,23.19705,81.44266Z"/>
    <path class="cls-13" d="M85.70708,37.74714c-.59809-1.98018-1.9383-4.58776-2.55261-6.07421l-.196-.39148a66.03815,66.03815,0,0,1-1.21755,8.42527c-.535,2.3201-1.43906,5.21019-1.134,7.64188.25389,2.016,1.7501,3.7877,2.30308,5.83855.55377,2.05172,1.49107,4.84723,2.00819,6.53426,1.01819-4.98989-1.27976-10.47874-.19081-15.51295C85.21038,41.977,86.42967,40.1311,85.70708,37.74714Z"/>
    <path class="cls-13" d="M46.94482,87.07583a72.46612,72.46612,0,0,0,.39191,7.27805c1.82165-1.1775,3.24711-3.66162,4.86259-5.23148,1.3896-1.35042,2.85938-2.61063,4.1647-4.11444.62112-.71525,2.7819-2.49093,2.50925-3.57044-.34681-1.37093-3.93384-.746-5.079-.80853.18148-1.27592.8895-2.55139.91846-3.85549-3.26412-.84177-3.03832-4.93789-3.305-7.51877-.32543-3.13115-.11752-7.02023-1.21327-9.92358-.44479-.16316-.12782.15635-.15416.16533l-.39114-.196c1.20219,3.30627.25224,8.40783.58709,11.95271.2922,3.07925.80007,5.70262-.53343,8.42057C48.7,81.71662,47.04707,84.93642,46.94482,87.07583Z"/>
    <path class="cls-13" d="M65.5685,72.821c.80775,1.65841,1.79435,3.45668,2.64641,4.88292,1.013-3.44559,2.557-6.59516,3.73273-9.93335,1.20908-3.43539,1.58652-6.9897,2.557-10.37989-4.78329-3.74634-4.2687-11.893-4.70407-17.06658a11.68705,11.68705,0,0,0-3.50693.55254c-.74728.19465-2.16418.63988-1.94946.78942h-.19509a41.55961,41.55961,0,0,0,2.39844,9.94915c.97893,2.651,2.95911,4.30656,4.47739,6.705-2.10538,2.63026-5.45046,5.67068-5.902,9.01411C64.82131,69.576,64.61253,70.86044,65.5685,72.821Z"/>
    <path class="cls-13" d="M62.78582,70.59591c-.78305-4.25465-1.693-8.42109-2.36529-12.65785-.668-4.21067-.616-8.47553-1.98778-12.52863-1.53111,1.01521-2.23825,2.97951-3.27773,4.4178a1.28781,1.28781,0,0,0,.15845-.1095l.213-.21428a1.11658,1.11658,0,0,1-.213.21428l-.17808.17807C58.155,56.65874,58.48388,64.72578,62.78582,70.59591Z"/>
    <path class="cls-16" d="M55.52644,49.50345l-.213.21428A1.11658,1.11658,0,0,0,55.52644,49.50345Z"/>
    <path class="cls-9" d="M54.18029,49.20986l4.89235-5.8402-6.161,3.9977L45.573,49.40242s-7.877-2.25056-8.25872-2.03506c-.38171.21559-7.43562-5.66257-7.43562-5.66257l5.38738,6.46176L44.75088,53.03l-1.96055,8.89642,2.8517,11.5361-.89115-12.41321L45.642,53.03Z"/>
    <path class="cls-17" d="M44.7466,53.04868l-1.95627,8.87775,2.8517,11.5361-.89115-12.41321L45.637,53.079C45.34041,53.07687,45.04307,53.06831,44.7466,53.04868Z"/>
  </g>
</svg>
