<svg width="518" height="96" viewBox="0 0 518 96" fill="none" xmlns="http://www.w3.org/2000/svg">
<circle cx="1.5" cy="94.5" r="1.5" fill="#D9D9D9"/>
<circle cx="23.5" cy="94.5" r="1.5" fill="#D9D9D9"/>
<circle cx="45.5" cy="94.5" r="1.5" fill="#D9D9D9"/>
<circle cx="67.5" cy="94.5" r="1.5" fill="#D9D9D9"/>
<circle cx="91.5" cy="94.5" r="1.5" fill="#D9D9D9"/>
<circle cx="113.5" cy="94.5" r="1.5" fill="#D9D9D9"/>
<circle cx="135.5" cy="94.5" r="1.5" fill="#D9D9D9"/>
<circle cx="157.5" cy="94.5" r="1.5" fill="#D9D9D9"/>
<circle cx="179.5" cy="94.5" r="1.5" fill="#D9D9D9"/>
<circle cx="201.5" cy="94.5" r="1.5" fill="#D9D9D9"/>
<circle cx="225.5" cy="94.5" r="1.5" fill="#D9D9D9"/>
<circle cx="247.5" cy="94.5" r="1.5" fill="#D9D9D9"/>
<circle cx="2.5" cy="71.5" r="1.5" fill="#D9D9D9"/>
<circle cx="24.5" cy="71.5" r="1.5" fill="#D9D9D9"/>
<circle cx="46.5" cy="71.5" r="1.5" fill="#D9D9D9"/>
<circle cx="68.5" cy="71.5" r="1.5" fill="#D9D9D9"/>
<circle cx="92.5" cy="71.5" r="1.5" fill="#D9D9D9"/>
<circle cx="114.5" cy="71.5" r="1.5" fill="#D9D9D9"/>
<circle cx="136.5" cy="71.5" r="1.5" fill="#D9D9D9"/>
<circle cx="158.5" cy="71.5" r="1.5" fill="#D9D9D9"/>
<circle cx="180.5" cy="71.5" r="1.5" fill="#D9D9D9"/>
<circle cx="202.5" cy="71.5" r="1.5" fill="#D9D9D9"/>
<circle cx="226.5" cy="71.5" r="1.5" fill="#D9D9D9"/>
<circle cx="248.5" cy="71.5" r="1.5" fill="#D9D9D9"/>
<circle cx="1.5" cy="48.5" r="1.5" fill="#D9D9D9"/>
<circle cx="23.5" cy="48.5" r="1.5" fill="#D9D9D9"/>
<circle cx="45.5" cy="48.5" r="1.5" fill="#D9D9D9"/>
<circle cx="67.5" cy="48.5" r="1.5" fill="#D9D9D9"/>
<circle cx="91.5" cy="48.5" r="1.5" fill="#D9D9D9"/>
<circle cx="113.5" cy="48.5" r="1.5" fill="#D9D9D9"/>
<circle cx="135.5" cy="48.5" r="1.5" fill="#D9D9D9"/>
<circle cx="157.5" cy="48.5" r="1.5" fill="#D9D9D9"/>
<circle cx="179.5" cy="48.5" r="1.5" fill="#D9D9D9"/>
<circle cx="201.5" cy="48.5" r="1.5" fill="#D9D9D9"/>
<circle cx="225.5" cy="48.5" r="1.5" fill="#D9D9D9"/>
<circle cx="247.5" cy="48.5" r="1.5" fill="#D9D9D9"/>
<circle cx="1.5" cy="25.5" r="1.5" fill="#D9D9D9"/>
<circle cx="23.5" cy="25.5" r="1.5" fill="#D9D9D9"/>
<circle cx="45.5" cy="25.5" r="1.5" fill="#D9D9D9"/>
<circle cx="67.5" cy="25.5" r="1.5" fill="#D9D9D9"/>
<circle cx="91.5" cy="25.5" r="1.5" fill="#D9D9D9"/>
<circle cx="113.5" cy="25.5" r="1.5" fill="#D9D9D9"/>
<circle cx="135.5" cy="25.5" r="1.5" fill="#D9D9D9"/>
<circle cx="157.5" cy="25.5" r="1.5" fill="#D9D9D9"/>
<circle cx="179.5" cy="25.5" r="1.5" fill="#D9D9D9"/>
<circle cx="201.5" cy="25.5" r="1.5" fill="#D9D9D9"/>
<circle cx="225.5" cy="25.5" r="1.5" fill="#D9D9D9"/>
<circle cx="247.5" cy="25.5" r="1.5" fill="#D9D9D9"/>
<circle cx="1.5" cy="2.5" r="1.5" fill="#D9D9D9"/>
<circle cx="23.5" cy="2.5" r="1.5" fill="#D9D9D9"/>
<circle cx="45.5" cy="2.5" r="1.5" fill="#D9D9D9"/>
<circle cx="67.5" cy="2.5" r="1.5" fill="#D9D9D9"/>
<circle cx="91.5" cy="2.5" r="1.5" fill="#D9D9D9"/>
<circle cx="113.5" cy="2.5" r="1.5" fill="#D9D9D9"/>
<circle cx="135.5" cy="2.5" r="1.5" fill="#D9D9D9"/>
<circle cx="157.5" cy="2.5" r="1.5" fill="#D9D9D9"/>
<circle cx="179.5" cy="2.5" r="1.5" fill="#D9D9D9"/>
<circle cx="201.5" cy="2.5" r="1.5" fill="#D9D9D9"/>
<circle cx="225.5" cy="2.5" r="1.5" fill="#D9D9D9"/>
<circle cx="247.5" cy="2.5" r="1.5" fill="#D9D9D9"/>
<circle cx="269.5" cy="93.5" r="1.5" fill="#D9D9D9"/>
<circle cx="291.5" cy="93.5" r="1.5" fill="#D9D9D9"/>
<circle cx="313.5" cy="93.5" r="1.5" fill="#D9D9D9"/>
<circle cx="335.5" cy="93.5" r="1.5" fill="#D9D9D9"/>
<circle cx="359.5" cy="93.5" r="1.5" fill="#D9D9D9"/>
<circle cx="381.5" cy="93.5" r="1.5" fill="#D9D9D9"/>
<circle cx="403.5" cy="93.5" r="1.5" fill="#D9D9D9"/>
<circle cx="425.5" cy="93.5" r="1.5" fill="#D9D9D9"/>
<circle cx="447.5" cy="93.5" r="1.5" fill="#D9D9D9"/>
<circle cx="469.5" cy="93.5" r="1.5" fill="#D9D9D9"/>
<circle cx="493.5" cy="93.5" r="1.5" fill="#D9D9D9"/>
<circle cx="515.5" cy="93.5" r="1.5" fill="#D9D9D9"/>
<circle cx="270.5" cy="70.5" r="1.5" fill="#D9D9D9"/>
<circle cx="292.5" cy="70.5" r="1.5" fill="#D9D9D9"/>
<circle cx="314.5" cy="70.5" r="1.5" fill="#D9D9D9"/>
<circle cx="336.5" cy="70.5" r="1.5" fill="#D9D9D9"/>
<circle cx="360.5" cy="70.5" r="1.5" fill="#D9D9D9"/>
<circle cx="382.5" cy="70.5" r="1.5" fill="#D9D9D9"/>
<circle cx="404.5" cy="70.5" r="1.5" fill="#D9D9D9"/>
<circle cx="426.5" cy="70.5" r="1.5" fill="#D9D9D9"/>
<circle cx="448.5" cy="70.5" r="1.5" fill="#D9D9D9"/>
<circle cx="470.5" cy="70.5" r="1.5" fill="#D9D9D9"/>
<circle cx="494.5" cy="70.5" r="1.5" fill="#D9D9D9"/>
<circle cx="516.5" cy="70.5" r="1.5" fill="#D9D9D9"/>
<circle cx="269.5" cy="47.5" r="1.5" fill="#D9D9D9"/>
<circle cx="291.5" cy="47.5" r="1.5" fill="#D9D9D9"/>
<circle cx="313.5" cy="47.5" r="1.5" fill="#D9D9D9"/>
<circle cx="335.5" cy="47.5" r="1.5" fill="#D9D9D9"/>
<circle cx="359.5" cy="47.5" r="1.5" fill="#D9D9D9"/>
<circle cx="381.5" cy="47.5" r="1.5" fill="#D9D9D9"/>
<circle cx="403.5" cy="47.5" r="1.5" fill="#D9D9D9"/>
<circle cx="425.5" cy="47.5" r="1.5" fill="#D9D9D9"/>
<circle cx="447.5" cy="47.5" r="1.5" fill="#D9D9D9"/>
<circle cx="469.5" cy="47.5" r="1.5" fill="#D9D9D9"/>
<circle cx="493.5" cy="47.5" r="1.5" fill="#D9D9D9"/>
<circle cx="515.5" cy="47.5" r="1.5" fill="#D9D9D9"/>
<circle cx="269.5" cy="24.5" r="1.5" fill="#D9D9D9"/>
<circle cx="291.5" cy="24.5" r="1.5" fill="#D9D9D9"/>
<circle cx="313.5" cy="24.5" r="1.5" fill="#D9D9D9"/>
<circle cx="335.5" cy="24.5" r="1.5" fill="#D9D9D9"/>
<circle cx="359.5" cy="24.5" r="1.5" fill="#D9D9D9"/>
<circle cx="381.5" cy="24.5" r="1.5" fill="#D9D9D9"/>
<circle cx="403.5" cy="24.5" r="1.5" fill="#D9D9D9"/>
<circle cx="425.5" cy="24.5" r="1.5" fill="#D9D9D9"/>
<circle cx="447.5" cy="24.5" r="1.5" fill="#D9D9D9"/>
<circle cx="469.5" cy="24.5" r="1.5" fill="#D9D9D9"/>
<circle cx="493.5" cy="24.5" r="1.5" fill="#D9D9D9"/>
<circle cx="515.5" cy="24.5" r="1.5" fill="#D9D9D9"/>
<circle cx="269.5" cy="1.5" r="1.5" fill="#D9D9D9"/>
<circle cx="291.5" cy="1.5" r="1.5" fill="#D9D9D9"/>
<circle cx="313.5" cy="1.5" r="1.5" fill="#D9D9D9"/>
<circle cx="335.5" cy="1.5" r="1.5" fill="#D9D9D9"/>
<circle cx="359.5" cy="1.5" r="1.5" fill="#D9D9D9"/>
<circle cx="381.5" cy="1.5" r="1.5" fill="#D9D9D9"/>
<circle cx="403.5" cy="1.5" r="1.5" fill="#D9D9D9"/>
<circle cx="425.5" cy="1.5" r="1.5" fill="#D9D9D9"/>
<circle cx="447.5" cy="1.5" r="1.5" fill="#D9D9D9"/>
<circle cx="469.5" cy="1.5" r="1.5" fill="#D9D9D9"/>
<circle cx="493.5" cy="1.5" r="1.5" fill="#D9D9D9"/>
<circle cx="515.5" cy="1.5" r="1.5" fill="#D9D9D9"/>
</svg>
