<?xml version="1.0" encoding="utf-8"?>
<!-- Generator: Adobe Illustrator 26.2.1, SVG Export Plug-In . SVG Version: 6.00 Build 0)  -->
<!DOCTYPE svg PUBLIC "-//W3C//DTD SVG 1.1//EN" "http://www.w3.org/Graphics/SVG/1.1/DTD/svg11.dtd" [
	<!ENTITY ns_extend "http://ns.adobe.com/Extensibility/1.0/">
	<!ENTITY ns_ai "http://ns.adobe.com/AdobeIllustrator/10.0/">
	<!ENTITY ns_graphs "http://ns.adobe.com/Graphs/1.0/">
	<!ENTITY ns_vars "http://ns.adobe.com/Variables/1.0/">
	<!ENTITY ns_imrep "http://ns.adobe.com/ImageReplacement/1.0/">
	<!ENTITY ns_sfw "http://ns.adobe.com/SaveForWeb/1.0/">
	<!ENTITY ns_custom "http://ns.adobe.com/GenericCustomNamespace/1.0/">
	<!ENTITY ns_adobe_xpath "http://ns.adobe.com/XPath/1.0/">
]>
<svg version="1.1"
	 id="Réteg_2_00000106855374340698083860000003074670029369943970_" xmlns:x="&ns_extend;" xmlns:i="&ns_ai;" xmlns:graph="&ns_graphs;"
	 xmlns="http://www.w3.org/2000/svg" xmlns:xlink="http://www.w3.org/1999/xlink" x="0px" y="0px" viewBox="0 0 99.5 63.4"
	 style="enable-background:new 0 0 99.5 63.4;" xml:space="preserve">
<style type="text/css">
	.st0{fill-rule:evenodd;clip-rule:evenodd;fill:#727270;}
	.st1{fill-rule:evenodd;clip-rule:evenodd;fill:#51E5A1;}
	.st2{fill-rule:evenodd;clip-rule:evenodd;fill:#727272;}
</style>
<metadata>
	<sfw  xmlns="&ns_sfw;">
		<slices></slices>
		<sliceSourceBounds  bottomLeftOrigin="true" height="63.4" width="99.5" x="0" y="0"></sliceSourceBounds>
	</sfw>
</metadata>
<polygon class="st0" points="0,19.6 0,19.6 13.3,0 23.2,8 10.1,26.2 "/>
<polygon class="st0" points="78.4,7.4 78.4,7.4 87.9,1.5 99.5,20.7 89.6,26.2 "/>
<path class="st1" d="M51.6,13.7L51.6,13.7l-15.4,7.2c-1.9,0.8-4,0.2-4.6-1.5c-0.8-1.9-0.2-4,1.5-4.6l15.6-7.4c2.2-0.9,4.6-1.3,7-1.3
	c5.3,0,16.3,3,21.3,4.4L86,26l-5.1,3.4c-1.3,1.3-2.3,4.6-5.1,6.3C70.4,28.1,60.4,20.3,51.6,13.7L51.6,13.7z"/>
<path class="st1" d="M22.8,38.7L22.8,38.7c-1.2-1.4-1.1-3.6,0.3-4.8c0,0,0.1-0.1,0.1-0.1l8.4-7.4c1.5-1.2,3.8-1.1,5.1,0.4
	c1.1,1.5,1,3.6-0.4,4.9l-8.7,7.4c-1.3,1.2-3.3,1.2-4.6-0.1C23,38.9,22.9,38.8,22.8,38.7z"/>
<path class="st1" d="M32.5,46.5L32.5,46.5l10.6-9.1c1.5-1.1,1.5-3.4,0.2-4.9c-1.1-1.4-3.1-1.6-4.5-0.5c-0.1,0.1-0.2,0.2-0.3,0.3
	l-9.5,8c-1.9,1-2.6,3.4-1.5,5.3c0.1,0.2,0.2,0.3,0.3,0.4C28.9,47.5,31.1,47.6,32.5,46.5L32.5,46.5z"/>
<path class="st1" d="M39.3,52.4L39.3,52.4l7.6-6.5c1.4-1.4,1.5-3.6,0.2-5.1c-1.2-1.5-3.3-1.7-4.8-0.5c0,0-0.1,0-0.1,0.1
	c-0.2,0.2-7.6,6.8-7.8,6.8c-1.3,1.5-1.2,3.7,0.2,5.1C36,53.4,37.9,53.5,39.3,52.4z"/>
<path class="st0" d="M61.7,58.7L61.7,58.7c1.7-0.9,2.3-3,1.5-4.6l-5.3-9.9l1.5-1.1l5.9,11.2c0.9,1.7,3,2.3,4.7,1.5
	c1.7-0.9,2.3-3,1.5-4.6l-6.1-11.6l1.5-1.1c0,0,4.2,8,5.5,10.8c1,1.7,3.1,2.3,4.9,1.5c1.7-0.9,2.3-2.9,1.5-4.6
	c-4.6-8.9-3.6-7.2-5.5-10.1c-5.7-7.8-13.9-13.1-22-19.9L37,22.8c-2.7,1.4-5.9,0.3-7.3-2.4c0-0.1-0.1-0.1-0.1-0.2
	c-1.2-2.7-0.1-6,2.5-7.4l3.6-1.7h-11L12.9,27l7.6,7.2c0.4-0.7,0.9-1.4,1.5-1.9l8.5-7.4c2.3-2,5.8-1.8,7.8,0.4c0.9,1.1,1.4,2.6,1.3,4
	c2-0.3,3.9,0.4,5.3,1.9c1.7,1.8,1.9,4.5,0.6,6.5c1.3,0,2.4,0.7,3.2,1.7c1.9,2,1.9,5.2,0,7.2c1.4-0.1,2.7,0.5,3.4,1.7
	c0,0,3.8,6.6,5.1,9.1C57.7,58.5,60,59.8,61.7,58.7L61.7,58.7z"/>
<path class="st1" d="M45,58.9L45,58.9l4.7-4.2c1.4-1.1,1.7-3.2,0.6-4.6c-0.1-0.2-0.3-0.3-0.4-0.4c-1.3-1.2-3.3-1.3-4.6-0.2l-4.6,4.2
	c-1.4,1-1.8,3.1-0.7,4.5c0.1,0.1,0.2,0.2,0.3,0.3C41.4,59.9,43.5,60.1,45,58.9L45,58.9z"/>
<path class="st2" d="M53.9,63c1.9-0.8,2.3-3,1.7-4.9c0,0-1.9-3.2-2.7-4.9c-0.6,2.3-1.7,3.2-4.9,5.7l1.3,2.5
	C49.9,62.7,52.2,64,53.9,63L53.9,63z"/>
</svg>
