<?xml version="1.0" encoding="utf-8"?>
<!-- Generator: Adobe Illustrator 26.2.1, SVG Export Plug-In . SVG Version: 6.00 Build 0)  -->
<!DOCTYPE svg PUBLIC "-//W3C//DTD SVG 1.1//EN" "http://www.w3.org/Graphics/SVG/1.1/DTD/svg11.dtd" [
	<!ENTITY ns_extend "http://ns.adobe.com/Extensibility/1.0/">
	<!ENTITY ns_ai "http://ns.adobe.com/AdobeIllustrator/10.0/">
	<!ENTITY ns_graphs "http://ns.adobe.com/Graphs/1.0/">
	<!ENTITY ns_vars "http://ns.adobe.com/Variables/1.0/">
	<!ENTITY ns_imrep "http://ns.adobe.com/ImageReplacement/1.0/">
	<!ENTITY ns_sfw "http://ns.adobe.com/SaveForWeb/1.0/">
	<!ENTITY ns_custom "http://ns.adobe.com/GenericCustomNamespace/1.0/">
	<!ENTITY ns_adobe_xpath "http://ns.adobe.com/XPath/1.0/">
]>
<svg version="1.1" id="Réteg_3" xmlns:x="&ns_extend;" xmlns:i="&ns_ai;" xmlns:graph="&ns_graphs;"
	 xmlns="http://www.w3.org/2000/svg" xmlns:xlink="http://www.w3.org/1999/xlink" x="0px" y="0px" viewBox="0 0 87.4 97.9"
	 style="enable-background:new 0 0 87.4 97.9;" xml:space="preserve">
<style type="text/css">
	.st0{fill-rule:evenodd;clip-rule:evenodd;fill:#727270;}
	.st1{fill-rule:evenodd;clip-rule:evenodd;fill:#51E5A1;}
	.st2{fill-rule:evenodd;clip-rule:evenodd;fill:#727272;}
</style>
<metadata>
	<sfw  xmlns="&ns_sfw;">
		<slices></slices>
		<sliceSourceBounds  bottomLeftOrigin="true" height="97.9" width="87.4" x="0" y="0"></sliceSourceBounds>
	</sfw>
</metadata>
<polygon class="st0" points="17.4,4.6 17.4,4.6 17.4,18.1 83.3,18.1 83.3,4.6 "/>
<polygon class="st1" points="36.1,29.1 36.1,29.1 36.1,35.5 77.9,35.5 77.9,29.1 "/>
<polygon class="st1" points="36.1,44.1 36.1,44.1 36.1,50.3 77.9,50.3 77.9,44.1 "/>
<polygon class="st1" points="36.1,59 36.1,59 36.1,65.5 77.9,65.5 77.9,59 "/>
<polygon class="st1" points="36.1,74 36.1,74 36.1,80.5 77.9,80.5 77.9,74 "/>
<path class="st1" d="M29.8,26.6L29.8,26.6c-4.4-4.5-10.9-6.3-17-4.8C3.6,24.4-1.8,33.8,0.5,43c2.5,9.1,11.9,14.6,21,12.1
	c0.1,0,0.1,0,0.2-0.1c9.2-2.5,14.6-11.8,12.3-21c-0.4-1-0.8-2.1-1.2-3.1l4.8-4.8L34,22.7L29.8,26.6z"/>
<path class="st2" d="M15.9,40.5L15.9,40.5L11.5,36l3.5-3.5l4.4,4.4l8.7-8.5c-3.8-4-9.5-5.5-14.8-3.9C5.5,26.4,0.8,34.5,2.8,42.4
	C5,50.3,13.1,55.1,21.1,53c7.9-2.2,12.6-10.4,10.4-18.3c0,0,0,0,0,0c0-0.7-0.2-1.3-0.6-1.9l-7.5,7.7l-3.7,3.7L15.9,40.5z"/>
<path class="st0" d="M13.2,0h74.2v97.9H13.2v-42c0.6,0.2,1.2,0.2,1.9,0.2v39.3h70.7V2.1H15.1v18.7C14.5,21,13.8,21,13.2,21V0z"/>
</svg>
