<?xml version="1.0" encoding="utf-8"?>
<!-- Generator: Adobe Illustrator 26.2.1, SVG Export Plug-In . SVG Version: 6.00 Build 0)  -->
<!DOCTYPE svg PUBLIC "-//W3C//DTD SVG 1.1//EN" "http://www.w3.org/Graphics/SVG/1.1/DTD/svg11.dtd" [
	<!ENTITY ns_extend "http://ns.adobe.com/Extensibility/1.0/">
	<!ENTITY ns_ai "http://ns.adobe.com/AdobeIllustrator/10.0/">
	<!ENTITY ns_graphs "http://ns.adobe.com/Graphs/1.0/">
	<!ENTITY ns_vars "http://ns.adobe.com/Variables/1.0/">
	<!ENTITY ns_imrep "http://ns.adobe.com/ImageReplacement/1.0/">
	<!ENTITY ns_sfw "http://ns.adobe.com/SaveForWeb/1.0/">
	<!ENTITY ns_custom "http://ns.adobe.com/GenericCustomNamespace/1.0/">
	<!ENTITY ns_adobe_xpath "http://ns.adobe.com/XPath/1.0/">
]>
<svg version="1.1" id="Réteg_1" xmlns:x="&ns_extend;" xmlns:i="&ns_ai;" xmlns:graph="&ns_graphs;"
	 xmlns="http://www.w3.org/2000/svg" xmlns:xlink="http://www.w3.org/1999/xlink" x="0px" y="0px" viewBox="0 0 603.6 322.8"
	 style="enable-background:new 0 0 603.6 322.8;" xml:space="preserve">
<style type="text/css">
	.st0{fill:url(#SVGID_1_);}
	.st1{opacity:0.41;fill:#FFFFFF;enable-background:new    ;}
	.st2{opacity:0.41;fill:#FFF1D2;enable-background:new    ;}
	.st3{opacity:0.27;fill:#FFFFFF;enable-background:new    ;}
	.st4{opacity:0.28;fill:#FFFFFF;enable-background:new    ;}
	.st5{fill:#B7496B;}
	.st6{opacity:0.23;}
	.st7{fill:#FFF1D2;}
	.st8{fill:#660646;}
	.st9{opacity:0.28;}
	.st10{fill:#512203;}
	.st11{fill:#EDB974;}
	.st12{opacity:0.37;fill:#EF6F90;enable-background:new    ;}
	.st13{opacity:0.41;}
	.st14{fill:#BC7A4D;}
	.st15{fill:#A5603D;}
	.st16{fill:#774005;}
	.st17{fill:#592E03;}
	.st18{fill:#FFBBB6;}
	.st19{fill:#FF8899;}
</style>
<metadata>
	<sfw  xmlns="&ns_sfw;">
		<slices></slices>
		<sliceSourceBounds  bottomLeftOrigin="true" height="322.8" width="608.2" x="-2.2" y="0"></sliceSourceBounds>
	</sfw>
</metadata>
<g>
	
		<linearGradient id="SVGID_1_" gradientUnits="userSpaceOnUse" x1="301.8072" y1="21.134" x2="301.8072" y2="321" gradientTransform="matrix(1 0 0 -1 0 321)">
		<stop  offset="0.1758" style="stop-color:#FFFFFF"/>
		<stop  offset="1" style="stop-color:#FF8899"/>
	</linearGradient>
	<rect class="st0" width="603.6" height="299.9"/>
	<g>
		<path class="st1" d="M402,232.5c35.6-7.2,71.9-10.8,108.2-10.7c31.2,0,62.4,0.4,93.4,0.9V182c-20.9-2.4-42-3.1-63-2.1
			c-33.4,1.6-66.6,7.9-99.7,11.3c-28.3,2.9-43.8-12.3-22.3-27.8c21.6-15.5-92.2-6.5-132.1-0.7c-31.6,4.6-92.8,24-118.1-0.9
			c2.2-41.8,62.5-21.7,75.6-51.8c12.9-29.6-45.2-27.8-65.4-27.8C123.8,82.2,56.1,89.7,0,103v48.4c32.8-11.2,116.3-34,127.7-18.4
			s-68.8,71-56.8,88.2c10.3,14.8,67.8-0.5,83.1-2.6c57.6-8,118.8-16.7,177.6-13.5C310.4,251.8,377.9,237.4,402,232.5z"/>
		<path class="st2" d="M361.7,25.6c-8.7-15.2-31.4-16.1-46-16.8c-43.4-2-85.3,3.1-127.5,7c-38.9,3.7-77.6,9.6-116.9,11.6
			C59,28,25.8,25.8,0,20.1v54.3c25.4,1,54.5-5.4,80.7-2.8c45.4,4.5,82.5,55.3,120.9,79.6c63.2,40,152.5,24.6,212.4-14.4
			c57-37.1,124.1-54,189.6-36.6v-44c-30.9-4.8-72.3,1.5-97.1,3.7c-41.3,3.5-83.4,16.2-123.3,2.3C354.3,52.2,373.4,45.8,361.7,25.6z
			 M373.9,90.2c33,3.2,66-6.8,99.4-7c-33.8,7.7-63.7,35.5-94.2,51.8c-34,18.2-66.2,21.2-105.2,13.9c-38.2-7.2-67.2-17.7-95.3-44.6
			C130.4,58.3,41.1,40.9,41.1,40.9c33.9,4.5,77.3,9.5,176.9-4.2c24.2-3.3,67.8-17.1,90.3,0.5c10.1,7.9,11.7,23,20.8,32.6
			C341.4,82.8,355.5,88.4,373.9,90.2z"/>
		<path class="st2" d="M277.7,49.7c-22.8-9.7-59.7-0.5-83.3,3c-12.6,1.9-25.9,3.9-38.8,5c-17,1.4-22.4-4.2-34.1-3.1
			c-2.8,4,12.3,11.5,17.4,13.6c26.2,10.7,44.5,1.8,61.3,19.4c17,17.8,27.6,35.1,53.7,42.4c26.9,7.5,52.9,10.9,81.3,5
			c13-2.7,54.8-13,51.3-32c-21.8-8.4-49.6-0.7-71.4-7.6c-8.3-2.7-25.2-10.8-28.8-19.3C280.3,61.7,296.2,57.6,277.7,49.7z
			 M297.4,97.1c6.9,2.7,21.5,8.5,11.6,17.1c-6.2,5.3-20.3,0.3-27.4-2.5c-10.7-4.2-21.3-9.3-27.4-19.3c-5.3-8.7-7.9-14-18.7-16.5
			c-8.2-1.9-53.9-1.2-53-11.9l0.5-0.5c13.9-3,29-5.5,43.2-7.5c9.4-1.3,24.6-4,32.1,3.6c6.1,6.1,1.7,15.5,7.9,22.2
			C274.1,90.1,287.1,93,297.4,97.1z"/>
		<path class="st3" d="M408.7,34.4c1.9,10.8,12.3,11.9,22.1,12.8c21.4,1.9,43.9-5.9,64.9-9c25.7-3.9,53.9-1.7,79.4,1.2
			c8.5,1,18.8,2.2,28.4,4.9V26.9c-28.1-1.3-51.4-15.2-111.1-3c-15.6,3.2-42.1,14.8-58.2,8.1c-11-4.6-3.1-14.8-10.4-23.3
			c-3.4-4-9.7-6.7-16.5-8.7h-12.4c5.7,2.7,10.2,5.6,12.7,8.5C415.2,17.4,407.1,24.6,408.7,34.4z"/>
		<path class="st4" d="M122.1,186.8c13.5,20.9,34,23.5,61.6,27.7c64.3,9.8,120.1,10.5,178,1.4c66.5-10.5,134.9-51.9,158-60.5
			c18.2-6.8,38.9-11.6,58.1-11.6c14,0,20.5,2.9,25.8,5.7v-43.1c-2.8-0.5-5.3-0.9-7.4-1.2c-21.1-3-40-4.4-70.4,3.5
			c-19.9,5.2-87.6,49.4-103.3,56.1c-114.8,48.9-235.1,31-263.4,16.3c-24.7-12.8,25.3-49.4,9.9-66.3c-19.5-21.5-79-7.8-105.3-7
			c-7.1,0.2-45.5,8.6-63.7,14.6v9.3c14.3-4.5,46.5-10.4,60-11.1c19.8-1,67.7-8.4,85.5-1.2C162.4,126.2,112.3,171.5,122.1,186.8z"/>
		<path class="st4" d="M40.2,194.5c-11.2,8-26,19.6-40.2,23.6v18.2c1.7-1.1,3.4-2.3,5.1-3.4c17.9-11.6,35.2-24.4,52.7-36.7
			c13.8-9.6,38.8-24.5,45.1-41.3c10.4-27.8-32.1-14.3-45.2-10.5c-16.5,4.7-31.8,13.2-47.3,20c-2.6,1.1-6.3,2.3-10.3,3.6v18.2
			c4.9-2.7,9.8-5.6,14.6-7.8c14.3-6.7,48.3-26.5,63.9-18.4C75.6,174.9,51.7,186.4,40.2,194.5z"/>
	</g>
	<path class="st5" d="M391.3,159.6c-28.6,8-124.7,8.5-150-4.5c-28.5-14.6-52.4-39.6-87.3-36.5c-49.4,4.3-73.1,36.2-94.6,20.3
		C48,130.5,18.9,90.7,0,86.8v213h603.6V142c-15.7,1.3-31.4-0.6-46.4-5.5c-31.6-10-47.5-29.6-82.4-21
		C447.3,122.3,418.2,152.1,391.3,159.6z"/>
	<g class="st6">
		<path class="st7" d="M140,120.6c11.8,15.9,40.6,18.8,58.3,8.7c-13.4-7.2-27.6-12.2-44.3-10.7C149.3,119,144.7,119.7,140,120.6z"/>
		<path class="st7" d="M133.9,122c-3.4,0.9-6.7,1.9-9.9,2.9c17.6,30.1,61.9,33.1,88,12.5c-2.6-1.6-5.2-3.2-7.8-4.8
			C183.6,147,147.6,143.1,133.9,122z"/>
		<path class="st7" d="M19.7,98.8C12.7,92.7,5.9,88,0,86.8v16.4C6.9,103.7,13.7,102.2,19.7,98.8z"/>
		<path class="st7" d="M0,109.2v16.6c11.9-3.1,22.6-8.4,28.3-18.9c-1.4-1.3-2.7-2.7-4.1-4C16.8,107.3,8.8,109.9,0,109.2z"/>
		<path class="st7" d="M459.6,121.3c15.2,3.2,31.1,1,44.8-6.4c-8.6-1.9-18.1-2.2-29.6,0.7C469.5,116.9,464.5,118.8,459.6,121.3z"/>
		<path class="st7" d="M451.9,125.4c-5.4,3.1-10.8,6.5-16.2,10.1c16.2,8.4,35.1,10.8,53.2,12.1c20.8,1.5,41.6,2.8,62.4,3.3
			c17.4,0.4,34.9,0.5,52.4-0.1V142c-15.7,1.3-31.4-0.6-46.4-5.5c-17.8-5.7-30.7-14.4-44.8-19.3C494.7,128.3,472.8,131.9,451.9,125.4
			z"/>
		<path class="st7" d="M241.3,155.1c-8.3-4.2-16.1-9.3-24-14.4c-29,24.2-79.8,21.3-99-13.8c-26.7,10-43.3,23.4-58.9,11.9
			c-5.7-4.2-15.8-16.2-26.8-27.6c-7.1,11.6-19.3,17.1-32.7,20.4v168.2h603.6V156.8c-21.5,0.8-43.1,0.5-64.4-0.4
			c-34.6-1.4-77.7,0.8-109.1-17.3c-13.1,8.6-26.2,17-38.7,20.5C362.7,167.7,266.7,168.1,241.3,155.1z"/>
	</g>
	<path class="st8" d="M441.3,164.4c-10.4-1.3-16.9-10.9-23.4-18.2c-4.1-4.6-8.9-11-15.2-12.5c-5.6-1.3-13.8-1-18.2,2.9
		c-2.8,2.5-5.9,4.7-9.9,3.4c-3.4-1.1-4.7-4-6.3-7.1c-5.8-11.3-11.9-21.9-21.6-30.5c-10.2-9-22.5-12.9-35.8-8.9
		c-16.1,4.8-31.3,15.1-45.4,23.8c-14.5,9-28.9,18.4-42.6,28.6c-10.2,7.6-21.8,14.5-34,18.3c-9.9,3-18.9,2.1-27.6-3.6
		c-20.3-13.2-31.6-35.7-48-52.9C75,67.5,30.1,118.6,0,147.4v152.5h603.6V114.8c-13.8-10.5-28.9-17.7-45.8-13.1
		c-15.3,4.2-30.7,12.4-43.7,21.5c-12.2,8.6-23.4,18.4-35.8,26.6C468.4,156.4,453.9,166,441.3,164.4z"/>
	<g class="st9">
		<path class="st1" d="M402.7,133.6c-5.6-1.3-13.8-1-18.2,2.9c-2.8,2.5-5.9,4.7-9.9,3.4c-1.3-0.4-2.5-1.2-3.4-2.3
			c-3.8,1.2-7.8,1.9-11.8,2.2c-31.9,2.1-55.7-24-86.2-27.4c-2.6,1.6-5.2,3.2-7.7,4.8c-2.5,1.6-5,3.1-7.5,4.7
			c8.4,2.2,16.5,5.3,24.3,9.2c12.2,6.1,24,13.8,37,18.2c31.1,10.5,67.5,8,99.1,1c0.9-0.2,1.8-0.4,2.7-0.6c-1.1-1.2-2.1-2.5-3.2-3.6
			C413.8,141.6,409,135.1,402.7,133.6z"/>
		<path class="st1" d="M312,99.4c-2.4-0.8-5.5-2-8.8-3.2c-5.7,2.4-11.3,5.1-16.7,8.2c5,1.2,10,2.8,14.8,4.8
			c13.3,5.4,25.7,15,39.5,18.8c8.2,2.3,16.8,2.4,25,0.3c-3.4-6.6-7.5-12.9-12.2-18.7c-2.8-0.1-5.6-0.4-8.4-1
			C334,106.5,323,102.9,312,99.4z"/>
		<path class="st1" d="M508.4,128.7c30.3-3.2,57.7,3.3,86.7,11.2c2.9,0.8,5.7,1.5,8.6,2.3v-12.7c-2.8-0.4-5.7-1-8.5-1.7
			c-12.9-3.2-25.9-8.3-39.3-8.9c-14.3-0.7-28.1,1.8-42,4.6c-2.6,1.8-5.1,3.7-7.6,5.6C507,128.9,507.7,128.8,508.4,128.7z"/>
		<path class="st1" d="M140.5,145.2c-22.4,3.8-46,7.3-68.5,2.1c-17.2-3.8-32.7-13.1-44.2-26.4C17.7,129.9,8.3,139.5,0,147.4v7.7
			c20-5.2,41.1,3.3,61.5,6.6c31.8,5.2,60.6,0,91.3-7.5c-3.4-2.9-6.5-6.1-9.5-9.4C142.4,144.9,141.4,145.1,140.5,145.2z"/>
		<path class="st1" d="M94.4,111.4c-9.3-2.4-19.5-7.4-24.6-15.9c-0.1-0.2-0.2-0.5-0.4-0.7c-9.6,2.8-19.2,8.4-28.4,15.3
			c22.9,25.3,56.9,24.5,90,19.4c-4.7-6.2-9.4-12.5-14.5-18.2C109.3,113.3,101.6,113.4,94.4,111.4z"/>
	</g>
	<g>
		<path class="st10" d="M333.8,260.9c-4.1,0.6-8.2,1-12.3,1.2c-16.7,2.5-33.6,2.9-50.4,1.7c-22-1.5-43.4-5.6-64.9-7.4
			c-16.4,1.1-32.7,3.2-49,5.3c-29.2,3.8-58.9,8.9-88.4,7.7c-12.7-0.5-25.7-1.4-37.8-5.5c-9.6-3.2-19.1-7.1-29-8.6
			c-1.4,0.1-2.8,0.3-4.2,0.6v61.5h608.2v-46.3c-34.3,8.2-72.3,1.9-106.3-3.2c-26.1-4-51.6-11.3-77.7-14.8
			C391.7,249,363.5,256.4,333.8,260.9z"/>
		<rect y="273.1" class="st11" width="603.6" height="49.8"/>
		<path class="st12" d="M603.1,299c0.2,0,0.3,0,0.5,0.1v-25.9H0v49.8h9.8c0.2-2.7,2.5-4.9,5.2-4.8c2.7-0.1,5.1,2,5.2,4.8h16.7
			c-0.1-2.9,2.1-5.4,5-5.5c2.9-0.1,5.4,2.1,5.5,5c0,0.2,0,0.3,0,0.5h26.9c-0.6-0.9-0.9-1.9-0.9-3c0-3,2.5-5.4,5.5-5.5h0.7
			c3,0,5.4,2.5,5.5,5.5c0,1.1-0.3,2.1-0.9,3h41.6c-2.5-1.7-3.1-5.1-1.4-7.6c1-1.5,2.7-2.4,4.5-2.4h0.7c3,0,5.4,2.4,5.5,5.4
			c0,1.8-0.9,3.5-2.4,4.5h29c-1-1-1.5-2.3-1.5-3.7c0-3,2.5-5.4,5.5-5.5h0.7c3,0,5.4,2.5,5.5,5.5c0,1.4-0.6,2.7-1.5,3.7H186
			c-1-1-1.5-2.3-1.5-3.7c0-3,2.5-5.4,5.5-5.5h0.7c3,0,5.4,2.5,5.5,5.5c0,1.4-0.6,2.7-1.5,3.7h31.3c-2.3-0.7-3.9-2.8-3.9-5.2v-0.7
			c0-3,2.5-5.5,5.5-5.5c3,0,5.4,2.4,5.5,5.5v0.7c0,2.4-1.6,4.5-3.9,5.2h14.4c-1-1-1.5-2.3-1.5-3.7v-0.7c0-3,2.4-5.5,5.4-5.5
			s5.5,2.4,5.5,5.4c0,0,0,0,0,0v0.7c0,1.4-0.5,2.7-1.5,3.7H272c-1-1-1.5-2.3-1.5-3.7v-0.7c0-3,2.5-5.5,5.5-5.5c3,0,5.4,2.4,5.5,5.5
			v0.7c0,1.4-0.6,2.7-1.5,3.7H320c-1.9-3.2-0.4-8.4,4.5-8.4s6.4,5.2,4.5,8.4h14.6c-0.2-0.5-0.2-1-0.2-1.5v-0.7c0-3,2.4-5.5,5.5-5.5
			s5.5,2.4,5.5,5.5l0,0v0.7c0,0.5-0.1,1-0.2,1.5h47.6c-0.6-0.9-0.9-1.9-0.9-3c0-3,2.5-5.4,5.5-5.5h0.7c3,0,5.4,2.5,5.5,5.5
			c0,1.1-0.3,2.1-0.9,3h27c-0.4-3,1.4-6.2,5.2-6.2c3.9,0,5.6,3.3,5.2,6.2h16.8c-1.9-3.2-0.4-8.4,4.5-8.4c4.9,0,6.4,5.2,4.5,8.4h25
			c-0.8-3.1,0.9-7,5.1-7c4.2,0,5.9,3.9,5.1,7h8.1c-1.9-3.2-0.4-8.4,4.5-8.4c4.9,0,6.4,5.2,4.5,8.4h45.3c-1.5-1-2.3-2.7-2.4-4.5
			c0.4-3.3,2.9-5.8,6.2-6.2c3,0,5.4,2.5,5.5,5.5c0.1,1.7-0.5,3.3-1.7,4.5c-0.3,0.3-0.6,0.5-0.9,0.7h16.3c-0.2-0.6-0.4-1.3-0.4-2
			v-0.3c0-5.1,5.7-6.5,8.9-4.2v-5.8c-0.2,0-0.3,0.1-0.5,0.1c-3,0-5.4-2.5-5.5-5.5v-0.7C597.7,301.4,600.1,299,603.1,299z M9.8,315
			c-7,0-7-10.9,0-10.9C16.9,304.1,16.9,315,9.8,315z M33.7,314c0,3-2.4,5.5-5.5,5.5s-5.5-2.4-5.5-5.5v-0.7c0-3,2.4-5.5,5.5-5.5
			s5.5,2.4,5.5,5.5V314z M41.5,311.3c-7,0-7-10.9,0-10.9C48.5,300.4,48.5,311.3,41.5,311.3z M56.2,320.2c-7,0-7-10.9,0-10.9
			C63.2,309.3,63.2,320.2,56.2,320.2z M72.3,311.3c-7,0-7-10.9,0-10.9C79.4,300.4,79.4,311.3,72.3,311.3z M95.4,308.8
			c0,3-2.4,5.5-5.5,5.5s-5.5-2.4-5.5-5.5v-0.7c0-3,2.4-5.5,5.5-5.5s5.5,2.4,5.5,5.5V308.8z M106.1,322.4c-7,0-7-10.9,0-10.9
			C113.2,311.5,113.2,322.4,106.1,322.4z M117.9,312.1c-7,0-7-10.9,0-10.9C124.9,301.2,124.9,312.1,117.9,312.1z M134.1,309.9
			c-7,0-7-10.9,0-10.9C141.1,299,141.1,309.9,134.1,309.9z M146.6,320.9c-7,0-7-10.9,0-10.9S153.6,320.9,146.6,320.9L146.6,320.9z
			 M157.6,310.6h-0.7c-3,0-5.5-2.4-5.5-5.5c0-3,2.4-5.5,5.5-5.5l0,0h0.7c3,0,5.5,2.4,5.5,5.5C163.1,308.2,160.6,310.6,157.6,310.6z
			 M176.7,315H176c-3,0-5.5-2.4-5.5-5.5s2.4-5.5,5.5-5.5h0.7c3,0,5.5,2.4,5.5,5.5S179.7,315,176.7,315z M199.8,305.9
			c0,3-2.5,5.5-5.5,5.4c-3,0-5.4-2.4-5.4-5.4v-0.7c0-3,2.4-5.5,5.4-5.5c3,0,5.5,2.4,5.5,5.4c0,0,0,0,0,0V305.9z M209.8,320.9
			c-7,0-7-10.9,0-10.9C216.8,310,216.8,320.9,209.8,320.9L209.8,320.9z M216.4,307.7h-0.7c-3,0-5.5-2.4-5.5-5.4c0-3,2.4-5.5,5.4-5.5
			c0,0,0,0,0,0h0.7c3,0,5.5,2.4,5.5,5.5S219.4,307.7,216.4,307.7L216.4,307.7L216.4,307.7z M237,310.6c-7,0-7-10.9,0-10.9
			C244,299.7,244,310.6,237,310.6L237,310.6z M262.7,315c-1.1,0-2.3-0.3-3.2-0.9c-0.9-0.5-1.6-1.3-2.1-2.2c-0.5-1-0.8-2-0.8-3.1
			c-0.3-3,2.7-5.5,5.5-5.5c1.4,0,2.8,0.6,3.9,1.6c0.2,0.2,0.3,0.3,0.4,0.5c1.2,1,1.9,2.5,1.9,4.1C268.2,312.6,265.7,315,262.7,315z
			 M287.7,313.5c-7,0-7-10.9,0-10.9C294.8,302.6,294.8,313.5,287.7,313.5L287.7,313.5z M302.4,320.9c-7,0-7-10.9,0-10.9
			C309.5,310,309.5,320.9,302.4,320.9z M317.9,312.1h-0.7c-3,0-5.5-2.4-5.5-5.4c0-3,2.4-5.5,5.4-5.5c0,0,0,0,0,0h0.7
			c3,0,5.5,2.4,5.5,5.4C323.4,309.6,320.9,312.1,317.9,312.1C317.9,312.1,317.9,312.1,317.9,312.1z M335.5,314.3c-7,0-7-10.9,0-10.9
			S342.6,314.3,335.5,314.3L335.5,314.3z M353.2,310.6c-7,0-7-10.9,0-10.9C360.2,299.7,360.2,310.6,353.2,310.6L353.2,310.6z
			 M366.4,322.4c-7,0-7-10.9,0-10.9C373.4,311.5,373.4,322.4,366.4,322.4L366.4,322.4z M375.2,309.9c-7,0-7-10.9,0-10.9
			S382.3,309.9,375.2,309.9L375.2,309.9z M385.5,321.6c-7,0-7-10.9,0-10.9S392.6,321.6,385.5,321.6L385.5,321.6z M398,312.8
			c-7,0-7-10.9,0-10.9C405.1,301.9,405.1,312.8,398,312.8L398,312.8z M417.9,312.1c-7,0-7-10.9,0-10.9
			C424.9,301.2,424.9,312.1,417.9,312.1L417.9,312.1z M428.9,320.2c-7,0-7-10.9,0-10.9C435.9,309.3,435.9,320.2,428.9,320.2
			L428.9,320.2z M443,309c-0.3,0.2-0.5,0.5-0.7,0.7c-2.1,2.1-5.6,2.1-7.7,0s-2.1-5.6,0-7.7c0.2-0.2,0.5-0.5,0.7-0.7
			c2.1-2.1,5.6-2.1,7.7,0C445.2,303.4,445.2,306.9,443,309L443,309z M456.1,315.8c-7,0-7-10.9,0-10.9
			C463.1,304.8,463.1,315.8,456.1,315.8L456.1,315.8z M476.9,308.3c-1.1,1.1-2.6,1.6-4.1,1.5c-0.2,0-0.3,0-0.5,0
			c-3,0-5.4-2.5-5.5-5.5c-0.1-2.6,1.6-5,4.1-5.8c2.3-0.6,4.3,0.4,6,2C478.9,302.7,478.9,306.1,476.9,308.3L476.9,308.3z
			 M489.2,318.7h-0.7c-3,0-5.5-2.4-5.5-5.4c0-3,2.4-5.5,5.4-5.5c0,0,0,0,0,0h0.7c3,0,5.5,2.5,5.4,5.5
			C494.6,316.3,492.2,318.7,489.2,318.7z M509,312.1c-7,0-7-10.9,0-10.9C516.1,301.2,516.1,312.1,509,312.1L509,312.1z M528.9,310.6
			c-7,0-7-10.9,0-10.9C535.9,299.7,535.9,310.6,528.9,310.6L528.9,310.6z M541.4,321.6c-7,0-7-10.9,0-10.9S548.4,321.6,541.4,321.6
			L541.4,321.6z M558.3,318.7c-7,0-7-10.9,0-10.9C565.3,307.8,565.3,318.7,558.3,318.7z M569.3,307.7c-3.2,0.2-6-2.2-6.2-5.4
			c0-0.3,0-0.5,0-0.8c0-3,2.5-5.4,5.5-5.5c3.3,0.4,5.8,2.9,6.2,6.2C574.7,305.2,572.3,307.6,569.3,307.7z M587.7,316.5
			c-7,0-7-10.9,0-10.9C594.7,305.6,594.7,316.5,587.7,316.5L587.7,316.5z"/>
		<g class="st13">
			<path class="st14" d="M12.8,322.8h8.4c0.9-16.6,2.7-33.2,3.5-49.8H1.7c2.8,15.4,7.9,30.3,10.4,45.8
				C12.4,320.2,12.6,321.5,12.8,322.8z"/>
			<path class="st14" d="M31.8,322.8h8.2c0.3-16.6,0.6-33.2-0.8-49.8h-3.7C34.8,289.6,32.8,306.2,31.8,322.8z"/>
			<path class="st14" d="M54.5,322.8c0,0,0-0.1,0-0.1c1.7-8.1,3.5-16.3,5.2-24.4c1.8-8.2,4-16.7,4.3-25.2H50.1
				c1.4,16.6,1.2,33.2,0.8,49.8L54.5,322.8z"/>
			<path class="st14" d="M81.5,273.1h-6.7c-0.2,15.1-4.9,30.5-8.1,44.9c-0.4,1.6-0.7,3.3-1.1,4.9h15.8
				C81,306.3,82.5,289.5,81.5,273.1z"/>
			<path class="st14" d="M92.3,322.8h8.8c4.1-16.7,7.6-33.5,13-49.8H92.4C93.3,289.5,91.7,306.3,92.3,322.8z"/>
			<path class="st14" d="M112.3,322.8h14.4c0.4-16.6,1.5-33.3-0.4-49.8h-0.8C119.9,289.3,116.3,306.1,112.3,322.8z"/>
			<path class="st14" d="M146,322.8c0.7-3.3,1.6-6.5,2.2-9.5c2.9-13.2,4.6-26.8,6.4-40.3h-13.9c3.3,16.4,3.9,33.1,4.3,49.8H146z"/>
			<path class="st14" d="M157.1,322.8h6.9c0.3-5.9,1.3-11.9,2.1-17c1.6-10.9,4.1-21.8,5.6-32.8h-6.1c-1.9,13.8-3.4,27.8-6.4,41.3
				C158.6,317,157.8,319.9,157.1,322.8z"/>
			<path class="st14" d="M177.9,300.4c-1,5.9-3.1,14.6-3.4,22.5h19.6c-1.2-16.7-3.9-33.2-6.5-49.8h-5.1
				C181.3,282.2,179.4,291.3,177.9,300.4z"/>
			<path class="st14" d="M198.6,273.1c2.6,16.5,5.3,33.1,6.4,49.8h6.8c-1.9-16.4-0.1-33.2,0.8-49.8H198.6z"/>
			<path class="st14" d="M222.8,322.8h3.1c2.2-16.8,9.8-32.8,11.8-49.8h-14.2C222.5,289.6,220.6,306.5,222.8,322.8z"/>
			<path class="st14" d="M248.6,273.1c-2.1,16.7-10.4,33.1-12.3,49.8h15.4c-1.6-16.5-2.2-33.2-1.8-49.8H248.6z"/>
			<path class="st14" d="M262.6,322.8h5.1c2-16.6,4.4-33.2,6.3-49.8h-13.3C260.4,289.7,261,306.3,262.6,322.8z"/>
			<path class="st14" d="M285.1,322.8c0.8-16.6,5.4-33.1,5.3-49.8H285c-1.9,16.6-4.4,33.2-6.3,49.8H285.1z"/>
			<path class="st14" d="M301.3,273.1c0,16.6-5,33.2-5.6,49.8h15.4c-0.5-7.3-0.7-14.5-2.4-21.7c-2.2-9.4-5.3-18.5-6.3-28.1H301.3z"
				/>
			<path class="st14" d="M313.4,273.1c1.2,9.5,5,18.4,6.4,27.9c1.1,7.2,1.3,14.6,2,21.9h6.6c0.3-6.8,1.2-13.5,0.5-20.2
				c-1.1-9.8-1.5-19.7-1.7-29.6H313.4z"/>
			<path class="st14" d="M341.9,322.8c3.6-17.5,12.3-33.5,19.9-49.8h-23.6c0.3,9.9,1.2,19.7,1.6,29.6c0.3,6.7-0.4,13.5-0.6,20.2
				H341.9z"/>
			<path class="st14" d="M364.5,312.6c2.6-12.5,6.3-25.2,8.4-38c-7.4,15.7-16.2,31.4-19.9,48.2h9.3
				C363,319.3,363.8,315.9,364.5,312.6z"/>
			<path class="st14" d="M373.5,322.8h11c0.5-4.6,1.1-8.7,1.3-10.8c1.1-12.9,2-26.1,3.9-39H384c-1.8,11.1-4.9,22-7.1,33
				C375.8,311.7,374.5,317.2,373.5,322.8z"/>
			<path class="st14" d="M400.7,273.1c-1.8,11.1-2.6,22.5-3.6,33.7c-0.5,5.3-0.9,10.7-1.2,16.1h8c-0.7-5.1-1.1-10.2-1.2-15.3
				c-0.5-11.5-0.1-23,0.1-34.4L400.7,273.1z"/>
			<path class="st14" d="M413.4,301.3c0.1,5.7-0.3,14.3,1.1,21.5h3.4c1-7.6,4-15.8,5.1-19.8c2.7-10,5.4-20.1,8.8-30h-18
				C413.5,282.5,413.2,291.9,413.4,301.3z"/>
			<path class="st14" d="M443.3,273.1c-2.8,8-5.1,16.3-7.4,24.4c-2,7-4,14.1-5.4,21.3c-0.3,1.4-0.6,2.8-0.8,4.2h19.6
				c-0.1-6.8-0.2-13.6-0.3-20.4c-0.1-9.3-1.1-19.7-0.3-29.4H443.3z"/>
			<path class="st14" d="M481.7,273.1c-1.8,16.6-6,33.1-6.9,49.8h19.8c-0.1-3.3,0-6.4-0.2-8.7c-1-13.7-3.1-27.4-4.3-41.1H481.7z"/>
			<path class="st14" d="M506,322.8h9.5c1-4,2.2-8,3.1-11.4c3.4-12.7,6.2-25.6,9.3-38.4h-26.9c1.1,12.3,2.8,24.5,4,36.8
				C505.4,314.2,505.7,318.5,506,322.8z"/>
			<path class="st14" d="M539.2,273.1c-3.1,12.6-5.7,25.4-9.1,37.9c-0.9,3.4-2.4,7.5-3.6,11.9h11.8c1.9-16.8,6.2-33.4,10.5-49.8
				H539.2z"/>
			<path class="st14" d="M563.3,273.1h-3.2c-4.3,16.4-8.9,32.9-10.8,49.8h10.2c0.3-2.2,0.6-4.2,0.8-5.9
				C561.9,302.4,562.2,287.7,563.3,273.1z"/>
			<path class="st14" d="M592.2,322.8h2.8c0.7-9.3,1.2-18.6,1.6-27.7c0.3-7.3,0.5-14.9,2.1-22.1h-7.2c1.1,10.3,0.4,21.1,0.4,31.4
				C592,310.6,592,316.7,592.2,322.8z"/>
			<path class="st14" d="M580.6,273.1h-6.4c-1,13.5-1.2,27.1-2.7,40.6c-0.3,3.1-0.7,6.1-1,9.2h10.7c-0.1-3.7-0.1-7.4-0.2-11.1
				C581,299.3,582.5,285.5,580.6,273.1z"/>
			<path class="st14" d="M459.6,283.4c0,9.3,0.1,18.6,0.3,28c0.1,3.8,0.2,7.7,0.2,11.5h3.8c0.8-16.7,5-33.2,6.9-49.8h-11.1
				C459.5,276.6,459.6,280.1,459.6,283.4z"/>
		</g>
		<g class="st13">
			<path class="st15" d="M18.3,298c-1.5,0.6-3,1-4.6,1.1c0.2,1.6,0.4,3.2,0.6,4.8c0.8,6.2,2.1,12.6,2.5,18.9l0,0h1.5
				c-0.3-7-0.1-14.1,0.1-21C18.3,300.6,18.3,299.3,18.3,298z"/>
			<path class="st15" d="M34.7,297.4c-1.4,5.9-0.6,12.4-0.6,18.5c0,2.3,0,4.6,0.1,7h1.8c-0.3-8.6-0.9-17.4,0.3-25.8
				C35.8,297.2,35.3,297.3,34.7,297.4z"/>
			<path class="st15" d="M52.8,322.8h1.5c0.6-8.3,1.6-16.5,2.6-24.8c-1.2,0-2.3,0-3.4-0.1c0,0.1,0,0.2,0,0.3
				C52.3,306.4,52.4,314.6,52.8,322.8z"/>
			<path class="st15" d="M69,322.8h3.6c0.8-8.7,2.2-17.3,4.2-25.8c-0.5-0.1-1-0.2-1.4-0.3c-2.6,6.1-2.9,12.7-4.5,19.3
				C70.3,318.3,69.7,320.6,69,322.8z"/>
			<path class="st15" d="M79.1,322.8h2.3c-0.1-5.5-0.1-11.1,0-16.7C80.4,311.7,79.6,317.3,79.1,322.8z"/>
			<path class="st15" d="M95.7,322.8c1.4-8.6,3.6-17.3,5.8-25.6c-0.8,0.1-1.6,0.2-2.4,0.4c-1.1,0.2-2.3,0.5-3.5,0.7
				c-0.3,4-0.2,22.1-0.2,24.5L95.7,322.8z"/>
			<path class="st15" d="M120.7,322.8c0.2-1.7,0.5-3.4,0.6-5.1c0.5-7.4,0.1-14.7,0.5-22c-0.6,0.1-1.2,0.1-1.8,0.2
				c-0.7,9-2,18-2.9,26.9L120.7,322.8z"/>
			<path class="st15" d="M146,322.8c0.7-3.3,1.6-6.5,2.2-9.5c1.2-5.4,2.2-10.9,3-16.4c-1.3,0.2-2.5,0.4-3.8,0.5
				c-0.5,8.5-1.2,16.9-2.3,25.3H146z"/>
			<path class="st15" d="M157.1,322.8h2.7c1-5.2,1.9-10.5,2.5-15.7c0.3-4.2,1.2-8.3,2.5-12.3c-0.7-0.1-1.3-0.2-2-0.4
				c-1,6.7-2.1,13.4-3.5,20C158.6,317,157.8,319.9,157.1,322.8z"/>
			<path class="st15" d="M192.5,322.8h1.6c-0.6-8-1.5-15.9-2.6-23.8c-0.2,0-0.4,0-0.6-0.1C191,306.9,192.1,314.9,192.5,322.8z"/>
			<path class="st15" d="M180.9,299.2c-0.3,0.2-0.6,0.3-0.9,0.4c-0.5,6.4,0.1,12.9-0.7,19.3c-0.2,1.4-0.4,2.7-0.6,4.1h4.8
				c0-0.2,0-0.5,0-0.7c-0.2-7.8-0.9-15.7-0.6-23.5C182.2,298.7,181.5,298.9,180.9,299.2z"/>
			<path class="st15" d="M204.6,298.7c-0.7,0-1.4,0.1-2.1,0.3c1.1,7.9,2,15.9,2.5,23.9h1c-0.4-3.1-0.7-6.2-0.8-9.4
				c-0.1-2,0-3.9,0.1-5.9C204.9,304.7,204.7,301.7,204.6,298.7z"/>
			<path class="st15" d="M225.9,322.8c1-8.1,3.4-16,5.7-23.9c-1.7-0.3-3.3-0.6-5-0.8c-0.6,8.1-1.8,16.4-2.4,24.6H225.9z"/>
			<path class="st15" d="M249.5,322.8h2.2c-0.7-7.4-1.2-14.7-1.5-22.1c-1.2,6,0.2,11.9-0.3,18.1
				C249.8,320.2,249.6,321.5,249.5,322.8z"/>
			<path class="st15" d="M240.6,312.9c0-4.1,0.3-8.2,1-12.3c-2.3,7.4-4.4,14.8-5.2,22.2h3C240,319.6,240.5,316.3,240.6,312.9z"/>
			<path class="st15" d="M261.4,295c-0.2,0-0.3,0-0.5,0c0.3,9.3,0.8,18.6,1.7,27.8h1c0.2-2.6,0.3-5.1,0.3-7.5
				c-0.1-6.8-0.8-13.5,0-20.2C263.1,295.1,262.2,295.1,261.4,295z"/>
			<path class="st15" d="M280.5,322.8c0.1-0.3,0.1-0.6,0.2-0.9c1.4-7.4,0.3-17,2.8-24.4c-0.5-0.1-1-0.2-1.6-0.4
				c-1.1,8.6-2.3,17.1-3.3,25.7H280.5z"/>
			<path class="st15" d="M305,297C305,297,304.9,297.1,305,297c-0.6,7.4-1.7,14.7-3.3,21.9c-0.3,1.3-0.7,2.6-1,3.9h4.6
				c0.1-1.2,0.1-2.3,0.2-3.5c0.4-5.2,0.4-10.3,0.3-15.5c-0.1-2.3-0.2-4.6-0.1-6.9C305.4,297,305.2,297,305,297z"/>
			<path class="st15" d="M319.1,297.4c0.2,1.2,0.5,2.4,0.7,3.6c1.1,7.2,1.3,14.6,2,21.9h2.5c-0.1-4.6-0.2-9.2-0.7-13.8
				c-0.4-3.8-0.9-7.7-1.2-11.6C321.4,297.5,320.2,297.5,319.1,297.4z"/>
			<path class="st15" d="M339.5,322.8c0.5-3.5,1.1-6.9,1.6-10.1c0.9-5.5,1.3-11.1,1.9-16.6c-1.2,0.1-2.4,0.1-3.6,0.2
				c0.1,2.1,0.2,4.2,0.4,6.3c0.3,6.7-0.4,13.5-0.6,20.2L339.5,322.8z"/>
			<path class="st15" d="M362.3,322.8c0.7-3.5,1.5-7,2.2-10.2c1.2-5.6,2.6-11.3,3.9-17c-1,0-1.9,0-2.9-0.1
				c-3.1,8.9-4.3,18.2-6.2,27.3H362.3z"/>
			<path class="st15" d="M377.5,316.1c-0.3,2.3-0.7,4.5-1,6.8h3.8c0-0.8,0.1-1.6,0.1-2.4c0-8.3,0.7-16.6,2.1-24.8
				c-0.4,0-0.9,0-1.3,0c-0.2,0-0.4,0-0.5,0C379.8,302.5,378.5,309.3,377.5,316.1z"/>
			<path class="st15" d="M398.1,295.6c-0.3,3.7-0.6,7.4-1,11.1c-0.5,5.3-0.9,10.7-1.2,16.1h3.9c-1.2-9-1.4-18.1-0.6-27.2
				C398.8,295.7,398.4,295.7,398.1,295.6z"/>
			<path class="st15" d="M417.8,295.8c-0.2,0-0.5,0-0.8,0c-1.2,0-2.4,0-3.6,0c0,1.8,0,3.6,0.1,5.4c0.1,5.7-0.3,14.3,1.1,21.5h1.6
				c0-6.3,0-12.5,0.4-18.8C416.8,301.3,417.2,298.6,417.8,295.8z"/>
			<path class="st15" d="M430.4,318.7c-0.3,1.4-0.6,2.8-0.8,4.2h5.2c0.3-2.3,0.6-4.6,0.8-6.9c0.5-6.5,0.6-13,1.7-19.4
				c-0.4,0-0.8,0-1.1,0c-0.1,0.3-0.2,0.6-0.3,0.9C433.8,304.5,431.9,311.5,430.4,318.7z"/>
			<path class="st15" d="M483.2,322.8h5.8c0-8.6,0.1-17.2-0.1-25.8c-1.5-0.1-3-0.2-4.5-0.4C483.6,305.3,483.5,314.1,483.2,322.8z"/>
			<path class="st15" d="M510,322.8c0.5-2.2,0.9-4.4,1.4-6.6c1.2-6.6,3-13.2,5.3-19.5c-1.4-0.1-2.8-0.1-4.3-0.2
				c-0.5,8.8-1.7,17.6-3.4,26.3L510,322.8z"/>
			<path class="st15" d="M538.9,299c-0.3,0-0.7,0-1,0c-1.6,7.1-3.3,14.1-5.1,21.1c-0.2,0.8-0.4,1.7-0.6,2.8h2.9
				c0.1-2.2,0.2-4.3,0.5-6.2C536.3,310.7,537.4,304.8,538.9,299z"/>
			<path class="st15" d="M553.9,297.6c-2,8.3-3.5,16.8-4.6,25.3h1.7c1.6-8.5,3.6-17.1,5.6-25.4C555.7,297.5,554.8,297.5,553.9,297.6
				z"/>
			<path class="st15" d="M594.8,297.2c-0.9,0.4-1.9,0.7-2.9,1c0,2.1-0.1,4.2-0.1,6.3c0,6.1,0,12.3,0.2,18.4h1.8
				C594.3,314.3,594,305.7,594.8,297.2z"/>
			<path class="st15" d="M577.6,298.2c-0.6,8.1-1.1,16.4-2.2,24.6h1.6c1.1-8.1,1.8-16.3,2.5-24.5
				C578.8,298.3,578.2,298.3,577.6,298.2z"/>
			<path class="st15" d="M462.8,296.1c-1,0-2.1,0-3.1-0.1c0.1,5.1,0.1,10.2,0.2,15.3c0.1,3.8,0.2,7.7,0.2,11.5h1.7
				c-0.3-3.2-0.5-6.4-0.5-9.6C461.5,307.5,462,301.8,462.8,296.1z"/>
		</g>
		<polygon class="st16" points="483.3,300 485.8,300 495.1,303.9 506.6,300 512.6,300 551.1,306.3 556.3,300 570.6,300 572.6,306.3 
			579.7,300 581.2,300 591.6,309.6 596.1,300 603.6,300 603.6,284.8 595.9,284.8 591.6,274.1 588,281.3 584.9,277.7 571.1,284.8 
			564.3,284.8 558.5,273.6 549.2,284.8 536.5,284.8 532.8,278.6 528.6,284.8 517.7,284.8 515.1,279.5 510.3,284.8 491.8,284.8 
			483.5,273.6 478.6,284.8 467.4,284.8 447.3,277.7 437.5,284.8 426.5,267.5 422.6,281.2 412.4,275.1 406.6,284.8 392,284.8 
			386.7,277.7 379.1,281.2 372.7,270.6 367.2,284.8 354.5,284.8 348.5,277.7 334.6,284.8 323.2,284.8 317.5,270.6 310.4,284.8 
			308.5,284.8 302.5,277.7 288.6,284.8 285,284.8 281.4,275.9 277,284.8 262.3,284.8 256.5,273.6 247.2,284.8 234.5,284.8 
			230.8,278.6 226.6,284.8 215.7,284.8 213.1,279.5 208.3,284.8 189.8,284.8 181.5,273.6 176.6,284.8 165.4,284.8 145.3,277.7 
			135.5,284.8 124.5,267.5 120.6,281.2 110.4,275.1 104.6,284.8 90,284.8 84.7,277.7 77.1,281.2 70.7,270.6 65.2,284.8 52.5,284.8 
			46.5,277.7 32.6,284.8 21.2,284.8 15.5,270.6 8.4,284.8 0,284.8 0,300 3.2,300 8.4,306.3 21.2,300 50.5,300 58,306.3 64.1,300 
			80.6,300 79.3,306.3 87.7,300 95.4,300 104.6,306.3 111.3,300 133.1,300 139.6,306.3 152.8,300 173.4,300 172.6,306.3 181.3,300 
			183.8,300 193.1,303.9 204.6,300 210.6,300 249.1,306.3 254.3,300 268.6,300 270.6,306.3 277.7,300 279.2,300 289.6,309.6 
			294.1,300 305.2,300 310.4,306.3 323.2,300 352.5,300 360,306.3 366.1,300 382.6,300 381.3,306.3 389.7,300 397.4,300 
			406.6,306.3 413.3,300 435.1,300 441.6,306.3 454.8,300 475.4,300 474.6,306.3 		"/>
		<path class="st17" d="M268.6,300l2,6.3l3.3-3c0-0.1,0-0.1,0-0.2c-3.1-5.4-2.4-12.6-0.4-18.5h-11.1l-5.8-11.2l-6.4,7.7
			c2.1,5.8,2.3,13.4-1.3,17.4c-2.7,3-7.7,2.6-10.5-0.1c-3.6-3.4-3.8-9.2-2.5-13.8h-1.4l-3.7-6.1l-4.2,6.1h-11l-2.6-5.3l-4.8,5.3
			h-0.9c2.6,3.8,1.8,9.1-2,11.8c-5.2,3.8-11.7,3.2-16.9-0.2c-4.4-2.9-8.4-8.8-1.5-11.6c0.8-0.4,1.8-0.3,2.6,0.2
			c0.1-0.1,0.1-0.2,0.2-0.3h-0.1l-8.2-11.2l-5,11.2h-11.1l-7-2.5c1.1,3.4,0.8,7-0.8,10.2c-2.9,5.1-8.2,8.4-14.1,8.6
			c-5.9,0.1-11-4.1-10.9-10.3c0.1-2.6,0.7-5.2,1.9-7.5l-10.1-15.8l-3.8,13.7l-10.2-6.1l-5.8,9.7h-0.4c0.1,1.1,0.1,2.1-0.1,3.2
			c-1.3,6.6-8.5,10-14.7,10.3c-7,0.3-11.7-4.4-10.3-11.5c0.6-2.9,1.7-5.6,3.4-8l-5.2,2.5l-6.4-10.6l-5.5,14.2H52.5l-1.4-1.7
			c2.1,6.1-6.1,13.8-12,14.1c-5.8,0.3-13.4-7-11.2-12.4h-6.7l-5.7-14.2l-7.1,14.2H0V300h3.2l0.3,0.4c5.7-7.7,21.2-5.9,28.3-1.9
			c0.6,0.3,1.1,0.9,1.4,1.5h17.4l0.1,0.1c0.5-2.4,1.6-4.6,3.3-6.4c1.4-3,3.5-5.5,6.9-6.1c4.7-0.8,9.9,0.2,12.1,5
			c1,2.4,1.7,4.9,1.9,7.5h5.7l-1.3,6.3l8.4-6.3h7.7l6.3,4.4c3.2-15.3,26.9-16,33-2.7l4.8,4.6l13.2-6.3h8.9c0.1,0,0.1-0.1,0.1-0.1
			c-0.8-3.6,1.2-7.2,4.6-8.6c3.7-1.4,8.3,1.3,8.4,5.4c0,1.8-0.6,3.5-1.7,5l-0.6,4.6l8.7-6.3h2.5l9.3,3.8l11.5-3.8h6.1l0.4,0.1
			c0.8-13.4,23.1-3.6,27,4.2c0,0.1,0.1,0.2,0.1,0.2l11,1.8l5.2-6.3h0.3c-0.5-3-0.7-6.3,1-9c2-3.1,6.4-3.6,9.3-1.7
			c3.3,2.1,4.3,6.8,3.4,10.7L268.6,300z"/>
		<path class="st17" d="M480.5,302.1c0.1-0.2,0.3-0.4,0.5-0.7c-5.9-3.6-8.4-10-8.7-16.7h-4.8l-10.4-3.7c1.2,4-0.2,9.1-1.9,12.5
			c-1.8,3.7-6.5,10.3-11.6,8.5c-5.3-1.8-6.1-8.5-6.1-13.3c0-1.4,0.1-2.8,0.3-4.2l-0.2,0.2l-11.1-17.2l-3.8,13.7l-2.8-1.7
			c1,3.8-0.1,8.1-1.6,11.7c-1.6,3.7-4,6.9-8.2,7.8c-3.3,0.7-6.5-1.1-7.6-4.3c-1-3.2-1.2-6.7-0.4-9.9H392l-5.3-7.1l-7.5,3.5
			l-6.4-10.6l-3.1,8.2c3.4,2.1,5.3,5.9,4.9,9.9c-0.4,5.9-5.7,10.2-11.2,11c-6,0.8-12.6-2.6-14-8.8c-0.9-3.5-0.2-7.2,1.9-10.1
			l-2.6-3.1l-13.8,7.1h-6c0.1,4.8-1.5,9.7-4.8,12.3c-5.2,4-11.5,3.4-15-2.4c-1.7-2.9-1.4-6.5-0.2-9.9h-0.1l-6-7.1l-13.8,7.1h-2.9
			c0.8,6.4,0.1,13.9-2.9,18.6l6.8,6.3l3.2-6.8c-1.5-5.2-1-11.4,5.2-12.1c4.2-0.5,7.2,3.9,7.8,7.6c0.1,0.9,0.2,1.7,0.1,2.6l4.5,5.4
			l12.8-6.3h5.6c-0.8-4,0.5-8.2,5-9.6c5.4-1.6,11.8,1.3,13.5,6.8c0.3,0.9,0.4,1.9,0.4,2.8h4.7l7.5,6.3l6-6.3h12.4
			c0.3-1.7,1-3.3,2-4.8c3.1-4.4,8.3-5.7,13.4-4.9c1.4,0.4,2.4,1.6,2.4,3.1c-0.3,2.3-0.9,4.5-1.9,6.6h3.1l9.1,6.3l6.7-6.3h5.7
			c-0.3-2,0.1-4.1,1.2-5.9c2.2-2.9,6.3-3.6,9.4-1.8c2.5,1.8,4,4.6,4,7.7h1.5l6.5,6.3l13.2-6.3h1.4c-0.2-2.1,0.2-4.2,1.3-6.1
			c2-2.8,5.8-3.5,8.6-1.7c2.3,1.7,3.3,4.7,3.2,7.8h6.1l-0.8,6.3L480.5,302.1z"/>
		<path class="st17" d="M509.5,297.3c-3.5-2.8-4.3-8.1-3-12.6h-8.9c-0.5,1.9-6.5,1.7-6.9,3.6c1.7,0,3.6,1.5,5.2,2.4
			c3.6,2,10.6,5.8,11.4,9.2h5.3l11.3,1.9c-0.2-2.1,0.1-4.2,0.9-6.1c1.7-3.2,6-2.2,8.1-0.1c2.1,2.3,3.3,5.2,3.4,8.3l6.2,1
			c-3.8-6-5.4-13.1-4.3-20.2h-1.7l-3.7-6.1l-4.2,6.1h-6.1c0.5,3.7,0.2,8.4-2.7,11.2C517,298.7,512.9,300,509.5,297.3z"/>
		<path class="st17" d="M571.1,284.8h-6.8l-5.8-11.2l-5.2,6.3c1.9,2.2,3,5,3.1,7.9c3.4-1.4,7.3-1.1,10.4,1
			c5.2,3.6,6.7,10.1,5.4,16.1l0.5,1.5l7.1-6.3h1.5l10.4,9.6l4.5-9.6h7.5v-15.3h-2.8c-0.1,5.6-2.8,11.3-7.5,13.7
			c-10.7,5.6-17.7-7-16.7-16.5L571.1,284.8z"/>
		<polygon class="st18" points="483.3,288.3 485.8,288.3 495.1,292.2 506.6,288.3 512.6,288.3 551.1,294.6 556.3,288.3 570.6,288.3 
			572.6,294.6 579.7,288.3 581.2,288.3 591.6,298 596.1,288.3 603.6,288.3 603.6,273.1 595.9,273.1 591.6,262.4 588,269.6 
			584.9,266 571.1,273.1 564.3,273.1 558.5,261.9 549.2,273.1 536.5,273.1 532.8,266.9 528.6,273.1 517.7,273.1 515.1,267.8 
			510.3,273.1 491.8,273.1 483.5,261.9 478.6,273.1 467.4,273.1 447.3,266 437.5,273.1 426.5,255.9 422.6,269.5 412.4,263.4 
			406.6,273.1 392,273.1 386.7,266 379.1,269.5 372.7,258.9 367.2,273.1 354.5,273.1 348.5,266 334.6,273.1 323.2,273.1 
			317.5,258.9 310.4,273.1 308.5,273.1 302.5,266 288.6,273.1 285,273.1 281.4,264.2 277,273.1 262.3,273.1 256.5,261.9 
			247.2,273.1 234.5,273.1 230.8,266.9 226.6,273.1 215.7,273.1 213.1,267.8 208.3,273.1 189.8,273.1 181.5,261.9 176.6,273.1 
			165.4,273.1 145.3,266 135.5,273.1 124.5,255.9 120.6,269.5 110.4,263.4 104.6,273.1 90,273.1 84.7,266 77.1,269.5 70.7,258.9 
			65.2,273.1 52.5,273.1 46.5,266 32.6,273.1 21.2,273.1 15.5,258.9 8.4,273.1 0,273.1 0,288.3 3.2,288.3 8.4,294.6 21.2,288.3 
			50.5,288.3 58,294.6 64.1,288.3 80.6,288.3 79.3,294.6 87.7,288.3 95.4,288.3 104.6,294.6 111.3,288.3 133.1,288.3 139.6,294.6 
			152.8,288.3 173.4,288.3 172.6,294.6 181.3,288.3 183.8,288.3 193.1,292.2 204.6,288.3 210.6,288.3 249.1,294.6 254.3,288.3 
			268.6,288.3 270.6,294.6 277.7,288.3 279.2,288.3 289.6,298 294.1,288.3 305.2,288.3 310.4,294.6 323.2,288.3 352.5,288.3 
			360,294.6 366.1,288.3 382.6,288.3 381.3,294.6 389.7,288.3 397.4,288.3 406.6,294.6 413.3,288.3 435.1,288.3 441.6,294.6 
			454.8,288.3 475.4,288.3 474.6,294.6 		"/>
		<polygon class="st19" points="525.9,287.4 518.5,286.5 514.7,270.8 510.7,285.5 505.6,284.8 506,273 500.6,283.9 495.1,278.8 
			493.7,283.3 493.1,283.2 483,273.2 485.4,282.2 475.9,281 454.6,281.9 453.1,279.2 447.4,281.2 447.4,273.4 442.7,282.4 
			435.2,282.8 431.9,267.5 428,283.1 424.9,283.2 426.3,275.5 416.2,281.3 411.1,275.4 409.1,281.5 397.6,275.4 405.1,284.1 
			390.3,284.7 389.4,284.6 387.1,270.7 384.6,284 378.5,283.1 376.3,279.2 370.6,281.2 370.6,273.3 366.1,282.2 351.9,283.4 
			347.6,270.6 346.4,282.7 339.5,279.8 339.7,284.6 339,284.6 326.2,278.8 330.8,285.4 320.7,286.3 316.9,269.1 312.5,286.6 
			303.1,282.9 300.1,278.6 294.6,281.2 293.9,273.4 290.1,283.1 283.1,283.9 281.2,272.2 278.9,284.3 265.6,285.8 266.5,278.6 
			256.8,284.9 251.4,279.2 249.6,285.4 237.9,279.9 245.6,287.9 241.6,288.4 231.1,287.3 228.8,273.3 226.3,286.8 215.3,285.8 
			214.1,272.8 210.1,284.4 204.1,279.9 203.2,284.5 202.4,284.5 191.4,275.9 194.5,283.7 171.6,281.4 166.4,281.6 164.4,278.8 
			158.9,281.4 158.1,273.6 154.8,282.1 148.9,282.4 150.2,275.1 140.2,281 135.1,275.1 133,281.2 121.6,275.2 128.5,283.2 
			115.9,283.7 113.5,269.1 110.7,284 98.6,284.5 96.3,281.1 90.8,283.7 90,275.9 86.5,285 85.8,285 69,282.9 69,270.3 64,281.4 
			58.4,276.5 56.9,281.4 46.1,271.3 48.8,280.4 47.3,280.2 40.7,281.4 41.8,275.1 31.8,281 26.7,275.1 24.7,281.2 13.2,275.2 
			21.5,284.8 9.2,286.9 0,278.8 0,288.3 3.2,288.3 8.4,294.6 21.2,288.3 50.5,288.3 58,294.6 64.1,288.3 80.6,288.3 79.3,294.6 
			87.7,288.3 95.4,288.3 104.6,294.6 111.3,288.3 133.1,288.3 139.6,294.6 152.8,288.3 173.4,288.3 172.6,294.6 181.3,288.3 
			183.8,288.3 193.1,292.2 204.6,288.3 210.6,288.3 249.1,294.6 254.3,288.3 268.6,288.3 270.6,294.6 277.7,288.3 279.2,288.3 
			289.6,298 294.1,288.3 305.2,288.3 310.4,294.6 323.2,288.3 352.5,288.3 360,294.6 366.1,288.3 382.6,288.3 381.3,294.6 
			389.7,288.3 397.4,288.3 406.6,294.6 413.3,288.3 435.1,288.3 441.6,294.6 454.8,288.3 475.4,288.3 474.6,294.6 483.3,288.3 
			485.8,288.3 495.1,292.2 506.6,288.3 512.6,288.3 551.1,294.6 556.3,288.3 570.6,288.3 572.6,294.6 579.7,288.3 581.2,288.3 
			591.6,298 596.1,288.3 603.6,288.3 603.6,285.1 591.9,284.5 594.2,277 583.6,281.8 579.1,275.3 576.4,281.2 565.7,273.9 
			572.4,283.5 558.9,282.9 556.7,269.1 554.1,282.6 547.5,282.3 537.6,286.6 536.2,284.1 530.5,286.2 530.6,278.3 		"/>
	</g>
</g>
</svg>
