<?xml version="1.0" encoding="utf-8"?>
<!-- Generator: Adobe Illustrator 26.2.1, SVG Export Plug-In . SVG Version: 6.00 Build 0)  -->
<!DOCTYPE svg PUBLIC "-//W3C//DTD SVG 1.1//EN" "http://www.w3.org/Graphics/SVG/1.1/DTD/svg11.dtd" [
	<!ENTITY ns_extend "http://ns.adobe.com/Extensibility/1.0/">
	<!ENTITY ns_ai "http://ns.adobe.com/AdobeIllustrator/10.0/">
	<!ENTITY ns_graphs "http://ns.adobe.com/Graphs/1.0/">
	<!ENTITY ns_vars "http://ns.adobe.com/Variables/1.0/">
	<!ENTITY ns_imrep "http://ns.adobe.com/ImageReplacement/1.0/">
	<!ENTITY ns_sfw "http://ns.adobe.com/SaveForWeb/1.0/">
	<!ENTITY ns_custom "http://ns.adobe.com/GenericCustomNamespace/1.0/">
	<!ENTITY ns_adobe_xpath "http://ns.adobe.com/XPath/1.0/">
]>
<svg version="1.1" id="Réteg_1" xmlns:x="&ns_extend;" xmlns:i="&ns_ai;" xmlns:graph="&ns_graphs;"
	 xmlns="http://www.w3.org/2000/svg" xmlns:xlink="http://www.w3.org/1999/xlink" x="0px" y="0px" viewBox="0 0 90.6 99"
	 style="enable-background:new 0 0 90.6 99;" xml:space="preserve">
<style type="text/css">
	.st0{fill-rule:evenodd;clip-rule:evenodd;fill:#51E5A1;}
	.st1{fill-rule:evenodd;clip-rule:evenodd;fill:#727270;}
	.st2{fill:#727270;}
</style>
<metadata>
	<sfw  xmlns="&ns_sfw;">
		<slices></slices>
		<sliceSourceBounds  bottomLeftOrigin="true" height="99" width="90.6" x="0" y="0"></sliceSourceBounds>
	</sfw>
</metadata>
<polygon class="st0" points="65.6,17 65.6,17 4.6,58.4 0,51.3 60.7,9.9 55.3,2.1 69.1,1 82.8,0 76.9,12.4 70.8,24.8 "/>
<polygon class="st0" points="74.4,32.2 74.4,32.2 74.4,99 90.6,99 90.6,32.2 "/>
<polygon class="st1" points="51.3,45.2 51.3,45.2 51.3,99 67.3,99 67.3,45.2 "/>
<polygon class="st1" points="28.2,59.3 28.2,59.3 44.1,59.3 44.1,99 28.2,99 "/>
<rect x="5" y="71" class="st2" width="16" height="28"/>
</svg>
