<?xml version="1.0" encoding="utf-8"?>
<!-- Generator: Adobe Illustrator 26.2.1, SVG Export Plug-In . SVG Version: 6.00 Build 0)  -->
<!DOCTYPE svg PUBLIC "-//W3C//DTD SVG 1.1//EN" "http://www.w3.org/Graphics/SVG/1.1/DTD/svg11.dtd" [
	<!ENTITY ns_extend "http://ns.adobe.com/Extensibility/1.0/">
	<!ENTITY ns_ai "http://ns.adobe.com/AdobeIllustrator/10.0/">
	<!ENTITY ns_graphs "http://ns.adobe.com/Graphs/1.0/">
	<!ENTITY ns_vars "http://ns.adobe.com/Variables/1.0/">
	<!ENTITY ns_imrep "http://ns.adobe.com/ImageReplacement/1.0/">
	<!ENTITY ns_sfw "http://ns.adobe.com/SaveForWeb/1.0/">
	<!ENTITY ns_custom "http://ns.adobe.com/GenericCustomNamespace/1.0/">
	<!ENTITY ns_adobe_xpath "http://ns.adobe.com/XPath/1.0/">
]>
<svg version="1.1" id="Layer_1" xmlns:x="&ns_extend;" xmlns:i="&ns_ai;" xmlns:graph="&ns_graphs;"
	 xmlns="http://www.w3.org/2000/svg" xmlns:xlink="http://www.w3.org/1999/xlink" x="0px" y="0px" viewBox="0 0 504 288"
	 style="enable-background:new 0 0 504 288;" xml:space="preserve">
<style type="text/css">
	
		.st0{clip-path:url(#SVGID_00000047777105489030467290000008588775426524469663_);fill:url(#SVGID_00000030464681705770283900000000732453150097103039_);}
	.st1{display:none;clip-path:url(#SVGID_00000147923626213568582490000014529855454789678522_);fill:#575757;}
	.st2{clip-path:url(#SVGID_00000025414890489378649560000017425954982534700182_);}
	.st3{fill:#FFFFFF;}
	.st4{clip-path:url(#SVGID_00000021817730812185836160000016043853810764242365_);}
	.st5{fill:#4F4F4F;}
	.st6{display:none;}
	.st7{display:inline;fill:#FFFFFF;}
	.st8{display:inline;fill:url(#SVGID_00000170977614129431716010000015813737358820875394_);}
	.st9{display:inline;fill:url(#SVGID_00000113329347597509324050000008922290300823925146_);}
	.st10{display:inline;fill:url(#SVGID_00000087405194273533632590000009668806027239438778_);}
	.st11{display:inline;fill:url(#SVGID_00000109732197669619220250000010328573230121256604_);}
	.st12{display:inline;}
</style>
<metadata>
	<sfw  xmlns="&ns_sfw;">
		<slices></slices>
		<sliceSourceBounds  bottomLeftOrigin="true" height="567.5" width="891.4" x="-34" y="-69.3"></sliceSourceBounds>
	</sfw>
</metadata>
<g>
	<g>
		<g>
			<g>
				<defs>
					<rect id="SVGID_1_" y="-38" width="504" height="288"/>
				</defs>
				<clipPath id="SVGID_00000173857195256223512430000012657114206859075766_">
					<use xlink:href="#SVGID_1_"  style="overflow:visible;"/>
				</clipPath>
				
					<linearGradient id="SVGID_00000181786235801938819960000007464176919920847014_" gradientUnits="userSpaceOnUse" x1="233.3707" y1="963.876" x2="498.6933" y2="694.0184" gradientTransform="matrix(1 0 0 1 0 -790)">
					<stop  offset="0" style="stop-color:#51E5A1"/>
					<stop  offset="0.405" style="stop-color:#17E7B7"/>
					<stop  offset="0.772" style="stop-color:#A1E5F5"/>
				</linearGradient>
				
					<path style="clip-path:url(#SVGID_00000173857195256223512430000012657114206859075766_);fill:url(#SVGID_00000181786235801938819960000007464176919920847014_);" d="
					M231.5-0.6c14,7.3,24.8,20.5,22.8,37.3c-2.4,19.8-15.1,25.8-20.7,31.8c-25.5,27.6-10.3,70.8,17.1,93.8
					c24.1,20.2,46.9,16.1,78.2,14.4c28.8-1.5,45.6,12.3,66.8,28.6c20.2,15.6,66.1,62.8,105.3,6.2c37.8-54.7,20.5-90,53.2-119.4
					c23.2-20.9,45.5-34.4,34.7-85C577.7-45,549.4-91.6,495.5-98.4c-63.7-8-65.7-22.7-94-65.2c-11.4-17-19.4-29.1-35-38
					c-23.2-13.1-48.7-11.2-69.9,5.1c-39.2,30.1-34,77.8-72.2,94.5c-8.2,3.6-24,8.5-38,15.2c-15.3,7.3-26.4,25.3-19.7,43.3
					C176.4-17.4,204.3-14.8,231.5-0.6z"/>
			</g>
		</g>
		<g>
			<g>
				<defs>
					<rect id="SVGID_00000165935214782684708460000006437963810185766792_" y="-38" width="504" height="288"/>
				</defs>
				<clipPath id="SVGID_00000065773895344870906390000013756060644266700209_">
					<use xlink:href="#SVGID_00000165935214782684708460000006437963810185766792_"  style="overflow:visible;"/>
				</clipPath>
				<path style="display:none;clip-path:url(#SVGID_00000065773895344870906390000013756060644266700209_);fill:#575757;" d="
					M327.6,259.2c16.6,23.7,40.8,28.6,69.9,26.2c35.7-3,49.2-8.6,74.1,7.6c33.5,21.7,50.3,54.8,93.2,62.4
					c77.2,13.8,122.9-50.8,156.7-77.1c34.6-27,61-3.5,95.2-2.2c35.5,1.4,54.2-38.9,29.2-72.7c-27.5-37.2-60.1-53.7-41.4-99.8
					c5.1-12.5,19.5-9,29.7-30.4c15.5-32.7,0.7-104.2-46.3-101.3C765-26.7,737.3-14.4,713.7-44c-34.5-43.3-51-92.1-91.6-87
					c-37.2,4.6-61.1,24.6-108.7,2.5c-15-7-24.5-14.3-61.7-37.8C372.8-216.2,303-146.7,320.1-56.7c6.7,35.3,12.2,45.8,18.6,65.6
					c25.2,79.1,2.5,79.9-20.6,139C302,189,309.8,233.9,327.6,259.2z"/>
			</g>
		</g>
		<g>
			<g>
				<defs>
					
						<rect id="SVGID_00000168808199642871319590000002240940413835090325_" x="-16.8" y="-48.8" transform="matrix(0.9924 -0.1229 0.1229 0.9924 -11.3828 29.7073)" width="504" height="311.8"/>
				</defs>
				<clipPath id="SVGID_00000097498847143094905910000011787345026193852813_">
					<use xlink:href="#SVGID_00000168808199642871319590000002240940413835090325_"  style="overflow:visible;"/>
				</clipPath>
				<g style="clip-path:url(#SVGID_00000097498847143094905910000011787345026193852813_);">
					<path class="st3" d="M274.8,313.8l-0.5,0c2.7-22.5,11.5-44,25.5-62.2c14-18.2,31.9-31.3,51.9-38.2c7.9-2.7,16.3-4.5,24.3-6.2
						c9.3-2,18.9-4.1,28-7.6c19.9-7.7,33.3-22.3,35.7-39.1c3.8-26.3-19.5-48.3-29.7-56.6c-4-3.3-8.4-6.5-12.5-9.6
						c-13.3-9.9-27.1-20.2-35.6-35.1c-5.7-9.9-8.7-21.4-11.8-32.6c-4.7-17.3-9.2-33.7-21.8-44.1c-14.5-12-34.4-10.8-50.2-8.5
						c-18.3,2.7-36.7,7.2-54.4,11.5C200.2-8.6,176-2.7,151.5-0.9c-23,1.6-45.4-1.1-64.8-8.2c-22.4-8.1-39.8-21.3-51.9-39.1l0.4-0.3
						c22.4,33.1,65.9,50.8,116.3,47c24.4-1.8,48.6-7.8,72.1-13.5c17.8-4.4,36.1-8.8,54.5-11.5c15.8-2.3,35.9-3.5,50.6,8.7
						c12.8,10.5,17.2,27,22,44.4c3,11.2,6.2,22.7,11.8,32.5c8.5,14.9,22.1,25.1,35.4,34.9c4.1,3.1,8.4,6.3,12.5,9.6
						c10.2,8.3,33.6,30.5,29.9,57.2c-2.4,17-15.8,31.7-36,39.6c-9,3.5-18.7,5.6-28,7.6c-8,1.8-16.4,3.6-24.2,6.2
						C311.1,227.9,280.1,268,274.8,313.8z"/>
				</g>
			</g>
		</g>
		<g>
			<g>
				<defs>
					<rect id="SVGID_00000016775340719247631630000017784541017056784036_" y="-38" width="504" height="288"/>
				</defs>
				<clipPath id="SVGID_00000095314837586207531260000017541811638725791928_">
					<use xlink:href="#SVGID_00000016775340719247631630000017784541017056784036_"  style="overflow:visible;"/>
				</clipPath>
				<g style="clip-path:url(#SVGID_00000095314837586207531260000017541811638725791928_);">
					<g>
						<path class="st5" d="M405.1,82c-22,0-44-6.7-67.2-20.5c-15.4-9.2-32.7-25.2-52.6-43.8c-29.4-27.4-62.7-58.4-101-77.1
							C146.2-78,116.9-72.8,99-65.1c-19.4,8.3-30,21.2-30.1,21.3L68.4-44c0.1-0.1,10.7-13.1,30.3-21.5c11.5-4.9,23.7-7.3,36.4-7.1
							c15.9,0.2,32.5,4.6,49.4,12.8C222.8-41,256.2-10,285.6,17.4C305.5,36,322.7,52,338.1,61.1c57.4,34.1,95.7,18.7,132.7,3.9
							c26.8-10.7,52-20.9,81.7-9.4l-0.2,0.5c-29.5-11.4-54.7-1.2-81.4,9.4c-18.2,7.3-37,14.8-58.5,16.3C410,81.9,407.5,82,405.1,82z
							"/>
					</g>
					<g>
						<path class="st5" d="M384,82.2c-15.4,0-32-3.5-50.6-12.3c-20.4-9.8-42-29.3-64.7-49.9c-25-22.7-53.4-48.4-86.1-66.8
							c-37.7-21.3-66.4-17.9-83.8-11.3c-18.8,7.2-28.9,19.6-29,19.7l-0.4-0.3c0.1-0.1,10.2-12.6,29.2-19.8
							c11.1-4.2,23.1-5.9,35.6-4.9c15.6,1.3,31.9,6.7,48.7,16.2C215.6-28.8,244-3.1,269,19.6c22.8,20.6,44.3,40.1,64.6,49.8
							c52.9,25.3,90.5,6.5,126.9-11.7c31.9-15.9,62-31,100.4-16l-0.2,0.5c-38.2-14.9-68.2,0.1-100,16C437,70.1,412.7,82.2,384,82.2z
							"/>
					</g>
					<g>
						<path class="st5" d="M364.9,84.9c-11.3,0-23.2-2-35.9-6.8c-26.2-9.8-49.4-30.7-76.2-55c-21.8-19.7-44.4-40-72-57.6
							c-37.4-24-65.3-22.4-82.2-16.8c-18.3,6-27.8,17.9-27.9,18l-0.4-0.3c0.1-0.1,9.7-12.1,28.1-18.2c10.8-3.6,22.5-4.5,34.7-2.6
							c15.2,2.3,31.4,8.8,48,19.5c27.6,17.6,51.2,38.9,72,57.7c26.8,24.2,50,45.1,76.1,54.9c48.6,18.2,85.3-3.9,120.9-25.3
							C467.7,41.7,486,30.7,505.4,25c21.7-6.5,42.7-5.5,64,2.9l-0.2,0.5c-47.3-18.6-83.7,3.3-118.9,24.5
							C423.9,68.7,396.9,84.9,364.9,84.9z"/>
					</g>
					<g>
						<path class="st5" d="M348.4,89.8c-8,0-15.9-1.1-23.9-3.4c-32.5-9.2-57.4-32.1-86.2-58.6C220.4,11.4,201.9-5.6,179-22
							c-37-26.7-64.3-26.9-80.6-22.3C80.7-39.4,71.7-28,71.6-27.9l-0.4-0.3c0.1-0.1,9.2-11.6,27-16.6c10.5-2.9,21.8-3,33.8-0.4
							c14.9,3.3,30.8,11,47.2,22.8c23,16.4,41.5,33.4,59.4,49.9c28.8,26.5,53.7,49.3,86,58.5c44.5,12.5,78.7-11.6,114.9-37.2
							C479.4,20.5,520.6-8.7,577.7,14l-0.2,0.5c-56.8-22.6-98,6.5-137.8,34.7c-17.4,12.3-35.4,25.1-54.2,32.8
							C372.9,87.2,360.6,89.8,348.4,89.8z"/>
					</g>
					<g>
						<path class="st5" d="M334.6,96.2c-4.7,0-9.6-0.4-14.5-1.4c-39-7.5-63.3-30.9-94-60.5c-14-13.5-29.9-28.7-48.8-43.8
							c-27.1-21.7-51.9-31.4-73.7-28.8c-20.6,2.5-30.9,15.5-31,15.7L72.1-23c0.1-0.1,10.5-13.3,31.3-15.8
							c21.9-2.6,46.9,7.1,74.1,28.9c19,15.1,34.8,30.4,48.9,43.9c30.7,29.5,54.9,52.8,93.8,60.3c40.9,7.9,74-19.1,109-47.6
							C451,28.9,473.6,10.6,499,0c28.7-11.9,57.3-11.8,87.2,0.2L586,0.7C519.2-26,473.6,11.1,429.5,47.1
							C398.5,72.2,369.2,96.2,334.6,96.2z"/>
					</g>
					<g>
						<path class="st5" d="M322.6,103.4c-2.3,0-4.7-0.1-7-0.4c-45.1-4.8-67.7-28.1-99-60.3c-11.7-12-25-25.7-41.1-39.9
							c-27.9-24.6-52.9-36-74.6-33.8c-18.4,2-27.4,13.5-27.5,13.6L73-17.7c0.1-0.1,9.2-11.8,27.8-13.7c21.7-2.2,47,9.2,74.9,33.9
							c16.1,14.2,29.4,27.8,41.1,39.9c31.2,32.1,53.8,55.3,98.7,60.1c37.7,4.1,69.7-25.4,103.5-56.6c23.6-21.8,48-44.3,76.4-57.7
							c32.2-15.2,64.5-15.8,99-1.9l-0.2,0.5c-76.8-31-128.9,17.1-174.9,59.5C387.7,75.6,357.5,103.4,322.6,103.4z"/>
					</g>
				</g>
			</g>
		</g>
	</g>
	<g class="st6">
		<path class="st7" d="M405.1,25.6l-6.9-6.9l6.9-6.9l6.9,6.9L405.1,25.6z M399.2,18.7l5.9,5.9l5.9-5.9l-5.9-5.9L399.2,18.7z"/>
	</g>
	<g class="st6">
		<path class="st7" d="M400.5,186.8l-23-23l23-23l23,23L400.5,186.8z M378.6,163.8l21.9,21.9l21.9-21.9l-21.9-21.9L378.6,163.8z"/>
	</g>
	<g class="st6">
		<path class="st7" d="M69.4,17.5L59.3,7.3L69.4-2.8L79.6,7.3L69.4,17.5z M60.4,7.3l9.1,9.1l9.1-9.1l-9.1-9.1L60.4,7.3z"/>
	</g>
	<g class="st6">
		<rect x="450.4" y="88.6" class="st7" width="20.4" height="0.8"/>
	</g>
	<g class="st6">
		
			<radialGradient id="SVGID_00000053531293331418989800000016617893658628643764_" cx="202.9" cy="833.7" r="25.7" gradientTransform="matrix(1 0 0 1 0 -790)" gradientUnits="userSpaceOnUse">
			<stop  offset="0.198" style="stop-color:#4D4D4D"/>
			<stop  offset="0.5813" style="stop-color:#A9A9A9"/>
			<stop  offset="0.8656" style="stop-color:#E7E7E7"/>
			<stop  offset="1" style="stop-color:#FFFFFF"/>
		</radialGradient>
		
			<circle style="display:inline;fill:url(#SVGID_00000053531293331418989800000016617893658628643764_);" cx="202.9" cy="43.7" r="25.7"/>
		
			<linearGradient id="SVGID_00000068678517790459434570000001211784282486124714_" gradientUnits="userSpaceOnUse" x1="203" y1="840.8229" x2="203" y2="809.4365" gradientTransform="matrix(1 0 0 1 0 -790)">
			<stop  offset="0" style="stop-color:#F50077"/>
			<stop  offset="0.7854" style="stop-color:#358BE0"/>
			<stop  offset="1" style="stop-color:#00B2FD"/>
		</linearGradient>
		
			<circle style="display:inline;fill:url(#SVGID_00000068678517790459434570000001211784282486124714_);" cx="203" cy="36.3" r="18.8"/>
	</g>
	<g class="st6">
		
			<radialGradient id="SVGID_00000040567798260794965410000001728059390462221464_" cx="447.97" cy="943.13" r="11.06" gradientTransform="matrix(1 0 0 1 0 -790)" gradientUnits="userSpaceOnUse">
			<stop  offset="0.198" style="stop-color:#4D4D4D"/>
			<stop  offset="0.5813" style="stop-color:#A9A9A9"/>
			<stop  offset="0.8656" style="stop-color:#E7E7E7"/>
			<stop  offset="1" style="stop-color:#FFFFFF"/>
		</radialGradient>
		
			<circle style="display:inline;fill:url(#SVGID_00000040567798260794965410000001728059390462221464_);" cx="448" cy="153.1" r="11.1"/>
		
			<linearGradient id="SVGID_00000111908012087925219260000010650132112327309977_" gradientUnits="userSpaceOnUse" x1="448" y1="946.1873" x2="448" y2="932.7092" gradientTransform="matrix(1 0 0 1 0 -790)">
			<stop  offset="0" style="stop-color:#F50077"/>
			<stop  offset="0.7854" style="stop-color:#358BE0"/>
			<stop  offset="1" style="stop-color:#00B2FD"/>
		</linearGradient>
		
			<circle style="display:inline;fill:url(#SVGID_00000111908012087925219260000010650132112327309977_);" cx="448" cy="149.9" r="8.1"/>
	</g>
	<g>
		<circle class="st3" cx="31.3" cy="206.2" r="0.4"/>
		<circle class="st3" cx="37.3" cy="206.2" r="0.4"/>
		<circle class="st3" cx="43.3" cy="206.2" r="0.4"/>
		<circle class="st3" cx="49.3" cy="206.2" r="0.4"/>
		<circle class="st3" cx="55.3" cy="206.2" r="0.4"/>
		<circle class="st3" cx="61.3" cy="206.2" r="0.4"/>
		<circle class="st3" cx="67.3" cy="206.2" r="0.4"/>
		<circle class="st3" cx="73.3" cy="206.2" r="0.4"/>
		<circle class="st3" cx="79.3" cy="206.2" r="0.4"/>
		<circle class="st3" cx="85.3" cy="206.2" r="0.4"/>
		<circle class="st3" cx="91.3" cy="206.2" r="0.4"/>
		<circle class="st3" cx="97.3" cy="206.2" r="0.4"/>
		<circle class="st3" cx="103.3" cy="206.2" r="0.4"/>
		<circle class="st3" cx="109.3" cy="206.2" r="0.4"/>
		<circle class="st3" cx="115.3" cy="206.2" r="0.4"/>
		<circle class="st3" cx="121.3" cy="206.2" r="0.4"/>
		<circle class="st3" cx="127.3" cy="206.2" r="0.4"/>
		<circle class="st3" cx="133.3" cy="206.2" r="0.4"/>
		<circle class="st3" cx="139.3" cy="206.2" r="0.4"/>
		<circle class="st3" cx="145.3" cy="206.2" r="0.4"/>
		<circle class="st3" cx="151.3" cy="206.2" r="0.4"/>
		<circle class="st3" cx="157.3" cy="206.2" r="0.4"/>
		<circle class="st3" cx="163.3" cy="206.2" r="0.4"/>
		<circle class="st3" cx="169.3" cy="206.2" r="0.4"/>
		<circle class="st3" cx="175.3" cy="206.2" r="0.4"/>
		<circle class="st3" cx="181.3" cy="206.2" r="0.4"/>
		<circle class="st3" cx="187.3" cy="206.2" r="0.4"/>
		<circle class="st3" cx="193.3" cy="206.2" r="0.4"/>
		<circle class="st3" cx="199.3" cy="206.2" r="0.4"/>
		<circle class="st3" cx="205.3" cy="206.2" r="0.4"/>
		<circle class="st3" cx="211.3" cy="206.2" r="0.4"/>
		<circle class="st3" cx="217.3" cy="206.2" r="0.4"/>
		<circle class="st3" cx="223.3" cy="206.2" r="0.4"/>
		<circle class="st3" cx="229.3" cy="206.2" r="0.4"/>
		<circle class="st3" cx="235.3" cy="206.2" r="0.4"/>
		<circle class="st3" cx="241.3" cy="206.2" r="0.4"/>
		<circle class="st3" cx="247.3" cy="206.2" r="0.4"/>
		<circle class="st3" cx="253.3" cy="206.2" r="0.4"/>
		<circle class="st3" cx="259.3" cy="206.2" r="0.4"/>
		<circle class="st3" cx="265.3" cy="206.2" r="0.4"/>
		<circle class="st3" cx="271.3" cy="206.2" r="0.4"/>
		<circle class="st3" cx="277.3" cy="206.2" r="0.4"/>
		<circle class="st3" cx="283.3" cy="206.2" r="0.4"/>
		<circle class="st3" cx="31.3" cy="212.2" r="0.4"/>
		<circle class="st3" cx="37.3" cy="212.2" r="0.4"/>
		<circle class="st3" cx="43.3" cy="212.2" r="0.4"/>
		<circle class="st3" cx="49.3" cy="212.2" r="0.4"/>
		<circle class="st3" cx="55.3" cy="212.2" r="0.4"/>
		<circle class="st3" cx="61.3" cy="212.2" r="0.4"/>
		<circle class="st3" cx="67.3" cy="212.2" r="0.4"/>
		<circle class="st3" cx="73.3" cy="212.2" r="0.4"/>
		<circle class="st3" cx="79.3" cy="212.2" r="0.4"/>
		<circle class="st3" cx="85.3" cy="212.2" r="0.4"/>
		<circle class="st3" cx="91.3" cy="212.2" r="0.4"/>
		<circle class="st3" cx="97.3" cy="212.2" r="0.4"/>
		<circle class="st3" cx="103.3" cy="212.2" r="0.4"/>
		<circle class="st3" cx="109.3" cy="212.2" r="0.4"/>
		<circle class="st3" cx="115.3" cy="212.2" r="0.4"/>
		<circle class="st3" cx="121.3" cy="212.2" r="0.4"/>
		<circle class="st3" cx="127.3" cy="212.2" r="0.4"/>
		<circle class="st3" cx="133.3" cy="212.2" r="0.4"/>
		<circle class="st3" cx="139.3" cy="212.2" r="0.4"/>
		<circle class="st3" cx="145.3" cy="212.2" r="0.4"/>
		<circle class="st3" cx="151.3" cy="212.2" r="0.4"/>
		<circle class="st3" cx="157.3" cy="212.2" r="0.4"/>
		<circle class="st3" cx="163.3" cy="212.2" r="0.4"/>
		<circle class="st3" cx="169.3" cy="212.2" r="0.4"/>
		<circle class="st3" cx="175.3" cy="212.2" r="0.4"/>
		<circle class="st3" cx="181.3" cy="212.2" r="0.4"/>
		<circle class="st3" cx="187.3" cy="212.2" r="0.4"/>
		<circle class="st3" cx="193.3" cy="212.2" r="0.4"/>
		<circle class="st3" cx="199.3" cy="212.2" r="0.4"/>
		<circle class="st3" cx="205.3" cy="212.2" r="0.4"/>
		<circle class="st3" cx="211.3" cy="212.2" r="0.4"/>
		<circle class="st3" cx="217.3" cy="212.2" r="0.4"/>
		<circle class="st3" cx="223.3" cy="212.2" r="0.4"/>
		<circle class="st3" cx="229.3" cy="212.2" r="0.4"/>
		<circle class="st3" cx="235.3" cy="212.2" r="0.4"/>
		<circle class="st3" cx="241.3" cy="212.2" r="0.4"/>
		<circle class="st3" cx="247.3" cy="212.2" r="0.4"/>
		<circle class="st3" cx="253.3" cy="212.2" r="0.4"/>
		<circle class="st3" cx="259.3" cy="212.2" r="0.4"/>
		<circle class="st3" cx="265.3" cy="212.2" r="0.4"/>
		<circle class="st3" cx="271.3" cy="212.2" r="0.4"/>
		<circle class="st3" cx="277.3" cy="212.2" r="0.4"/>
		<circle class="st3" cx="283.3" cy="212.2" r="0.4"/>
		<circle class="st3" cx="31.3" cy="218.2" r="0.4"/>
		<circle class="st3" cx="37.3" cy="218.2" r="0.4"/>
		<circle class="st3" cx="43.3" cy="218.2" r="0.4"/>
		<circle class="st3" cx="49.3" cy="218.2" r="0.4"/>
		<circle class="st3" cx="55.3" cy="218.2" r="0.4"/>
		<circle class="st3" cx="61.3" cy="218.2" r="0.4"/>
		<circle class="st3" cx="67.3" cy="218.2" r="0.4"/>
		<circle class="st3" cx="73.3" cy="218.2" r="0.4"/>
		<circle class="st3" cx="79.3" cy="218.2" r="0.4"/>
		<circle class="st3" cx="85.3" cy="218.2" r="0.4"/>
		<circle class="st3" cx="91.3" cy="218.2" r="0.4"/>
		<circle class="st3" cx="97.3" cy="218.2" r="0.4"/>
		<circle class="st3" cx="103.3" cy="218.2" r="0.4"/>
		<circle class="st3" cx="109.3" cy="218.2" r="0.4"/>
		<circle class="st3" cx="115.3" cy="218.2" r="0.4"/>
		<circle class="st3" cx="121.3" cy="218.2" r="0.4"/>
		<circle class="st3" cx="127.3" cy="218.2" r="0.4"/>
		<circle class="st3" cx="133.3" cy="218.2" r="0.4"/>
		<circle class="st3" cx="139.3" cy="218.2" r="0.4"/>
		<circle class="st3" cx="145.3" cy="218.2" r="0.4"/>
		<circle class="st3" cx="151.3" cy="218.2" r="0.4"/>
		<circle class="st3" cx="157.3" cy="218.2" r="0.4"/>
		<circle class="st3" cx="163.3" cy="218.2" r="0.4"/>
		<circle class="st3" cx="169.3" cy="218.2" r="0.4"/>
		<circle class="st3" cx="175.3" cy="218.2" r="0.4"/>
		<circle class="st3" cx="181.3" cy="218.2" r="0.4"/>
		<circle class="st3" cx="187.3" cy="218.2" r="0.4"/>
		<circle class="st3" cx="193.3" cy="218.2" r="0.4"/>
		<circle class="st3" cx="199.3" cy="218.2" r="0.4"/>
		<circle class="st3" cx="205.3" cy="218.2" r="0.4"/>
		<circle class="st3" cx="211.3" cy="218.2" r="0.4"/>
		<circle class="st3" cx="217.3" cy="218.2" r="0.4"/>
		<circle class="st3" cx="223.3" cy="218.2" r="0.4"/>
		<circle class="st3" cx="229.3" cy="218.2" r="0.4"/>
		<circle class="st3" cx="235.3" cy="218.2" r="0.4"/>
		<circle class="st3" cx="241.3" cy="218.2" r="0.4"/>
		<circle class="st3" cx="247.3" cy="218.2" r="0.4"/>
		<circle class="st3" cx="253.3" cy="218.2" r="0.4"/>
		<circle class="st3" cx="259.3" cy="218.2" r="0.4"/>
		<circle class="st3" cx="265.3" cy="218.2" r="0.4"/>
		<circle class="st3" cx="271.3" cy="218.2" r="0.4"/>
		<circle class="st3" cx="277.3" cy="218.2" r="0.4"/>
		<circle class="st3" cx="283.3" cy="218.2" r="0.4"/>
		<circle class="st3" cx="31.3" cy="224.2" r="0.4"/>
		<circle class="st3" cx="37.3" cy="224.2" r="0.4"/>
		<circle class="st3" cx="43.3" cy="224.2" r="0.4"/>
		<circle class="st3" cx="49.3" cy="224.2" r="0.4"/>
		<circle class="st3" cx="55.3" cy="224.2" r="0.4"/>
		<circle class="st3" cx="61.3" cy="224.2" r="0.4"/>
		<circle class="st3" cx="67.3" cy="224.2" r="0.4"/>
		<circle class="st3" cx="73.3" cy="224.2" r="0.4"/>
		<circle class="st3" cx="79.3" cy="224.2" r="0.4"/>
		<circle class="st3" cx="85.3" cy="224.2" r="0.4"/>
		<circle class="st3" cx="91.3" cy="224.2" r="0.4"/>
		<circle class="st3" cx="97.3" cy="224.2" r="0.4"/>
		<circle class="st3" cx="103.3" cy="224.2" r="0.4"/>
		<circle class="st3" cx="109.3" cy="224.2" r="0.4"/>
		<circle class="st3" cx="115.3" cy="224.2" r="0.4"/>
		<circle class="st3" cx="121.3" cy="224.2" r="0.4"/>
		<circle class="st3" cx="127.3" cy="224.2" r="0.4"/>
		<circle class="st3" cx="133.3" cy="224.2" r="0.4"/>
		<circle class="st3" cx="139.3" cy="224.2" r="0.4"/>
		<circle class="st3" cx="145.3" cy="224.2" r="0.4"/>
		<circle class="st3" cx="151.3" cy="224.2" r="0.4"/>
		<circle class="st3" cx="157.3" cy="224.2" r="0.4"/>
		<circle class="st3" cx="163.3" cy="224.2" r="0.4"/>
		<circle class="st3" cx="169.3" cy="224.2" r="0.4"/>
		<circle class="st3" cx="175.3" cy="224.2" r="0.4"/>
		<circle class="st3" cx="181.3" cy="224.2" r="0.4"/>
		<circle class="st3" cx="187.3" cy="224.2" r="0.4"/>
		<circle class="st3" cx="193.3" cy="224.2" r="0.4"/>
		<circle class="st3" cx="199.3" cy="224.2" r="0.4"/>
		<circle class="st3" cx="205.3" cy="224.2" r="0.4"/>
		<circle class="st3" cx="211.3" cy="224.2" r="0.4"/>
		<circle class="st3" cx="217.3" cy="224.2" r="0.4"/>
		<circle class="st3" cx="223.3" cy="224.2" r="0.4"/>
		<circle class="st3" cx="229.3" cy="224.2" r="0.4"/>
		<circle class="st3" cx="235.3" cy="224.2" r="0.4"/>
		<circle class="st3" cx="241.3" cy="224.2" r="0.4"/>
		<circle class="st3" cx="247.3" cy="224.2" r="0.4"/>
		<circle class="st3" cx="253.3" cy="224.2" r="0.4"/>
		<circle class="st3" cx="259.3" cy="224.2" r="0.4"/>
		<circle class="st3" cx="265.3" cy="224.2" r="0.4"/>
		<circle class="st3" cx="271.3" cy="224.2" r="0.4"/>
		<circle class="st3" cx="277.3" cy="224.2" r="0.4"/>
		<circle class="st3" cx="283.3" cy="224.2" r="0.4"/>
		<circle class="st3" cx="31.3" cy="230.2" r="0.4"/>
		<circle class="st3" cx="37.3" cy="230.2" r="0.4"/>
		<circle class="st3" cx="43.3" cy="230.2" r="0.4"/>
		<circle class="st3" cx="49.3" cy="230.2" r="0.4"/>
		<circle class="st3" cx="55.3" cy="230.2" r="0.4"/>
		<circle class="st3" cx="61.3" cy="230.2" r="0.4"/>
		<circle class="st3" cx="67.3" cy="230.2" r="0.4"/>
		<circle class="st3" cx="73.3" cy="230.2" r="0.4"/>
		<circle class="st3" cx="79.3" cy="230.2" r="0.4"/>
		<circle class="st3" cx="85.3" cy="230.2" r="0.4"/>
		<circle class="st3" cx="91.3" cy="230.2" r="0.4"/>
		<circle class="st3" cx="97.3" cy="230.2" r="0.4"/>
		<circle class="st3" cx="103.3" cy="230.2" r="0.4"/>
		<circle class="st3" cx="109.3" cy="230.2" r="0.4"/>
		<circle class="st3" cx="115.3" cy="230.2" r="0.4"/>
		<circle class="st3" cx="121.3" cy="230.2" r="0.4"/>
		<circle class="st3" cx="127.3" cy="230.2" r="0.4"/>
		<circle class="st3" cx="133.3" cy="230.2" r="0.4"/>
		<circle class="st3" cx="139.3" cy="230.2" r="0.4"/>
		<circle class="st3" cx="145.3" cy="230.2" r="0.4"/>
		<circle class="st3" cx="151.3" cy="230.2" r="0.4"/>
		<circle class="st3" cx="157.3" cy="230.2" r="0.4"/>
		<circle class="st3" cx="163.3" cy="230.2" r="0.4"/>
		<circle class="st3" cx="169.3" cy="230.2" r="0.4"/>
		<circle class="st3" cx="175.3" cy="230.2" r="0.4"/>
		<circle class="st3" cx="181.3" cy="230.2" r="0.4"/>
		<circle class="st3" cx="187.3" cy="230.2" r="0.4"/>
		<circle class="st3" cx="193.3" cy="230.2" r="0.4"/>
		<circle class="st3" cx="199.3" cy="230.2" r="0.4"/>
		<circle class="st3" cx="205.3" cy="230.2" r="0.4"/>
		<circle class="st3" cx="211.3" cy="230.2" r="0.4"/>
		<circle class="st3" cx="217.3" cy="230.2" r="0.4"/>
		<circle class="st3" cx="223.3" cy="230.2" r="0.4"/>
		<circle class="st3" cx="229.3" cy="230.2" r="0.4"/>
		<circle class="st3" cx="235.3" cy="230.2" r="0.4"/>
		<circle class="st3" cx="241.3" cy="230.2" r="0.4"/>
		<circle class="st3" cx="247.3" cy="230.2" r="0.4"/>
		<circle class="st3" cx="253.3" cy="230.2" r="0.4"/>
		<circle class="st3" cx="259.3" cy="230.2" r="0.4"/>
		<circle class="st3" cx="265.3" cy="230.2" r="0.4"/>
		<circle class="st3" cx="271.3" cy="230.2" r="0.4"/>
		<circle class="st3" cx="277.3" cy="230.2" r="0.4"/>
		<circle class="st3" cx="283.3" cy="230.2" r="0.4"/>
	</g>
	<g class="st6">
		<g class="st12">
			<path class="st3" d="M59.4,107.7v-5.8l-2.8,4.7h-1.4l-2.8-4.6v5.6h-2.9V96.8H52l3.8,6.3l3.8-6.3h2.5v10.9
				C62.1,107.7,59.4,107.7,59.4,107.7z"/>
			<path class="st3" d="M67.6,107.2c-0.9-0.5-1.6-1.2-2.2-2s-0.8-1.8-0.8-2.9s0.3-2.1,0.8-2.9s1.2-1.5,2.2-2s2-0.7,3.1-0.7
				c1.2,0,2.2,0.2,3.1,0.7s1.6,1.2,2.2,2s0.8,1.8,0.8,2.9s-0.3,2.1-0.8,2.9s-1.2,1.5-2.2,2s-2,0.7-3.1,0.7
				C69.5,107.9,68.5,107.7,67.6,107.2z M72.2,105c0.4-0.3,0.8-0.6,1.1-1.1c0.3-0.5,0.4-1,0.4-1.6s-0.1-1.2-0.4-1.6
				c-0.3-0.5-0.6-0.8-1.1-1.1s-0.9-0.4-1.5-0.4s-1.1,0.1-1.5,0.4s-0.8,0.6-1.1,1.1c-0.3,0.5-0.4,1-0.4,1.6s0.1,1.2,0.4,1.6
				c0.3,0.5,0.6,0.8,1.1,1.1s0.9,0.4,1.5,0.4C71.2,105.4,71.7,105.2,72.2,105z"/>
			<path class="st3" d="M79.2,96.8h5.2c1.2,0,2.3,0.2,3.2,0.7c0.9,0.4,1.6,1.1,2.2,1.9s0.8,1.8,0.8,2.9s-0.2,2.1-0.8,2.9
				s-1.2,1.5-2.2,1.9c-0.9,0.4-2,0.7-3.2,0.7h-5.2V96.8z M84.2,105.2c0.9,0,1.7-0.3,2.3-0.8c0.6-0.5,0.8-1.3,0.8-2.2
				c0-0.9-0.3-1.7-0.8-2.2s-1.3-0.8-2.3-0.8h-1.9v6H84.2L84.2,105.2z"/>
			<path class="st3" d="M101.6,105.3v2.4h-8.8V96.8h8.6v2.4h-5.5v1.8h4.8v2.3h-4.8v2C95.9,105.3,101.6,105.3,101.6,105.3z"/>
			<path class="st3" d="M108.9,104.8h-1.7v2.9h-3.1V96.8h5c1,0,1.8,0.2,2.6,0.5c0.7,0.3,1.3,0.8,1.7,1.4c0.4,0.6,0.6,1.3,0.6,2.2
				c0,0.8-0.2,1.5-0.6,2.1s-0.9,1.1-1.6,1.4l2.4,3.4h-3.3L108.9,104.8z M110.3,99.6c-0.3-0.3-0.8-0.4-1.4-0.4h-1.7v3.2h1.7
				c0.6,0,1.1-0.1,1.4-0.4s0.5-0.7,0.5-1.2C110.8,100.3,110.7,99.9,110.3,99.6z"/>
			<path class="st3" d="M126.8,96.8v10.9h-2.5l-4.8-5.8v5.8h-3V96.8h2.5l4.8,5.8v-5.8H126.8z"/>
		</g>
		<g class="st12">
			<path class="st3" d="M63.8,114.2c0.1,0.2,0.2,0.4,0.2,0.6c0,0.4-0.2,0.6-0.4,0.8c-0.3,0.2-0.7,0.3-1.3,0.3h-2.2v-4.1h2.1
				c0.5,0,0.9,0.1,1.2,0.3c0.3,0.2,0.4,0.5,0.4,0.8c0,0.2,0,0.4-0.2,0.5c-0.1,0.2-0.2,0.3-0.4,0.4C63.5,113.9,63.7,114,63.8,114.2z
				 M61.2,112.6v0.8H62c0.4,0,0.6-0.1,0.6-0.4s-0.2-0.4-0.6-0.4H61.2z M62.8,114.7c0-0.3-0.2-0.4-0.6-0.4h-1v0.8h1
				C62.6,115.1,62.8,114.9,62.8,114.7z"/>
			<path class="st3" d="M68.6,115.1h-1.8l-0.3,0.8h-1.2l1.8-4.1h1.2l1.8,4.1h-1.2L68.6,115.1z M68.2,114.3l-0.5-1.3l-0.5,1.3H68.2z"
				/>
			<path class="st3" d="M72.5,115.7c-0.3-0.2-0.6-0.4-0.8-0.8c-0.2-0.3-0.3-0.7-0.3-1.1s0.1-0.8,0.3-1.1c0.2-0.3,0.5-0.6,0.8-0.8
				s0.7-0.3,1.2-0.3c0.4,0,0.7,0.1,1,0.2s0.6,0.3,0.8,0.6l-0.7,0.7c-0.3-0.3-0.6-0.5-1-0.5c-0.2,0-0.4,0.1-0.6,0.2s-0.3,0.2-0.4,0.4
				c-0.1,0.2-0.1,0.4-0.1,0.6s0.1,0.4,0.1,0.6c0.1,0.2,0.2,0.3,0.4,0.4s0.4,0.2,0.6,0.2c0.4,0,0.7-0.2,1-0.5l0.7,0.7
				c-0.2,0.2-0.4,0.4-0.8,0.6c-0.3,0.1-0.6,0.2-1,0.2C73.2,116,72.8,115.9,72.5,115.7z"/>
			<path class="st3" d="M78.7,114.4l-0.4,0.5v1h-1.2v-4.1h1.2v1.7l1.6-1.7h1.3l-1.7,1.8l1.8,2.3h-1.4L78.7,114.4z"/>
			<path class="st3" d="M85.3,113.8h1v1.7c-0.2,0.2-0.5,0.3-0.8,0.4s-0.6,0.1-0.9,0.1c-0.4,0-0.8-0.1-1.2-0.3s-0.6-0.4-0.8-0.8
				c-0.2-0.3-0.3-0.7-0.3-1.1s0.1-0.8,0.3-1.1c0.2-0.3,0.5-0.6,0.8-0.8s0.8-0.3,1.2-0.3c0.4,0,0.7,0.1,1,0.2s0.6,0.3,0.8,0.6
				l-0.7,0.7c-0.3-0.3-0.6-0.5-1-0.5c-0.3,0-0.6,0.1-0.9,0.3s-0.3,0.5-0.3,0.9c0,0.2,0.1,0.4,0.2,0.6s0.2,0.3,0.4,0.4
				c0.2,0.1,0.4,0.2,0.6,0.2s0.4,0,0.6-0.1L85.3,113.8L85.3,113.8z"/>
			<path class="st3" d="M90.1,114.8h-0.6v1.1h-1.2v-4.1h1.9c0.4,0,0.7,0.1,1,0.2s0.5,0.3,0.6,0.5c0.2,0.2,0.2,0.5,0.2,0.8
				s-0.1,0.6-0.2,0.8s-0.3,0.4-0.6,0.5l0.9,1.3h-1.2L90.1,114.8z M90.7,112.9c-0.1-0.1-0.3-0.2-0.5-0.2h-0.7v1.2h0.7
				c0.2,0,0.4-0.1,0.5-0.2s0.2-0.2,0.2-0.4C90.8,113.1,90.8,113,90.7,112.9z"/>
			<path class="st3" d="M94.8,115.7c-0.3-0.2-0.6-0.4-0.8-0.8c-0.2-0.3-0.3-0.7-0.3-1.1s0.1-0.8,0.3-1.1c0.2-0.3,0.5-0.6,0.8-0.8
				c0.3-0.2,0.7-0.3,1.2-0.3s0.8,0.1,1.2,0.3s0.6,0.4,0.8,0.8c0.2,0.3,0.3,0.7,0.3,1.1s-0.1,0.8-0.3,1.1c-0.2,0.3-0.5,0.6-0.8,0.8
				c-0.3,0.2-0.7,0.3-1.2,0.3S95.1,115.9,94.8,115.7z M96.5,114.9c0.2-0.1,0.3-0.2,0.4-0.4s0.2-0.4,0.2-0.6s-0.1-0.4-0.2-0.6
				s-0.2-0.3-0.4-0.4s-0.4-0.2-0.6-0.2s-0.4,0.1-0.6,0.2s-0.3,0.2-0.4,0.4s-0.2,0.4-0.2,0.6s0.1,0.4,0.2,0.6s0.2,0.3,0.4,0.4
				s0.4,0.2,0.6,0.2S96.3,115,96.5,114.9z"/>
			<path class="st3" d="M100.5,115.5c-0.3-0.3-0.5-0.8-0.5-1.4v-2.3h1.2v2.3c0,0.7,0.3,1,0.8,1s0.8-0.3,0.8-1v-2.3h1.2v2.3
				c0,0.6-0.2,1.1-0.5,1.4s-0.8,0.5-1.4,0.5C101.3,116,100.8,115.8,100.5,115.5z"/>
			<path class="st3" d="M109.8,111.8v4.1h-1l-1.8-2.2v2.2h-1.2v-4.1h1l1.8,2.2v-2.2H109.8z"/>
			<path class="st3" d="M111.8,111.8h1.9c0.4,0,0.8,0.1,1.2,0.2s0.6,0.4,0.8,0.7c0.2,0.3,0.3,0.7,0.3,1.1s-0.1,0.8-0.3,1.1
				s-0.5,0.6-0.8,0.7s-0.8,0.2-1.2,0.2h-1.9V111.8z M113.7,115c0.3,0,0.6-0.1,0.8-0.3c0.2-0.2,0.3-0.5,0.3-0.8s-0.1-0.6-0.3-0.8
				c-0.2-0.2-0.5-0.3-0.8-0.3H113v2.3L113.7,115L113.7,115z"/>
		</g>
	</g>
	<g class="st6">
		<path class="st7" d="M487.5,147.1h-3.8v-0.9h3.1v-1.6h0.8L487.5,147.1L487.5,147.1z"/>
		<path class="st7" d="M487,139.8c0.4,0.4,0.6,0.9,0.6,1.4s-0.2,1-0.6,1.4s-0.8,0.6-1.4,0.6s-1-0.2-1.4-0.6
			c-0.4-0.4-0.6-0.9-0.6-1.4s0.2-1,0.6-1.4s0.8-0.6,1.4-0.6C486.1,139.3,486.6,139.4,487,139.8z M485.6,140.1
			c-0.3,0-0.6,0.1-0.9,0.3s-0.4,0.5-0.4,0.8s0.1,0.6,0.4,0.8c0.2,0.2,0.5,0.3,0.9,0.3s0.6-0.1,0.9-0.3s0.4-0.5,0.4-0.8
			s-0.1-0.6-0.4-0.8C486.2,140.2,485.9,140.1,485.6,140.1z"/>
		<path class="st7" d="M485,134.4c0.6,0,1,0.2,1.2,0.7l1.4-1v1.1l-1.2,0.9v0.6h1.2v0.9h-3.8V136c0-0.6,0.1-1,0.3-1.3
			C484.2,134.5,484.5,134.4,485,134.4z M485.4,135.4c-0.1-0.1-0.2-0.2-0.5-0.2s-0.4,0.1-0.4,0.2c-0.1,0.1-0.1,0.3-0.1,0.6v0.6h1.1
			V136C485.5,135.7,485.5,135.5,485.4,135.4z"/>
		<path class="st7" d="M483.7,129.6h0.8v1.9h0.8v-1.7h0.7v1.7h0.8v-2h0.8v2.8h-3.8L483.7,129.6L483.7,129.6z"/>
		<path class="st7" d="M485.1,124.3l2.1,1v0.5l-2.1,1h2.4v0.8h-3.8v-1.2l2.1-1l-2.1-1v-1.2h3.8v0.8
			C487.5,124.3,485.1,124.3,485.1,124.3z"/>
		<path class="st7" d="M483.7,118.9v-0.8h3.8v0.8H483.7z"/>
		<path class="st7" d="M484,113.4c0.2-0.3,0.6-0.4,1-0.4s0.8,0.1,1,0.4s0.3,0.7,0.3,1.3v0.5h1.1v0.8h-3.8v-1.3
			C483.7,114.1,483.8,113.7,484,113.4z M485.5,114c-0.1-0.1-0.3-0.2-0.5-0.2s-0.4,0.1-0.5,0.2s-0.1,0.3-0.1,0.6v0.5h1.3v-0.6
			C485.7,114.3,485.6,114.1,485.5,114z"/>
		<path class="st7" d="M484.4,110.3c0.1,0.1,0.2,0.1,0.3,0.1s0.2-0.1,0.3-0.2c0.1-0.1,0.1-0.3,0.2-0.7s0.2-0.6,0.4-0.8
			s0.4-0.3,0.8-0.3s0.6,0.1,0.8,0.4c0.2,0.3,0.3,0.6,0.3,1c0,0.6-0.2,1.2-0.7,1.6l-0.6-0.5c0.4-0.4,0.5-0.8,0.5-1.1
			c0-0.2,0-0.3-0.1-0.4s-0.2-0.1-0.3-0.1s-0.2,0.1-0.3,0.1c-0.1,0.1-0.1,0.3-0.2,0.6c-0.1,0.4-0.2,0.8-0.4,1
			c-0.2,0.2-0.4,0.3-0.8,0.3s-0.6-0.1-0.8-0.4c-0.2-0.3-0.3-0.6-0.3-1c0-0.2,0-0.5,0.1-0.8s0.2-0.5,0.4-0.7l0.6,0.4
			c-0.2,0.3-0.4,0.7-0.4,1C484.3,110.2,484.4,110.3,484.4,110.3z"/>
		<path class="st7" d="M486.5,105.7c0.2-0.1,0.3-0.3,0.3-0.6s-0.1-0.4-0.3-0.6c-0.2-0.1-0.4-0.2-0.7-0.2h-2.1v-0.8h2.1
			c0.5,0,1,0.2,1.3,0.5s0.4,0.7,0.4,1.2s-0.1,0.9-0.5,1.2c-0.3,0.3-0.7,0.5-1.3,0.5h-2.1v-0.8h2.1
			C486.1,105.9,486.3,105.8,486.5,105.7z"/>
		<path class="st7" d="M485.1,98.1l2.1,1v0.5l-2.1,1h2.4v0.8h-3.8v-1.2l2.1-1l-2.1-1V97h3.8v0.8C487.5,98.1,485.1,98.1,485.1,98.1z"
			/>
		<path class="st7" d="M484.2,89.7c0.3-0.4,0.8-0.6,1.4-0.6s1.1,0.2,1.4,0.5s0.5,0.9,0.5,1.6v1.3h-3.8v-1.3
			C483.7,90.6,483.9,90.1,484.2,89.7z M486.5,90.4c-0.2-0.2-0.5-0.3-0.9-0.3s-0.7,0.1-0.9,0.3c-0.2,0.2-0.3,0.5-0.3,1v0.5h2.3v-0.5
			C486.7,90.9,486.6,90.6,486.5,90.4z"/>
		<path class="st7" d="M487,84.2c0.4,0.4,0.6,0.9,0.6,1.4s-0.2,1-0.6,1.4s-0.8,0.6-1.4,0.6s-1-0.2-1.4-0.6s-0.6-0.9-0.6-1.4
			s0.2-1,0.6-1.4s0.8-0.6,1.4-0.6C486.1,83.6,486.6,83.8,487,84.2z M485.6,84.4c-0.3,0-0.6,0.1-0.9,0.3s-0.4,0.5-0.4,0.8
			s0.1,0.6,0.4,0.8c0.2,0.2,0.5,0.3,0.9,0.3s0.6-0.1,0.9-0.3s0.4-0.5,0.4-0.8s-0.1-0.6-0.4-0.8C486.2,84.6,485.9,84.4,485.6,84.4z"
			/>
		<path class="st7" d="M487.5,81.8h-3.8V81h3.1v-1.6h0.8L487.5,81.8L487.5,81.8z"/>
		<path class="st7" d="M487,74.5c0.4,0.4,0.6,0.9,0.6,1.4s-0.2,1-0.6,1.4s-0.8,0.6-1.4,0.6s-1-0.2-1.4-0.6s-0.6-0.9-0.6-1.4
			s0.2-1,0.6-1.4s0.8-0.6,1.4-0.6C486.1,73.9,486.6,74.1,487,74.5z M485.6,74.8c-0.3,0-0.6,0.1-0.9,0.3s-0.4,0.5-0.4,0.8
			s0.1,0.6,0.4,0.8c0.2,0.2,0.5,0.3,0.9,0.3s0.6-0.1,0.9-0.3s0.4-0.5,0.4-0.8s-0.1-0.6-0.4-0.8S485.9,74.8,485.6,74.8z"/>
		<path class="st7" d="M485,69c0.6,0,1,0.2,1.2,0.7l1.4-1v1.1l-1.2,0.8v0.6h1.2V72h-3.8v-1.4c0-0.6,0.1-1,0.3-1.3
			C484.2,69.1,484.5,69,485,69z M485.4,70c-0.1-0.1-0.2-0.2-0.5-0.2s-0.4,0.1-0.4,0.2c-0.1,0.1-0.1,0.3-0.1,0.6v0.6h1.1v-0.6
			C485.5,70.3,485.5,70.1,485.4,70z"/>
		<path class="st7" d="M484.4,63.6c0.1,0.1,0.2,0.1,0.3,0.1s0.2,0,0.3-0.2c0.1-0.1,0.1-0.3,0.2-0.7s0.2-0.6,0.4-0.8s0.4-0.3,0.8-0.3
			s0.6,0.1,0.8,0.4c0.2,0.3,0.3,0.6,0.3,1c0,0.6-0.2,1.2-0.7,1.6l-0.6-0.5c0.4-0.4,0.5-0.8,0.5-1.1c0-0.2,0-0.3-0.1-0.4
			s-0.2-0.1-0.3-0.1s-0.2,0-0.3,0.1c-0.1,0.1-0.1,0.3-0.2,0.6c-0.1,0.4-0.2,0.8-0.4,1c-0.2,0.2-0.4,0.3-0.8,0.3s-0.6-0.1-0.8-0.4
			c-0.2-0.3-0.3-0.6-0.3-1c0-0.2,0-0.5,0.1-0.8s0.2-0.5,0.4-0.7l0.6,0.4c-0.2,0.3-0.4,0.7-0.4,1C484.3,63.4,484.4,63.5,484.4,63.6z"
			/>
		<path class="st7" d="M483.7,59.9v-0.8h3.8v0.8H483.7z"/>
		<path class="st7" d="M484.4,55.4h3.1v0.8h-3.1v1.1h-0.7v-3h0.7V55.4z"/>
		<path class="st7" d="M487.5,47.4l-0.8,0.3v1.6l0.8,0.3v0.9l-3.8-1.7V48l3.8-1.7V47.4z M484.8,48.5l1.1,0.5v-1L484.8,48.5z"/>
		<path class="st7" d="M485.1,41.5l2.1,1V43l-2.1,1h2.4v1h-3.8v-1.2l2.1-1l-2.1-1v-1.2h3.8v0.8L485.1,41.5L485.1,41.5z"/>
		<path class="st7" d="M483.7,35.9h0.8v1.9h0.8v-1.7h0.7v1.7h0.8v-2h0.8v2.8h-3.8L483.7,35.9L483.7,35.9z"/>
		<path class="st7" d="M484.4,32.4h3.1v0.8h-3.1v1.1h-0.7v-3h0.7V32.4z"/>
	</g>
</g>
</svg>
