<?xml version="1.0" encoding="utf-8"?>
<!-- Generator: Adobe Illustrator 26.2.1, SVG Export Plug-In . SVG Version: 6.00 Build 0)  -->
<!DOCTYPE svg PUBLIC "-//W3C//DTD SVG 1.1//EN" "http://www.w3.org/Graphics/SVG/1.1/DTD/svg11.dtd" [
	<!ENTITY ns_extend "http://ns.adobe.com/Extensibility/1.0/">
	<!ENTITY ns_ai "http://ns.adobe.com/AdobeIllustrator/10.0/">
	<!ENTITY ns_graphs "http://ns.adobe.com/Graphs/1.0/">
	<!ENTITY ns_vars "http://ns.adobe.com/Variables/1.0/">
	<!ENTITY ns_imrep "http://ns.adobe.com/ImageReplacement/1.0/">
	<!ENTITY ns_sfw "http://ns.adobe.com/SaveForWeb/1.0/">
	<!ENTITY ns_custom "http://ns.adobe.com/GenericCustomNamespace/1.0/">
	<!ENTITY ns_adobe_xpath "http://ns.adobe.com/XPath/1.0/">
]>
<svg version="1.1" id="Réteg_1" xmlns:x="&ns_extend;" xmlns:i="&ns_ai;" xmlns:graph="&ns_graphs;"
	 xmlns="http://www.w3.org/2000/svg" xmlns:xlink="http://www.w3.org/1999/xlink" x="0px" y="0px" viewBox="0 0 373 152"
	 style="enable-background:new 0 0 373 152;" xml:space="preserve">
<style type="text/css">
	.st0{fill:url(#SVGID_1_);}
	.st1{fill:none;stroke:url(#SVGID_00000081612134209153419610000017753253999039797159_);}
	
		.st2{fill:url(#SVGID_00000174576096927480450830000003689826676455426185_);stroke:url(#SVGID_00000039122935441608608000000010732651042764703134_);}
</style>
<metadata>
	<sfw  xmlns="&ns_sfw;">
		<slices></slices>
		<sliceSourceBounds  bottomLeftOrigin="true" height="122.5" width="362" x="5.5" y="8.2"></sliceSourceBounds>
	</sfw>
</metadata>
<g>
	
		<linearGradient id="SVGID_1_" gradientUnits="userSpaceOnUse" x1="4.9854" y1="69.6796" x2="368.328" y2="69.6796" gradientTransform="matrix(1 0 0 -1 0 154)">
		<stop  offset="0" style="stop-color:#A1E5F5"/>
		<stop  offset="8.854170e-02" style="stop-color:#50C4DF"/>
		<stop  offset="0.3021" style="stop-color:#5BBBD1"/>
		<stop  offset="0.5104" style="stop-color:#4897AA"/>
		<stop  offset="0.6198" style="stop-color:#549979"/>
		<stop  offset="0.7448" style="stop-color:#5ACF99"/>
		<stop  offset="0.9062" style="stop-color:#49CE91"/>
		<stop  offset="1" style="stop-color:#9AFFD1"/>
	</linearGradient>
	<path class="st0" d="M108.9,33.4c28.9-10.3,55.7-10,80.4-6.1l168.6,26.2c10.7,1.7,14.2,41,1.7,45.5l-108.3,35.9
		c-29.7,10.7-36.9,10.5-62,6.1L12.8,107.8c-8.9-1.6-10.6-36.4,0-40.2L108.9,33.4z"/>
	
		<linearGradient id="SVGID_00000000914608758972696110000008189107395523430825_" gradientUnits="userSpaceOnUse" x1="236.8136" y1="88.6296" x2="166.8136" y2="65.1296" gradientTransform="matrix(1 0 0 -1 0 154)">
		<stop  offset="0" style="stop-color:#51E5A1"/>
		<stop  offset="1" style="stop-color:#50C4DF"/>
	</linearGradient>
	<path style="fill:none;stroke:url(#SVGID_00000000914608758972696110000008189107395523430825_);" d="M12.9,107.3L12.9,107.3
		l176.4,33.2c0,0,0,0,0,0c12.5,2.2,20.6,3.3,29.1,2.6c8.6-0.7,17.8-3.3,32.6-8.7l0,0l0,0l108.3-35.9c0,0,0,0,0,0
		c2.9-1,4.9-4.1,6.2-8.4c1.2-4.3,1.6-9.6,1.3-14.9c-0.3-5.3-1.4-10.4-3-14.3c-0.8-2-1.7-3.6-2.8-4.8c-1-1.2-2.2-1.9-3.3-2.1
		c0,0,0,0,0,0L189.2,27.8l0,0c-24.6-3.9-51.3-4.2-80.1,6.1l0,0L13,68 M12.9,107.3c-1-0.2-1.9-0.8-2.7-1.8 M10.2,105.4 M12.9,107.3
		 M10.2,105.4c-0.8-1.1-1.6-2.5-2.2-4.2 M8.1,101.2 M10.2,105.4 M8.1,101.2c-1.2-3.5-1.9-8.1-2-12.7 M6,88.5 M8.1,101.2 M6,88.5
		c-0.1-4.7,0.4-9.4,1.6-13.1 M7.6,75.4 M6,88.5 M7.6,75.4c1.2-3.8,3-6.5,5.4-7.3"/>
</g>
<linearGradient id="SVGID_00000152224585215027794840000011603633805288290219_" gradientUnits="userSpaceOnUse" x1="262.1343" y1="167.2469" x2="141.3513" y2="45.833" gradientTransform="matrix(1 0 0 -1 0 154)">
	<stop  offset="0" style="stop-color:#51E5A1"/>
	<stop  offset="1" style="stop-color:#A1E5F5"/>
</linearGradient>
<linearGradient id="SVGID_00000176759541655677258790000017512033214797847716_" gradientUnits="userSpaceOnUse" x1="266.9545" y1="144.3699" x2="77.6325" y2="18.253" gradientTransform="matrix(1 0 0 -1 0 154)">
	<stop  offset="0" style="stop-color:#52D699"/>
	<stop  offset="1" style="stop-color:#5BBBD1"/>
</linearGradient>
<path style="fill:url(#SVGID_00000152224585215027794840000011603633805288290219_);stroke:url(#SVGID_00000176759541655677258790000017512033214797847716_);" d="
	M168.3,22.8l188.3,30.8c5.7,0.9,4,6.2-2.7,8.6L247.7,99c-16.3,5.7-33.4,7.6-47.2,5.3L13.6,73.6c-4.7-0.8-3.5-5.2,2.1-7.2l103.9-37.8
	C136.3,22.6,154,20.4,168.3,22.8z"/>
</svg>
